<?xml version="1.0" standalone="no"?>
<!DOCTYPE svg PUBLIC "-//W3C//DTD SVG 1.1//EN" "http://www.w3.org/Graphics/SVG/1.1/DTD/svg11.dtd" >
<svg xmlns="http://www.w3.org/2000/svg">
<metadata></metadata>
<defs>
<font id="dotmatrixregular" horiz-adv-x="1536" >
<font-face units-per-em="2048" ascent="1638" descent="-410" />
<missing-glyph horiz-adv-x="1024" />
<glyph unicode="&#xd;" horiz-adv-x="1024" />
<glyph unicode=" "  horiz-adv-x="1024" />
<glyph unicode="&#x09;" horiz-adv-x="1024" />
<glyph unicode="&#xa0;" horiz-adv-x="1024" />
<glyph unicode="!" d="M254 512q0 45 31.5 77t74.5 32q45 0 77 -32t32 -77t-30.5 -75.5t-78.5 -30.5q-43 0 -74.5 31.5t-31.5 74.5zM256 0q0 45 32 77t77 32q43 0 74.5 -32t31.5 -77t-31.5 -77t-74.5 -32q-45 0 -77 32t-32 77zM256 768q0 45 32 77t77 32q43 0 74.5 -32t31.5 -77t-30.5 -75.5 t-75.5 -30.5q-43 0 -76 30.5t-33 75.5zM256 1024q0 45 32 77t77 32q43 0 74.5 -32t31.5 -77t-30.5 -75.5t-75.5 -30.5q-43 0 -76 30.5t-33 75.5zM256 1280q0 45 32 77t77 32q43 0 74.5 -32t31.5 -77t-30.5 -75.5t-75.5 -30.5q-43 0 -76 30.5t-33 75.5zM256 1536q0 45 32 77 t77 32q43 0 74.5 -32t31.5 -77t-30.5 -75.5t-75.5 -30.5q-43 0 -76 30.5t-33 75.5z" />
<glyph unicode="&#x22;" d="M256 1280q0 45 32 77t77 32q43 0 74.5 -32t31.5 -77t-30.5 -75.5t-75.5 -30.5q-43 0 -76 30.5t-33 75.5zM256 1536q0 45 32 77t77 32q43 0 74.5 -32t31.5 -77t-30.5 -75.5t-75.5 -30.5q-43 0 -76 30.5t-33 75.5zM768 1280q0 45 32 77t77 32q43 0 74.5 -32t31.5 -77 t-30.5 -75.5t-75.5 -30.5q-43 0 -76 30.5t-33 75.5zM768 1536q0 45 32 77t77 32q43 0 74.5 -32t31.5 -77t-30.5 -75.5t-75.5 -30.5q-43 0 -76 30.5t-33 75.5z" />
<glyph unicode="#" d="M0 512q0 45 32 77t77 32q43 0 74.5 -32t31.5 -77t-30.5 -75.5t-75.5 -30.5q-43 0 -76 30.5t-33 75.5zM0 1024q0 45 32 77t77 32q43 0 74.5 -32t31.5 -77t-30.5 -75.5t-75.5 -30.5q-43 0 -76 30.5t-33 75.5zM254 512q0 45 31.5 77t74.5 32q45 0 77 -32t32 -77t-30.5 -75.5 t-78.5 -30.5q-43 0 -74.5 31.5t-31.5 74.5zM256 256q0 45 32 77t77 32q43 0 74.5 -32t31.5 -77t-30.5 -75.5t-75.5 -30.5q-43 0 -76 30.5t-33 75.5zM256 768q0 45 32 77t77 32q43 0 74.5 -32t31.5 -77t-30.5 -75.5t-75.5 -30.5q-43 0 -76 30.5t-33 75.5zM256 1024 q0 45 32 77t77 32q43 0 74.5 -32t31.5 -77t-30.5 -75.5t-75.5 -30.5q-43 0 -76 30.5t-33 75.5zM256 1280q0 45 32 77t77 32q43 0 74.5 -32t31.5 -77t-30.5 -75.5t-75.5 -30.5q-43 0 -76 30.5t-33 75.5zM512 512q0 45 32 77t77 32q43 0 74.5 -32t31.5 -77t-30.5 -75.5 t-75.5 -30.5q-43 0 -76 30.5t-33 75.5zM512 1024q0 45 32 77t77 32q43 0 74.5 -32t31.5 -77t-30.5 -75.5t-75.5 -30.5q-43 0 -76 30.5t-33 75.5zM766 512q0 45 31.5 77t74.5 32q45 0 77 -32t32 -77t-30.5 -75.5t-78.5 -30.5q-43 0 -74.5 31.5t-31.5 74.5zM768 256 q0 45 32 77t77 32q43 0 74.5 -32t31.5 -77t-30.5 -75.5t-75.5 -30.5q-43 0 -76 30.5t-33 75.5zM768 768q0 45 32 77t77 32q43 0 74.5 -32t31.5 -77t-30.5 -75.5t-75.5 -30.5q-43 0 -76 30.5t-33 75.5zM768 1024q0 45 32 77t77 32q43 0 74.5 -32t31.5 -77t-30.5 -75.5 t-75.5 -30.5q-43 0 -76 30.5t-33 75.5zM768 1280q0 45 32 77t77 32q43 0 74.5 -32t31.5 -77t-30.5 -75.5t-75.5 -30.5q-43 0 -76 30.5t-33 75.5zM1024 512q0 45 32 77t77 32q43 0 74.5 -32t31.5 -77t-30.5 -75.5t-75.5 -30.5q-43 0 -76 30.5t-33 75.5zM1024 1024q0 45 32 77 t77 32q43 0 74.5 -32t31.5 -77t-30.5 -75.5t-75.5 -30.5q-43 0 -76 30.5t-33 75.5z" />
<glyph unicode="$" d="M0 256q0 45 32 77t77 32q43 0 74.5 -32t31.5 -77t-30.5 -75.5t-75.5 -30.5q-43 0 -76 30.5t-33 75.5zM0 1024q0 45 32 77t77 32q43 0 74.5 -32t31.5 -77t-30.5 -75.5t-75.5 -30.5q-43 0 -76 30.5t-33 75.5zM0 1280q0 45 32 77t77 32q43 0 74.5 -32t31.5 -77t-30.5 -75.5 t-75.5 -30.5q-43 0 -76 30.5t-33 75.5zM256 0q0 45 32 77t77 32q43 0 74.5 -32t31.5 -77t-31.5 -77t-74.5 -32q-45 0 -77 32t-32 77zM256 768q0 45 32 77t77 32q43 0 74.5 -32t31.5 -77t-30.5 -75.5t-75.5 -30.5q-43 0 -76 30.5t-33 75.5zM256 1536q0 45 32 77t77 32 q43 0 74.5 -32t31.5 -77t-30.5 -75.5t-75.5 -30.5q-43 0 -76 30.5t-33 75.5zM510 512q0 45 31.5 77t74.5 32q45 0 77 -32t32 -77t-30.5 -75.5t-78.5 -30.5q-43 0 -74.5 31.5t-31.5 74.5zM512 0q0 45 32 77t77 32q43 0 74.5 -32t31.5 -77t-31.5 -77t-74.5 -32q-45 0 -77 32 t-32 77zM512 256q0 45 32 77t77 32q43 0 74.5 -32t31.5 -77t-30.5 -75.5t-75.5 -30.5q-43 0 -76 30.5t-33 75.5zM512 -256q0 45 31 75.5t78 30.5q43 0 74.5 -31.5t31.5 -74.5q0 -45 -31.5 -77t-74.5 -32q-45 0 -77 32t-32 77zM512 768q0 45 32 77t77 32q43 0 74.5 -32 t31.5 -77t-30.5 -75.5t-75.5 -30.5q-43 0 -76 30.5t-33 75.5zM512 1024q0 45 32 77t77 32q43 0 74.5 -32t31.5 -77t-30.5 -75.5t-75.5 -30.5q-43 0 -76 30.5t-33 75.5zM512 1280q0 45 32 77t77 32q43 0 74.5 -32t31.5 -77t-30.5 -75.5t-75.5 -30.5q-43 0 -76 30.5t-33 75.5z M512 1536q0 45 32 77t77 32q43 0 74.5 -32t31.5 -77t-30.5 -75.5t-75.5 -30.5q-43 0 -76 30.5t-33 75.5zM768 0q0 45 32 77t77 32q43 0 74.5 -32t31.5 -77t-31.5 -77t-74.5 -32q-45 0 -77 32t-32 77zM768 768q0 45 32 77t77 32q43 0 74.5 -32t31.5 -77t-30.5 -75.5 t-75.5 -30.5q-43 0 -76 30.5t-33 75.5zM768 1536q0 45 32 77t77 32q43 0 74.5 -32t31.5 -77t-30.5 -75.5t-75.5 -30.5q-43 0 -76 30.5t-33 75.5zM1022 512q0 45 31.5 77t74.5 32q45 0 77 -32t32 -77t-30.5 -75.5t-78.5 -30.5q-43 0 -74.5 31.5t-31.5 74.5zM1024 256 q0 45 32 77t77 32q43 0 74.5 -32t31.5 -77t-30.5 -75.5t-75.5 -30.5q-43 0 -76 30.5t-33 75.5zM1024 1280q0 45 32 77t77 32q43 0 74.5 -32t31.5 -77t-30.5 -75.5t-75.5 -30.5q-43 0 -76 30.5t-33 75.5z" />
<glyph unicode="%" d="M0 0q0 45 32 77t77 32q43 0 74.5 -32t31.5 -77t-31.5 -77t-74.5 -32q-45 0 -77 32t-32 77zM0 1280q0 45 32 77t77 32q43 0 74.5 -32t31.5 -77t-30.5 -75.5t-75.5 -30.5q-43 0 -76 30.5t-33 75.5zM129 256q0 43 31 76t76 33t76.5 -32t31.5 -77t-30.5 -75.5t-77.5 -30.5 q-45 0 -76 30.5t-31 75.5zM256 1024q0 45 32 77t77 32q43 0 74.5 -32t31.5 -77t-30.5 -75.5t-75.5 -30.5q-43 0 -76 30.5t-33 75.5zM256 1536q0 45 32 77t77 32q43 0 74.5 -32t31.5 -77t-30.5 -75.5t-75.5 -30.5q-43 0 -76 30.5t-33 75.5zM385 512q0 43 31 76t76 33 t76.5 -32t31.5 -77t-30.5 -75.5t-77.5 -30.5q-45 0 -76 30.5t-31 75.5zM512 256q0 45 32 77t77 32q43 0 74.5 -32t31.5 -77t-30.5 -75.5t-75.5 -30.5q-43 0 -76 30.5t-33 75.5zM512 768q0 45 32 77t77 32q43 0 74.5 -32t31.5 -77t-30.5 -75.5t-75.5 -30.5q-43 0 -76 30.5 t-33 75.5zM512 1280q0 45 32 77t77 32q43 0 74.5 -32t31.5 -77t-30.5 -75.5t-75.5 -30.5q-43 0 -76 30.5t-33 75.5zM641 1024q0 43 31 76t76 33t76.5 -32t31.5 -77t-30.5 -75.5t-77.5 -30.5q-45 0 -76 30.5t-31 75.5zM768 0q0 45 32 77t77 32q43 0 74.5 -32t31.5 -77 t-31.5 -77t-74.5 -32q-45 0 -77 32t-32 77zM768 512q0 45 32 77t77 32q43 0 74.5 -32t31.5 -77t-30.5 -75.5t-75.5 -30.5q-43 0 -76 30.5t-33 75.5zM897 1280q0 43 31 76t76 33t76.5 -32t31.5 -77t-30.5 -75.5t-77.5 -30.5q-45 0 -76 30.5t-31 75.5zM1024 256q0 45 32 77 t77 32q43 0 74.5 -32t31.5 -77t-30.5 -75.5t-75.5 -30.5q-43 0 -76 30.5t-33 75.5zM1024 1536q0 45 32 77t77 32q43 0 74.5 -32t31.5 -77t-30.5 -75.5t-75.5 -30.5q-43 0 -76 30.5t-33 75.5z" />
<glyph unicode="&#x26;" d="M0 256q0 45 32 77t77 32q43 0 74.5 -32t31.5 -77t-30.5 -75.5t-75.5 -30.5q-43 0 -76 30.5t-33 75.5zM0 512q0 45 32 77t77 32q43 0 74.5 -32t31.5 -77t-30.5 -75.5t-75.5 -30.5q-43 0 -76 30.5t-33 75.5zM0 768q0 45 32 77t77 32q43 0 74.5 -32t31.5 -77t-30.5 -75.5 t-75.5 -30.5q-43 0 -76 30.5t-33 75.5zM129 1280q0 43 31 76t76 33t76.5 -32t31.5 -77t-30.5 -75.5t-77.5 -30.5q-45 0 -76 30.5t-31 75.5zM256 0q0 45 32 77t77 32q43 0 74.5 -32t31.5 -77t-31.5 -77t-74.5 -32q-45 0 -77 32t-32 77zM256 1024q0 45 32 77t77 32 q43 0 74.5 -32t31.5 -77t-30.5 -75.5t-75.5 -30.5q-43 0 -76 30.5t-33 75.5zM256 1536q0 45 32 77t77 32q43 0 74.5 -32t31.5 -77t-30.5 -75.5t-75.5 -30.5q-43 0 -76 30.5t-33 75.5zM512 0q0 45 32 77t77 32q43 0 74.5 -32t31.5 -77t-31.5 -77t-74.5 -32q-45 0 -77 32 t-32 77zM512 768q0 45 32 77t77 32q43 0 74.5 -32t31.5 -77t-30.5 -75.5t-75.5 -30.5q-43 0 -76 30.5t-33 75.5zM512 1280q0 45 32 77t77 32q43 0 74.5 -32t31.5 -77t-30.5 -75.5t-75.5 -30.5q-43 0 -76 30.5t-33 75.5zM512 1536q0 45 32 77t77 32q43 0 74.5 -32t31.5 -77 t-30.5 -75.5t-75.5 -30.5q-43 0 -76 30.5t-33 75.5zM768 256q0 45 32 77t77 32q43 0 74.5 -32t31.5 -77t-30.5 -75.5t-75.5 -30.5q-43 0 -76 30.5t-33 75.5zM768 512q0 45 32 77t77 32q43 0 74.5 -32t31.5 -77t-30.5 -75.5t-75.5 -30.5q-43 0 -76 30.5t-33 75.5zM1024 256 q0 45 32 77t77 32q43 0 74.5 -32t31.5 -77t-30.5 -75.5t-75.5 -30.5q-43 0 -76 30.5t-33 75.5zM1024 512q0 45 32 77t77 32q43 0 74.5 -32t31.5 -77t-30.5 -75.5t-75.5 -30.5q-43 0 -76 30.5t-33 75.5zM1280 0q0 45 32 77t77 32q43 0 74.5 -32t31.5 -77t-31.5 -77t-74.5 -32 q-45 0 -77 32t-32 77zM1280 768q0 45 32 77t77 32q43 0 74.5 -32t31.5 -77t-30.5 -75.5t-75.5 -30.5q-43 0 -76 30.5t-33 75.5z" />
<glyph unicode="'" d="M512 1280q0 45 32 77t77 32q43 0 74.5 -32t31.5 -77t-30.5 -75.5t-75.5 -30.5q-43 0 -76 30.5t-33 75.5zM512 1536q0 45 32 77t77 32q43 0 74.5 -32t31.5 -77t-30.5 -75.5t-75.5 -30.5q-43 0 -76 30.5t-33 75.5z" />
<glyph unicode="(" d="M512 512q0 45 32 77t77 32q43 0 74.5 -32t31.5 -77t-30.5 -75.5t-75.5 -30.5q-43 0 -76 30.5t-33 75.5zM512 768q0 45 32 77t77 32q43 0 74.5 -32t31.5 -77t-30.5 -75.5t-75.5 -30.5q-43 0 -76 30.5t-33 75.5zM512 1024q0 45 32 77t77 32q43 0 74.5 -32t31.5 -77 t-30.5 -75.5t-75.5 -30.5q-43 0 -76 30.5t-33 75.5zM768 256q0 45 32 77t77 32q43 0 74.5 -32t31.5 -77t-30.5 -75.5t-75.5 -30.5q-43 0 -76 30.5t-33 75.5zM768 1280q0 45 32 77t77 32q43 0 74.5 -32t31.5 -77t-30.5 -75.5t-75.5 -30.5q-43 0 -76 30.5t-33 75.5zM1024 0 q0 45 32 77t77 32q43 0 74.5 -32t31.5 -77t-31.5 -77t-74.5 -32q-45 0 -77 32t-32 77zM1024 1536q0 45 32 77t77 32q43 0 74.5 -32t31.5 -77t-30.5 -75.5t-75.5 -30.5q-43 0 -76 30.5t-33 75.5z" />
<glyph unicode=")" d="M0 0q0 45 32 77t77 32q43 0 74.5 -32t31.5 -77t-31.5 -77t-74.5 -32q-45 0 -77 32t-32 77zM0 1536q0 45 32 77t77 32q43 0 74.5 -32t31.5 -77t-30.5 -75.5t-75.5 -30.5q-43 0 -76 30.5t-33 75.5zM256 256q0 45 32 77t77 32q43 0 74.5 -32t31.5 -77t-30.5 -75.5 t-75.5 -30.5q-43 0 -76 30.5t-33 75.5zM256 1280q0 45 32 77t77 32q43 0 74.5 -32t31.5 -77t-30.5 -75.5t-75.5 -30.5q-43 0 -76 30.5t-33 75.5zM512 512q0 45 32 77t77 32q43 0 74.5 -32t31.5 -77t-30.5 -75.5t-75.5 -30.5q-43 0 -76 30.5t-33 75.5zM512 768q0 45 32 77 t77 32q43 0 74.5 -32t31.5 -77t-30.5 -75.5t-75.5 -30.5q-43 0 -76 30.5t-33 75.5zM512 1024q0 45 32 77t77 32q43 0 74.5 -32t31.5 -77t-30.5 -75.5t-75.5 -30.5q-43 0 -76 30.5t-33 75.5z" />
<glyph unicode="*" d="M-2 512q0 45 31.5 77t74.5 32q45 0 77 -32t32 -77t-30.5 -75.5t-78.5 -30.5q-43 0 -74.5 31.5t-31.5 74.5zM-2 1024q0 45 31.5 77t74.5 32q45 0 77 -32t32 -77t-30.5 -75.5t-78.5 -30.5q-43 0 -74.5 31.5t-31.5 74.5zM-2 1536q0 45 31.5 77t74.5 32q45 0 77 -32t32 -77 t-30.5 -75.5t-78.5 -30.5q-43 0 -74.5 31.5t-31.5 74.5zM254 768q0 45 31.5 77t74.5 32q45 0 77 -32t32 -77t-30.5 -75.5t-78.5 -30.5q-43 0 -74.5 31.5t-31.5 74.5zM254 1280q0 45 31.5 77t74.5 32q45 0 77 -32t32 -77t-30.5 -75.5t-78.5 -30.5q-43 0 -74.5 31.5 t-31.5 74.5zM256 1024q0 45 32 77t77 32q43 0 74.5 -32t31.5 -77t-30.5 -75.5t-75.5 -30.5q-43 0 -76 30.5t-33 75.5zM510 512q0 45 31.5 77t74.5 32q45 0 77 -32t32 -77t-30.5 -75.5t-78.5 -30.5q-43 0 -74.5 31.5t-31.5 74.5zM510 1536q0 45 31.5 77t74.5 32q45 0 77 -32 t32 -77t-30.5 -75.5t-78.5 -30.5q-43 0 -74.5 31.5t-31.5 74.5zM512 768q0 45 32 77t77 32q43 0 74.5 -32t31.5 -77t-30.5 -75.5t-75.5 -30.5q-43 0 -76 30.5t-33 75.5zM512 1024q0 45 32 77t77 32q43 0 74.5 -32t31.5 -77t-30.5 -75.5t-75.5 -30.5q-43 0 -76 30.5t-33 75.5 zM512 1280q0 45 32 77t77 32q43 0 74.5 -32t31.5 -77t-30.5 -75.5t-75.5 -30.5q-43 0 -76 30.5t-33 75.5zM766 768q0 45 31.5 77t74.5 32q45 0 77 -32t32 -77t-30.5 -75.5t-78.5 -30.5q-43 0 -74.5 31.5t-31.5 74.5zM766 1280q0 45 31.5 77t74.5 32q45 0 77 -32t32 -77 t-30.5 -75.5t-78.5 -30.5q-43 0 -74.5 31.5t-31.5 74.5zM768 1024q0 45 32 77t77 32q43 0 74.5 -32t31.5 -77t-30.5 -75.5t-75.5 -30.5q-43 0 -76 30.5t-33 75.5zM1022 512q0 45 31.5 77t74.5 32q45 0 77 -32t32 -77t-30.5 -75.5t-78.5 -30.5q-43 0 -74.5 31.5t-31.5 74.5z M1022 1024q0 45 31.5 77t74.5 32q45 0 77 -32t32 -77t-30.5 -75.5t-78.5 -30.5q-43 0 -74.5 31.5t-31.5 74.5zM1022 1536q0 45 31.5 77t74.5 32q45 0 77 -32t32 -77t-30.5 -75.5t-78.5 -30.5q-43 0 -74.5 31.5t-31.5 74.5z" />
<glyph unicode="+" d="M-2 512q0 45 31.5 77t74.5 32q45 0 77 -32t32 -77t-30.5 -75.5t-78.5 -30.5q-43 0 -74.5 31.5t-31.5 74.5zM256 512q0 45 32 77t77 32q43 0 74.5 -32t31.5 -77t-30.5 -75.5t-75.5 -30.5q-43 0 -76 30.5t-33 75.5zM510 0q0 45 31.5 77t74.5 32q45 0 77 -32t32 -77 t-31.5 -77t-77.5 -32q-43 0 -74.5 32t-31.5 77zM510 1024q0 45 31.5 77t74.5 32q45 0 77 -32t32 -77t-30.5 -75.5t-78.5 -30.5q-43 0 -74.5 31.5t-31.5 74.5zM512 256q0 45 32 77t77 32q43 0 74.5 -32t31.5 -77t-30.5 -75.5t-75.5 -30.5q-43 0 -76 30.5t-33 75.5zM512 512 q0 45 32 77t77 32q43 0 74.5 -32t31.5 -77t-30.5 -75.5t-75.5 -30.5q-43 0 -76 30.5t-33 75.5zM512 768q0 45 32 77t77 32q43 0 74.5 -32t31.5 -77t-30.5 -75.5t-75.5 -30.5q-43 0 -76 30.5t-33 75.5zM768 512q0 45 32 77t77 32q43 0 74.5 -32t31.5 -77t-30.5 -75.5 t-75.5 -30.5q-43 0 -76 30.5t-33 75.5zM1022 512q0 45 31.5 77t74.5 32q45 0 77 -32t32 -77t-30.5 -75.5t-78.5 -30.5q-43 0 -74.5 31.5t-31.5 74.5z" />
<glyph unicode="," d="M0 0q0 45 32 77t77 32q43 0 74.5 -32t31.5 -77t-31.5 -77t-74.5 -32q-45 0 -77 32t-32 77zM0 256q0 45 32 77t77 32q43 0 74.5 -32t31.5 -77t-30.5 -75.5t-75.5 -30.5q-43 0 -76 30.5t-33 75.5zM0 -512q0 45 31 75.5t78 30.5q43 0 74.5 -31.5t31.5 -74.5q0 -45 -31.5 -77 t-74.5 -32q-45 0 -77 32t-32 77zM129 -256q0 45 31 75.5t76 30.5q43 0 75.5 -30.5t32.5 -75.5t-31.5 -77t-76.5 -32t-76 31t-31 78zM256 0q0 45 32 77t77 32q43 0 74.5 -32t31.5 -77t-31.5 -77t-74.5 -32q-45 0 -77 32t-32 77zM256 256q0 45 32 77t77 32q43 0 74.5 -32 t31.5 -77t-30.5 -75.5t-75.5 -30.5q-43 0 -76 30.5t-33 75.5z" />
<glyph unicode="-" d="M-2 512q0 45 31.5 77t74.5 32q45 0 77 -32t32 -77t-30.5 -75.5t-78.5 -30.5q-43 0 -74.5 31.5t-31.5 74.5zM256 512q0 45 32 77t77 32q43 0 74.5 -32t31.5 -77t-30.5 -75.5t-75.5 -30.5q-43 0 -76 30.5t-33 75.5zM512 512q0 45 32 77t77 32q43 0 74.5 -32t31.5 -77 t-30.5 -75.5t-75.5 -30.5q-43 0 -76 30.5t-33 75.5zM768 512q0 45 32 77t77 32q43 0 74.5 -32t31.5 -77t-30.5 -75.5t-75.5 -30.5q-43 0 -76 30.5t-33 75.5zM1022 512q0 45 31.5 77t74.5 32q45 0 77 -32t32 -77t-30.5 -75.5t-78.5 -30.5q-43 0 -74.5 31.5t-31.5 74.5z" />
<glyph unicode="." d="M0 0q0 45 32 77t77 32q43 0 74.5 -32t31.5 -77t-31.5 -77t-74.5 -32q-45 0 -77 32t-32 77zM0 256q0 45 32 77t77 32q43 0 74.5 -32t31.5 -77t-30.5 -75.5t-75.5 -30.5q-43 0 -76 30.5t-33 75.5zM256 0q0 45 32 77t77 32q43 0 74.5 -32t31.5 -77t-31.5 -77t-74.5 -32 q-45 0 -77 32t-32 77zM256 256q0 45 32 77t77 32q43 0 74.5 -32t31.5 -77t-30.5 -75.5t-75.5 -30.5q-43 0 -76 30.5t-33 75.5z" />
<glyph unicode="/" d="M0 0q0 45 32 77t77 32q43 0 74.5 -32t31.5 -77t-31.5 -77t-74.5 -32q-45 0 -77 32t-32 77zM129 256q0 43 31 76t76 33t76.5 -32t31.5 -77t-30.5 -75.5t-77.5 -30.5q-45 0 -76 30.5t-31 75.5zM256 512q0 45 32 77t77 32q43 0 74.5 -32t31.5 -77t-30.5 -75.5t-75.5 -30.5 q-43 0 -76 30.5t-33 75.5zM385 768q0 43 31 76t76 33t76.5 -32t31.5 -77t-30.5 -75.5t-77.5 -30.5q-45 0 -76 30.5t-31 75.5zM512 1024q0 45 32 77t77 32q43 0 74.5 -32t31.5 -77t-30.5 -75.5t-75.5 -30.5q-43 0 -76 30.5t-33 75.5zM641 1280q0 43 31 76t76 33t76.5 -32 t31.5 -77t-30.5 -75.5t-77.5 -30.5q-45 0 -76 30.5t-31 75.5zM768 1536q0 45 32 77t77 32q43 0 74.5 -32t31.5 -77t-30.5 -75.5t-75.5 -30.5q-43 0 -76 30.5t-33 75.5z" />
<glyph unicode="0" d="M-2 512q0 45 31.5 77t74.5 32q45 0 77 -32t32 -77t-30.5 -75.5t-78.5 -30.5q-43 0 -74.5 31.5t-31.5 74.5zM0 256q0 45 32 77t77 32q43 0 74.5 -32t31.5 -77t-30.5 -75.5t-75.5 -30.5q-43 0 -76 30.5t-33 75.5zM0 768q0 45 32 77t77 32q43 0 74.5 -32t31.5 -77 t-30.5 -75.5t-75.5 -30.5q-43 0 -76 30.5t-33 75.5zM0 1024q0 45 32 77t77 32q43 0 74.5 -32t31.5 -77t-30.5 -75.5t-75.5 -30.5q-43 0 -76 30.5t-33 75.5zM0 1280q0 45 32 77t77 32q43 0 74.5 -32t31.5 -77t-30.5 -75.5t-75.5 -30.5q-43 0 -76 30.5t-33 75.5zM252 256 q0 43 30.5 76t75.5 33t77 -32t32 -77t-30.5 -75.5t-78.5 -30.5q-45 0 -75.5 30.5t-30.5 75.5zM256 0q0 45 32 77t77 32q43 0 74.5 -32t31.5 -77t-31.5 -77t-74.5 -32q-45 0 -77 32t-32 77zM256 1536q0 45 32 77t77 32q43 0 74.5 -32t31.5 -77t-30.5 -75.5t-75.5 -30.5 q-43 0 -76 30.5t-33 75.5zM379 512q0 45 31.5 77t76.5 32q43 0 75 -32t32 -77t-31 -75.5t-76 -30.5q-43 0 -75.5 30.5t-32.5 75.5zM508 768q0 43 30.5 76t75.5 33t77 -32t32 -77t-30.5 -75.5t-78.5 -30.5q-45 0 -75.5 30.5t-30.5 75.5zM512 0q0 45 32 77t77 32 q43 0 74.5 -32t31.5 -77t-31.5 -77t-74.5 -32q-45 0 -77 32t-32 77zM512 1536q0 45 32 77t77 32q43 0 74.5 -32t31.5 -77t-30.5 -75.5t-75.5 -30.5q-43 0 -76 30.5t-33 75.5zM635 1024q0 45 31.5 77t76.5 32q43 0 75 -32t32 -77t-31 -75.5t-76 -30.5q-43 0 -75.5 30.5 t-32.5 75.5zM764 1280q0 43 30.5 76t75.5 33t77 -32t32 -77t-30.5 -75.5t-78.5 -30.5q-45 0 -75.5 30.5t-30.5 75.5zM768 0q0 45 32 77t77 32q43 0 74.5 -32t31.5 -77t-31.5 -77t-74.5 -32q-45 0 -77 32t-32 77zM768 1536q0 45 32 77t77 32q43 0 74.5 -32t31.5 -77 t-30.5 -75.5t-75.5 -30.5q-43 0 -76 30.5t-33 75.5zM1022 512q0 45 31.5 77t74.5 32q45 0 77 -32t32 -77t-30.5 -75.5t-78.5 -30.5q-43 0 -74.5 31.5t-31.5 74.5zM1024 256q0 45 32 77t77 32q43 0 74.5 -32t31.5 -77t-30.5 -75.5t-75.5 -30.5q-43 0 -76 30.5t-33 75.5z M1024 768q0 45 32 77t77 32q43 0 74.5 -32t31.5 -77t-30.5 -75.5t-75.5 -30.5q-43 0 -76 30.5t-33 75.5zM1024 1024q0 45 32 77t77 32q43 0 74.5 -32t31.5 -77t-30.5 -75.5t-75.5 -30.5q-43 0 -76 30.5t-33 75.5zM1024 1280q0 45 32 77t77 32q43 0 74.5 -32t31.5 -77 t-30.5 -75.5t-75.5 -30.5q-43 0 -76 30.5t-33 75.5z" />
<glyph unicode="1" d="M256 0q0 45 32 77t77 32q43 0 74.5 -32t31.5 -77t-31.5 -77t-74.5 -32q-45 0 -77 32t-32 77zM256 1280q0 45 32 77t77 32q43 0 74.5 -32t31.5 -77t-30.5 -75.5t-75.5 -30.5q-43 0 -76 30.5t-33 75.5zM510 512q0 45 31.5 77t74.5 32q45 0 77 -32t32 -77t-30.5 -75.5 t-78.5 -30.5q-43 0 -74.5 31.5t-31.5 74.5zM512 0q0 45 32 77t77 32q43 0 74.5 -32t31.5 -77t-31.5 -77t-74.5 -32q-45 0 -77 32t-32 77zM512 256q0 45 32 77t77 32q43 0 74.5 -32t31.5 -77t-30.5 -75.5t-75.5 -30.5q-43 0 -76 30.5t-33 75.5zM512 768q0 45 32 77t77 32 q43 0 74.5 -32t31.5 -77t-30.5 -75.5t-75.5 -30.5q-43 0 -76 30.5t-33 75.5zM512 1024q0 45 32 77t77 32q43 0 74.5 -32t31.5 -77t-30.5 -75.5t-75.5 -30.5q-43 0 -76 30.5t-33 75.5zM512 1280q0 45 32 77t77 32q43 0 74.5 -32t31.5 -77t-30.5 -75.5t-75.5 -30.5 q-43 0 -76 30.5t-33 75.5zM512 1536q0 45 32 77t77 32q43 0 74.5 -32t31.5 -77t-30.5 -75.5t-75.5 -30.5q-43 0 -76 30.5t-33 75.5zM768 0q0 45 32 77t77 32q43 0 74.5 -32t31.5 -77t-31.5 -77t-74.5 -32q-45 0 -77 32t-32 77z" />
<glyph unicode="2" d="M0 0q0 45 31.5 77t77.5 32q43 0 74.5 -32t31.5 -77t-31.5 -77t-74.5 -32q-45 0 -77 32t-32 77zM0 1280q0 45 31.5 77t77.5 32q43 0 74.5 -32t31.5 -77t-30.5 -75.5t-75.5 -30.5q-43 0 -76 30.5t-33 75.5zM256 0q0 45 31.5 77t77.5 32q43 0 74.5 -32t31.5 -77t-31.5 -77 t-74.5 -32q-45 0 -77 32t-32 77zM256 256q0 45 31.5 77t77.5 32q43 0 74.5 -32t31.5 -77t-30.5 -75.5t-75.5 -30.5q-43 0 -76 30.5t-33 75.5zM256 1536q0 45 31.5 77t77.5 32q43 0 74.5 -32t31.5 -77t-30.5 -75.5t-75.5 -30.5q-43 0 -76 30.5t-33 75.5zM512 0q0 45 31.5 77 t77.5 32q43 0 74.5 -32t31.5 -77t-31.5 -77t-74.5 -32q-45 0 -77 32t-32 77zM512 512q0 45 31.5 77t77.5 32q43 0 74.5 -32t31.5 -77t-30.5 -75.5t-75.5 -30.5q-43 0 -76 30.5t-33 75.5zM512 1536q0 45 31.5 77t77.5 32q43 0 74.5 -32t31.5 -77t-30.5 -75.5t-75.5 -30.5 q-43 0 -76 30.5t-33 75.5zM768 0q0 45 31.5 77t77.5 32q43 0 74.5 -32t31.5 -77t-31.5 -77t-74.5 -32q-45 0 -77 32t-32 77zM768 768q0 45 31.5 77t77.5 32q43 0 74.5 -32t31.5 -77t-30.5 -75.5t-75.5 -30.5q-43 0 -76 30.5t-33 75.5zM768 1536q0 45 31.5 77t77.5 32 q43 0 74.5 -32t31.5 -77t-30.5 -75.5t-75.5 -30.5q-43 0 -76 30.5t-33 75.5zM1024 0q0 45 31.5 77t77.5 32q43 0 74.5 -32t31.5 -77t-31.5 -77t-74.5 -32q-45 0 -77 32t-32 77zM1024 1024q0 45 31.5 77t77.5 32q43 0 74.5 -32t31.5 -77t-30.5 -75.5t-75.5 -30.5 q-43 0 -76 30.5t-33 75.5zM1024 1280q0 45 31.5 77t77.5 32q43 0 74.5 -32t31.5 -77t-30.5 -75.5t-75.5 -30.5q-43 0 -76 30.5t-33 75.5z" />
<glyph unicode="3" d="M0 256q0 45 32 77t77 32q43 0 74.5 -32t31.5 -77t-30.5 -75.5t-75.5 -30.5q-43 0 -76 30.5t-33 75.5zM0 1280q0 45 32 77t77 32q43 0 74.5 -32t31.5 -77t-30.5 -75.5t-75.5 -30.5q-43 0 -76 30.5t-33 75.5zM256 0q0 45 32 77t77 32q43 0 74.5 -32t31.5 -77t-31.5 -77 t-74.5 -32q-45 0 -77 32t-32 77zM256 1536q0 45 32 77t77 32q43 0 74.5 -32t31.5 -77t-30.5 -75.5t-75.5 -30.5q-43 0 -76 30.5t-33 75.5zM512 0q0 45 32 77t77 32q43 0 74.5 -32t31.5 -77t-31.5 -77t-74.5 -32q-45 0 -77 32t-32 77zM512 768q0 45 32 77t77 32 q43 0 74.5 -32t31.5 -77t-30.5 -75.5t-75.5 -30.5q-43 0 -76 30.5t-33 75.5zM512 1536q0 45 32 77t77 32q43 0 74.5 -32t31.5 -77t-30.5 -75.5t-75.5 -30.5q-43 0 -76 30.5t-33 75.5zM768 0q0 45 32 77t77 32q43 0 74.5 -32t31.5 -77t-31.5 -77t-74.5 -32q-45 0 -77 32 t-32 77zM768 768q0 45 32 77t77 32q43 0 74.5 -32t31.5 -77t-30.5 -75.5t-75.5 -30.5q-43 0 -76 30.5t-33 75.5zM768 1536q0 45 32 77t77 32q43 0 74.5 -32t31.5 -77t-30.5 -75.5t-75.5 -30.5q-43 0 -76 30.5t-33 75.5zM1022 512q0 45 31.5 77t74.5 32q45 0 77 -32t32 -77 t-30.5 -75.5t-78.5 -30.5q-43 0 -74.5 31.5t-31.5 74.5zM1024 256q0 45 32 77t77 32q43 0 74.5 -32t31.5 -77t-30.5 -75.5t-75.5 -30.5q-43 0 -76 30.5t-33 75.5zM1024 1024q0 45 32 77t77 32q43 0 74.5 -32t31.5 -77t-30.5 -75.5t-75.5 -30.5q-43 0 -76 30.5t-33 75.5z M1024 1280q0 45 32 77t77 32q43 0 74.5 -32t31.5 -77t-30.5 -75.5t-75.5 -30.5q-43 0 -76 30.5t-33 75.5z" />
<glyph unicode="4" d="M0 512q0 45 32 77t77 32q43 0 74.5 -32t31.5 -77t-30.5 -75.5t-75.5 -30.5q-43 0 -76 30.5t-33 75.5zM129 768q0 43 31 76t76 33t76.5 -32t31.5 -77t-30.5 -75.5t-77.5 -30.5q-45 0 -76 30.5t-31 75.5zM256 512q0 45 32 77t77 32q43 0 74.5 -32t31.5 -77t-30.5 -75.5 t-75.5 -30.5q-43 0 -76 30.5t-33 75.5zM256 1024q0 45 32 77t77 32q43 0 74.5 -32t31.5 -77t-30.5 -75.5t-75.5 -30.5q-43 0 -76 30.5t-33 75.5zM385 1280q0 43 31 76t76 33t76.5 -32t31.5 -77t-30.5 -75.5t-77.5 -30.5q-45 0 -76 30.5t-31 75.5zM512 512q0 45 32 77t77 32 q43 0 74.5 -32t31.5 -77t-30.5 -75.5t-75.5 -30.5q-43 0 -76 30.5t-33 75.5zM512 1536q0 45 32 77t77 32q43 0 74.5 -32t31.5 -77t-30.5 -75.5t-75.5 -30.5q-43 0 -76 30.5t-33 75.5zM766 512q0 45 31.5 77t74.5 32q45 0 77 -32t32 -77t-30.5 -75.5t-78.5 -30.5 q-43 0 -74.5 31.5t-31.5 74.5zM768 0q0 45 32 77t77 32q43 0 74.5 -32t31.5 -77t-31.5 -77t-74.5 -32q-45 0 -77 32t-32 77zM768 256q0 45 32 77t77 32q43 0 74.5 -32t31.5 -77t-30.5 -75.5t-75.5 -30.5q-43 0 -76 30.5t-33 75.5zM768 768q0 45 32 77t77 32q43 0 74.5 -32 t31.5 -77t-30.5 -75.5t-75.5 -30.5q-43 0 -76 30.5t-33 75.5zM768 1024q0 45 32 77t77 32q43 0 74.5 -32t31.5 -77t-30.5 -75.5t-75.5 -30.5q-43 0 -76 30.5t-33 75.5zM768 1280q0 45 32 77t77 32q43 0 74.5 -32t31.5 -77t-30.5 -75.5t-75.5 -30.5q-43 0 -76 30.5t-33 75.5z M768 1536q0 45 32 77t77 32q43 0 74.5 -32t31.5 -77t-30.5 -75.5t-75.5 -30.5q-43 0 -76 30.5t-33 75.5zM1024 512q0 45 32 77t77 32q43 0 74.5 -32t31.5 -77t-30.5 -75.5t-75.5 -30.5q-43 0 -76 30.5t-33 75.5z" />
<glyph unicode="5" d="M0 256q0 45 32 77t77 32q43 0 74.5 -32t31.5 -77t-30.5 -75.5t-75.5 -30.5q-43 0 -76 30.5t-33 75.5zM0 1024q0 45 32 77t77 32q43 0 74.5 -32t31.5 -77t-30.5 -75.5t-75.5 -30.5q-43 0 -76 30.5t-33 75.5zM0 1280q0 45 32 77t77 32q43 0 74.5 -32t31.5 -77t-30.5 -75.5 t-75.5 -30.5q-43 0 -76 30.5t-33 75.5zM0 1536q0 45 32 77t77 32q43 0 74.5 -32t31.5 -77t-30.5 -75.5t-75.5 -30.5q-43 0 -76 30.5t-33 75.5zM256 0q0 45 32 77t77 32q43 0 74.5 -32t31.5 -77t-31.5 -77t-74.5 -32q-45 0 -77 32t-32 77zM256 1024q0 45 32 77t77 32 q43 0 74.5 -32t31.5 -77t-30.5 -75.5t-75.5 -30.5q-43 0 -76 30.5t-33 75.5zM256 1536q0 45 32 77t77 32q43 0 74.5 -32t31.5 -77t-30.5 -75.5t-75.5 -30.5q-43 0 -76 30.5t-33 75.5zM512 0q0 45 32 77t77 32q43 0 74.5 -32t31.5 -77t-31.5 -77t-74.5 -32q-45 0 -77 32 t-32 77zM512 1024q0 45 32 77t77 32q43 0 74.5 -32t31.5 -77t-30.5 -75.5t-75.5 -30.5q-43 0 -76 30.5t-33 75.5zM512 1536q0 45 32 77t77 32q43 0 74.5 -32t31.5 -77t-30.5 -75.5t-75.5 -30.5q-43 0 -76 30.5t-33 75.5zM768 0q0 45 32 77t77 32q43 0 74.5 -32t31.5 -77 t-31.5 -77t-74.5 -32q-45 0 -77 32t-32 77zM768 1024q0 45 32 77t77 32q43 0 74.5 -32t31.5 -77t-30.5 -75.5t-75.5 -30.5q-43 0 -76 30.5t-33 75.5zM768 1536q0 45 32 77t77 32q43 0 74.5 -32t31.5 -77t-30.5 -75.5t-75.5 -30.5q-43 0 -76 30.5t-33 75.5zM1024 256 q0 45 32 77t77 32q43 0 74.5 -32t31.5 -77t-30.5 -75.5t-75.5 -30.5q-43 0 -76 30.5t-33 75.5zM1024 512q0 45 32 77t77 32q43 0 74.5 -32t31.5 -77t-30.5 -75.5t-75.5 -30.5q-43 0 -76 30.5t-33 75.5zM1024 768q0 45 32 77t77 32q43 0 74.5 -32t31.5 -77t-30.5 -75.5 t-75.5 -30.5q-43 0 -76 30.5t-33 75.5zM1024 1536q0 45 32 77t77 32q43 0 74.5 -32t31.5 -77t-30.5 -75.5t-75.5 -30.5q-43 0 -76 30.5t-33 75.5z" />
<glyph unicode="6" d="M0 256q0 45 31.5 77t77.5 32q43 0 74.5 -32t31.5 -77t-30.5 -75.5t-75.5 -30.5q-43 0 -76 30.5t-33 75.5zM0 512q0 45 31.5 77t77.5 32q43 0 74.5 -32t31.5 -77t-30.5 -75.5t-75.5 -30.5q-43 0 -76 30.5t-33 75.5zM0 768q0 45 31.5 77t77.5 32q43 0 74.5 -32t31.5 -77 t-30.5 -75.5t-75.5 -30.5q-43 0 -76 30.5t-33 75.5zM2 1024q0 45 32 77t77 32t75.5 -31t30.5 -78q0 -45 -30.5 -75.5t-75.5 -30.5q-43 0 -76 30.5t-33 75.5zM129 1280q0 43 30.5 76t76.5 33q45 0 76.5 -32t31.5 -77t-30.5 -75.5t-77.5 -30.5q-45 0 -76 30.5t-31 75.5zM256 0 q0 45 31.5 77t77.5 32q43 0 74.5 -32t31.5 -77t-31.5 -77t-74.5 -32q-45 0 -77 32t-32 77zM256 768q0 45 31.5 77t77.5 32q43 0 74.5 -32t31.5 -77t-30.5 -75.5t-75.5 -30.5q-43 0 -76 30.5t-33 75.5zM256 1536q0 45 31.5 77t77.5 32q43 0 74.5 -32t31.5 -77t-30.5 -75.5 t-75.5 -30.5q-43 0 -76 30.5t-33 75.5zM512 0q0 45 31.5 77t77.5 32q43 0 74.5 -32t31.5 -77t-31.5 -77t-74.5 -32q-45 0 -77 32t-32 77zM512 768q0 45 31.5 77t77.5 32q43 0 74.5 -32t31.5 -77t-30.5 -75.5t-75.5 -30.5q-43 0 -76 30.5t-33 75.5zM512 1536q0 45 31.5 77 t77.5 32q43 0 74.5 -32t31.5 -77t-30.5 -75.5t-75.5 -30.5q-43 0 -76 30.5t-33 75.5zM768 0q0 45 31.5 77t77.5 32q43 0 74.5 -32t31.5 -77t-31.5 -77t-74.5 -32q-45 0 -77 32t-32 77zM768 768q0 45 31.5 77t77.5 32q43 0 74.5 -32t31.5 -77t-30.5 -75.5t-75.5 -30.5 q-43 0 -76 30.5t-33 75.5zM768 1536q0 45 31.5 77t77.5 32q43 0 74.5 -32t31.5 -77t-30.5 -75.5t-75.5 -30.5q-43 0 -76 30.5t-33 75.5zM1024 256q0 45 31.5 77t77.5 32q43 0 74.5 -32t31.5 -77t-30.5 -75.5t-75.5 -30.5q-43 0 -76 30.5t-33 75.5zM1024 512q0 45 31.5 77 t77.5 32q43 0 74.5 -32t31.5 -77t-30.5 -75.5t-75.5 -30.5q-43 0 -76 30.5t-33 75.5z" />
<glyph unicode="7" d="M-6 1536q0 45 31.5 77t76.5 32t77 -32t32 -77t-30.5 -75.5t-78.5 -30.5q-43 0 -75.5 30.5t-32.5 75.5zM252 0q0 43 30.5 76t75.5 33t77 -32t32 -77t-32 -77t-77 -32t-75.5 31t-30.5 78zM256 1536q0 45 32 77t77 32q43 0 74.5 -32t31.5 -77t-30.5 -75.5t-75.5 -30.5 q-43 0 -76 30.5t-33 75.5zM379 256q0 45 31.5 77t76.5 32q43 0 75 -32t32 -77t-31 -75.5t-76 -30.5q-43 0 -75.5 30.5t-32.5 75.5zM508 512q0 43 30.5 76t75.5 33t77 -32t32 -77t-30.5 -75.5t-78.5 -30.5q-45 0 -75.5 30.5t-30.5 75.5zM512 1536q0 45 32 77t77 32 q43 0 74.5 -32t31.5 -77t-30.5 -75.5t-75.5 -30.5q-43 0 -76 30.5t-33 75.5zM635 768q0 45 31.5 77t76.5 32q43 0 75 -32t32 -77t-31 -75.5t-76 -30.5q-43 0 -75.5 30.5t-32.5 75.5zM764 1024q0 43 30.5 76t75.5 33t77 -32t32 -77t-30.5 -75.5t-78.5 -30.5q-45 0 -75.5 30.5 t-30.5 75.5zM768 1536q0 45 32 77t77 32q43 0 74.5 -32t31.5 -77t-30.5 -75.5t-75.5 -30.5q-43 0 -76 30.5t-33 75.5zM891 1280q0 45 31.5 77t76.5 32q43 0 75 -32t32 -77t-31 -75.5t-76 -30.5q-43 0 -75.5 30.5t-32.5 75.5zM1020 1536q0 43 30.5 76t75.5 33t77 -32t32 -77 t-30.5 -75.5t-78.5 -30.5q-45 0 -75.5 30.5t-30.5 75.5z" />
<glyph unicode="8" d="M-2 512q0 45 31.5 77t74.5 32q45 0 77 -32t32 -77t-30.5 -75.5t-78.5 -30.5q-43 0 -74.5 31.5t-31.5 74.5zM0 256q0 45 32 77t77 32q43 0 74.5 -32t31.5 -77t-30.5 -75.5t-75.5 -30.5q-43 0 -76 30.5t-33 75.5zM0 1024q0 45 32 77t77 32q43 0 74.5 -32t31.5 -77 t-30.5 -75.5t-75.5 -30.5q-43 0 -76 30.5t-33 75.5zM0 1280q0 45 32 77t77 32q43 0 74.5 -32t31.5 -77t-30.5 -75.5t-75.5 -30.5q-43 0 -76 30.5t-33 75.5zM256 0q0 45 32 77t77 32q43 0 74.5 -32t31.5 -77t-31.5 -77t-74.5 -32q-45 0 -77 32t-32 77zM256 768q0 45 32 77 t77 32q43 0 74.5 -32t31.5 -77t-30.5 -75.5t-75.5 -30.5q-43 0 -76 30.5t-33 75.5zM256 1536q0 45 32 77t77 32q43 0 74.5 -32t31.5 -77t-30.5 -75.5t-75.5 -30.5q-43 0 -76 30.5t-33 75.5zM512 0q0 45 32 77t77 32q43 0 74.5 -32t31.5 -77t-31.5 -77t-74.5 -32 q-45 0 -77 32t-32 77zM512 768q0 45 32 77t77 32q43 0 74.5 -32t31.5 -77t-30.5 -75.5t-75.5 -30.5q-43 0 -76 30.5t-33 75.5zM512 1536q0 45 32 77t77 32q43 0 74.5 -32t31.5 -77t-30.5 -75.5t-75.5 -30.5q-43 0 -76 30.5t-33 75.5zM768 0q0 45 32 77t77 32q43 0 74.5 -32 t31.5 -77t-31.5 -77t-74.5 -32q-45 0 -77 32t-32 77zM768 768q0 45 32 77t77 32q43 0 74.5 -32t31.5 -77t-30.5 -75.5t-75.5 -30.5q-43 0 -76 30.5t-33 75.5zM768 1536q0 45 32 77t77 32q43 0 74.5 -32t31.5 -77t-30.5 -75.5t-75.5 -30.5q-43 0 -76 30.5t-33 75.5zM1022 512 q0 45 31.5 77t74.5 32q45 0 77 -32t32 -77t-30.5 -75.5t-78.5 -30.5q-43 0 -74.5 31.5t-31.5 74.5zM1024 256q0 45 32 77t77 32q43 0 74.5 -32t31.5 -77t-30.5 -75.5t-75.5 -30.5q-43 0 -76 30.5t-33 75.5zM1024 1024q0 45 32 77t77 32q43 0 74.5 -32t31.5 -77t-30.5 -75.5 t-75.5 -30.5q-43 0 -76 30.5t-33 75.5zM1024 1280q0 45 32 77t77 32q43 0 74.5 -32t31.5 -77t-30.5 -75.5t-75.5 -30.5q-43 0 -76 30.5t-33 75.5z" />
<glyph unicode="9" d="M0 1024q0 45 32 77t77 32q43 0 74.5 -32t31.5 -77t-30.5 -75.5t-75.5 -30.5q-43 0 -76 30.5t-33 75.5zM0 1280q0 45 32 77t77 32q43 0 74.5 -32t31.5 -77t-30.5 -75.5t-75.5 -30.5q-43 0 -76 30.5t-33 75.5zM256 0q0 45 32 77t77 32q43 0 74.5 -32t31.5 -77t-31.5 -77 t-74.5 -32q-45 0 -77 32t-32 77zM256 768q0 45 32 77t77 32q43 0 74.5 -32t31.5 -77t-30.5 -75.5t-75.5 -30.5q-43 0 -76 30.5t-33 75.5zM256 1536q0 45 32 77t77 32q43 0 74.5 -32t31.5 -77t-30.5 -75.5t-75.5 -30.5q-43 0 -76 30.5t-33 75.5zM512 0q0 45 32 77t77 32 q43 0 74.5 -32t31.5 -77t-31.5 -77t-74.5 -32q-45 0 -77 32t-32 77zM512 768q0 45 32 77t77 32q43 0 74.5 -32t31.5 -77t-30.5 -75.5t-75.5 -30.5q-43 0 -76 30.5t-33 75.5zM512 1536q0 45 32 77t77 32q43 0 74.5 -32t31.5 -77t-30.5 -75.5t-75.5 -30.5q-43 0 -76 30.5 t-33 75.5zM768 0q0 45 32 77t77 32q43 0 74.5 -32t31.5 -77t-31.5 -77t-74.5 -32q-45 0 -77 32t-32 77zM768 768q0 45 32 77t77 32q43 0 74.5 -32t31.5 -77t-30.5 -75.5t-75.5 -30.5q-43 0 -76 30.5t-33 75.5zM768 1536q0 45 32 77t77 32q43 0 74.5 -32t31.5 -77 t-30.5 -75.5t-75.5 -30.5q-43 0 -76 30.5t-33 75.5zM897 256q0 43 31 76t76 33t76.5 -32t31.5 -77t-30.5 -75.5t-77.5 -30.5q-45 0 -76 30.5t-31 75.5zM1022 512q0 45 31.5 77t74.5 32q45 0 77 -32t32 -77t-30.5 -75.5t-78.5 -30.5q-43 0 -74.5 31.5t-31.5 74.5zM1024 768 q0 45 32 77t77 32q43 0 74.5 -32t31.5 -77t-30.5 -75.5t-75.5 -30.5q-43 0 -76 30.5t-33 75.5zM1024 1024q0 45 32 77t77 32q43 0 74.5 -32t31.5 -77t-30.5 -75.5t-75.5 -30.5q-43 0 -76 30.5t-33 75.5zM1024 1280q0 45 32 77t77 32q43 0 74.5 -32t31.5 -77t-30.5 -75.5 t-75.5 -30.5q-43 0 -76 30.5t-33 75.5z" />
<glyph unicode=":" d="M0 0q0 45 32 77t77 32q43 0 74.5 -32t31.5 -77t-31.5 -77t-74.5 -32q-45 0 -77 32t-32 77zM0 256q0 45 32 77t77 32q43 0 74.5 -32t31.5 -77t-30.5 -75.5t-75.5 -30.5q-43 0 -76 30.5t-33 75.5zM0 768q0 45 32 77t77 32q43 0 74.5 -32t31.5 -77t-30.5 -75.5t-75.5 -30.5 q-43 0 -76 30.5t-33 75.5zM0 1024q0 45 32 77t77 32q43 0 74.5 -32t31.5 -77t-30.5 -75.5t-75.5 -30.5q-43 0 -76 30.5t-33 75.5zM256 0q0 45 32 77t77 32q43 0 74.5 -32t31.5 -77t-31.5 -77t-74.5 -32q-45 0 -77 32t-32 77zM256 256q0 45 32 77t77 32q43 0 74.5 -32 t31.5 -77t-30.5 -75.5t-75.5 -30.5q-43 0 -76 30.5t-33 75.5zM256 768q0 45 32 77t77 32q43 0 74.5 -32t31.5 -77t-30.5 -75.5t-75.5 -30.5q-43 0 -76 30.5t-33 75.5zM256 1024q0 45 32 77t77 32q43 0 74.5 -32t31.5 -77t-30.5 -75.5t-75.5 -30.5q-43 0 -76 30.5t-33 75.5z " />
<glyph unicode=";" d="M0 0q0 45 32 77t77 32q43 0 74.5 -32t31.5 -77t-31.5 -77t-74.5 -32q-45 0 -77 32t-32 77zM0 256q0 45 32 77t77 32q43 0 74.5 -32t31.5 -77t-30.5 -75.5t-75.5 -30.5q-43 0 -76 30.5t-33 75.5zM0 -512q0 45 31 75.5t78 30.5q43 0 74.5 -31.5t31.5 -74.5q0 -45 -31.5 -77 t-74.5 -32q-45 0 -77 32t-32 77zM0 768q0 45 32 77t77 32q43 0 74.5 -32t31.5 -77t-30.5 -75.5t-75.5 -30.5q-43 0 -76 30.5t-33 75.5zM0 1024q0 45 32 77t77 32q43 0 74.5 -32t31.5 -77t-30.5 -75.5t-75.5 -30.5q-43 0 -76 30.5t-33 75.5zM129 -256q0 45 31 75.5t76 30.5 q43 0 75.5 -30.5t32.5 -75.5t-31.5 -77t-76.5 -32t-76 31t-31 78zM256 0q0 45 32 77t77 32q43 0 74.5 -32t31.5 -77t-31.5 -77t-74.5 -32q-45 0 -77 32t-32 77zM256 256q0 45 32 77t77 32q43 0 74.5 -32t31.5 -77t-30.5 -75.5t-75.5 -30.5q-43 0 -76 30.5t-33 75.5zM256 768 q0 45 32 77t77 32q43 0 74.5 -32t31.5 -77t-30.5 -75.5t-75.5 -30.5q-43 0 -76 30.5t-33 75.5zM256 1024q0 45 32 77t77 32q43 0 74.5 -32t31.5 -77t-30.5 -75.5t-75.5 -30.5q-43 0 -76 30.5t-33 75.5z" />
<glyph unicode="&#x3c;" d="M0 768q0 45 32 77t77 32q43 0 74.5 -32t31.5 -77t-30.5 -75.5t-75.5 -30.5q-43 0 -76 30.5t-33 75.5zM256 512q0 45 32 77t77 32q43 0 74.5 -32t31.5 -77t-30.5 -75.5t-75.5 -30.5q-43 0 -76 30.5t-33 75.5zM256 1024q0 45 32 77t77 32q43 0 74.5 -32t31.5 -77 t-30.5 -75.5t-75.5 -30.5q-43 0 -76 30.5t-33 75.5zM512 256q0 45 32 77t77 32q43 0 74.5 -32t31.5 -77t-30.5 -75.5t-75.5 -30.5q-43 0 -76 30.5t-33 75.5zM512 1280q0 45 32 77t77 32q43 0 74.5 -32t31.5 -77t-30.5 -75.5t-75.5 -30.5q-43 0 -76 30.5t-33 75.5zM768 0 q0 45 32 77t77 32q43 0 74.5 -32t31.5 -77t-31.5 -77t-74.5 -32q-45 0 -77 32t-32 77zM768 1536q0 45 32 77t77 32q43 0 74.5 -32t31.5 -77t-30.5 -75.5t-75.5 -30.5q-43 0 -76 30.5t-33 75.5z" />
<glyph unicode="=" d="M-2 512q0 45 31.5 77t74.5 32q45 0 77 -32t32 -77t-30.5 -75.5t-78.5 -30.5q-43 0 -74.5 31.5t-31.5 74.5zM-2 1024q0 45 31.5 77t74.5 32q45 0 77 -32t32 -77t-30.5 -75.5t-78.5 -30.5q-43 0 -74.5 31.5t-31.5 74.5zM256 512q0 45 32 77t77 32q43 0 74.5 -32t31.5 -77 t-30.5 -75.5t-75.5 -30.5q-43 0 -76 30.5t-33 75.5zM256 1024q0 45 32 77t77 32q43 0 74.5 -32t31.5 -77t-30.5 -75.5t-75.5 -30.5q-43 0 -76 30.5t-33 75.5zM512 512q0 45 32 77t77 32q43 0 74.5 -32t31.5 -77t-30.5 -75.5t-75.5 -30.5q-43 0 -76 30.5t-33 75.5zM512 1024 q0 45 32 77t77 32q43 0 74.5 -32t31.5 -77t-30.5 -75.5t-75.5 -30.5q-43 0 -76 30.5t-33 75.5zM768 512q0 45 32 77t77 32q43 0 74.5 -32t31.5 -77t-30.5 -75.5t-75.5 -30.5q-43 0 -76 30.5t-33 75.5zM768 1024q0 45 32 77t77 32q43 0 74.5 -32t31.5 -77t-30.5 -75.5 t-75.5 -30.5q-43 0 -76 30.5t-33 75.5zM1022 512q0 45 31.5 77t74.5 32q45 0 77 -32t32 -77t-30.5 -75.5t-78.5 -30.5q-43 0 -74.5 31.5t-31.5 74.5zM1022 1024q0 45 31.5 77t74.5 32q45 0 77 -32t32 -77t-30.5 -75.5t-78.5 -30.5q-43 0 -74.5 31.5t-31.5 74.5z" />
<glyph unicode="&#x3e;" d="M0 0q0 45 32 77t77 32q43 0 74.5 -32t31.5 -77t-31.5 -77t-74.5 -32q-45 0 -77 32t-32 77zM0 1536q0 45 32 77t77 32q43 0 74.5 -32t31.5 -77t-30.5 -75.5t-75.5 -30.5q-43 0 -76 30.5t-33 75.5zM256 256q0 45 32 77t77 32q43 0 74.5 -32t31.5 -77t-30.5 -75.5 t-75.5 -30.5q-43 0 -76 30.5t-33 75.5zM256 1280q0 45 32 77t77 32q43 0 74.5 -32t31.5 -77t-30.5 -75.5t-75.5 -30.5q-43 0 -76 30.5t-33 75.5zM512 512q0 45 32 77t77 32q43 0 74.5 -32t31.5 -77t-30.5 -75.5t-75.5 -30.5q-43 0 -76 30.5t-33 75.5zM512 1024q0 45 32 77 t77 32q43 0 74.5 -32t31.5 -77t-30.5 -75.5t-75.5 -30.5q-43 0 -76 30.5t-33 75.5zM768 768q0 45 32 77t77 32q43 0 74.5 -32t31.5 -77t-30.5 -75.5t-75.5 -30.5q-43 0 -76 30.5t-33 75.5z" />
<glyph unicode="?" d="M0 1280q0 45 32 77t77 32q43 0 74.5 -32t31.5 -77t-30.5 -75.5t-75.5 -30.5q-43 0 -76 30.5t-33 75.5zM256 1536q0 45 32 77t77 32q43 0 74.5 -32t31.5 -77t-30.5 -75.5t-75.5 -30.5q-43 0 -76 30.5t-33 75.5zM510 512q0 45 31.5 77t74.5 32q45 0 77 -32t32 -77 t-30.5 -75.5t-78.5 -30.5q-43 0 -74.5 31.5t-31.5 74.5zM512 0q0 45 32 77t77 32q43 0 74.5 -32t31.5 -77t-31.5 -77t-74.5 -32q-45 0 -77 32t-32 77zM512 768q0 45 32 77t77 32q43 0 74.5 -32t31.5 -77t-30.5 -75.5t-75.5 -30.5q-43 0 -76 30.5t-33 75.5zM512 1536 q0 45 32 77t77 32q43 0 74.5 -32t31.5 -77t-30.5 -75.5t-75.5 -30.5q-43 0 -76 30.5t-33 75.5zM768 768q0 45 32 77t77 32q43 0 74.5 -32t31.5 -77t-30.5 -75.5t-75.5 -30.5q-43 0 -76 30.5t-33 75.5zM768 1536q0 45 32 77t77 32q43 0 74.5 -32t31.5 -77t-30.5 -75.5 t-75.5 -30.5q-43 0 -76 30.5t-33 75.5zM1024 1024q0 45 32 77t77 32q43 0 74.5 -32t31.5 -77t-30.5 -75.5t-75.5 -30.5q-43 0 -76 30.5t-33 75.5zM1024 1280q0 45 32 77t77 32q43 0 74.5 -32t31.5 -77t-30.5 -75.5t-75.5 -30.5q-43 0 -76 30.5t-33 75.5z" />
<glyph unicode="@" d="M-131 512q0 45 31.5 77t76.5 32t76 -31t31 -78q0 -45 -30.5 -75.5t-76.5 -30.5q-43 0 -75.5 30.5t-32.5 75.5zM-129 256q0 45 32 77t77 32t76.5 -32t31.5 -77t-30.5 -75.5t-77.5 -30.5q-43 0 -76 30.5t-33 75.5zM-129 768q0 45 32 77t77 32t76.5 -32t31.5 -77 t-30.5 -75.5t-77.5 -30.5q-43 0 -76 30.5t-33 75.5zM-129 1024q0 45 32 77t77 32t76.5 -32t31.5 -77t-30.5 -75.5t-77.5 -30.5q-43 0 -76 30.5t-33 75.5zM0 1280q0 45 32 77t77 32q43 0 74.5 -32t31.5 -77t-30.5 -75.5t-75.5 -30.5q-43 0 -76 30.5t-33 75.5zM129 0 q0 43 31 76t76 33t76.5 -32t31.5 -77t-31.5 -77t-76.5 -32t-76 31t-31 78zM129 641q0 43 32 75t75 32q45 0 76.5 -32t31.5 -75q0 -45 -31.5 -77t-76.5 -32t-76 31t-31 78zM256 385q0 43 32 75t77 32q43 0 74.5 -32t31.5 -75q0 -45 -31.5 -77t-74.5 -32q-45 0 -77 32t-32 77z M256 897q0 43 32 75t77 32q43 0 74.5 -32t31.5 -75q0 -45 -31.5 -77t-74.5 -32q-45 0 -77 32t-32 77zM256 1280q0 45 32 77t77 32q43 0 74.5 -32t31.5 -77t-30.5 -75.5t-75.5 -30.5q-43 0 -76 30.5t-33 75.5zM385 0q0 43 31 76t76 33t76.5 -32t31.5 -77t-31.5 -77t-76.5 -32 t-76 31t-31 78zM510 385q0 43 31.5 75t74.5 32q45 0 77 -32t32 -75q0 -45 -31.5 -77t-77.5 -32q-43 0 -74.5 32t-31.5 77zM512 641q0 43 32 75t77 32q43 0 74.5 -32t31.5 -75q0 -45 -31.5 -77t-74.5 -32q-45 0 -77 32t-32 77zM512 897q0 43 32 75t77 32q43 0 74.5 -32 t31.5 -75q0 -45 -31.5 -77t-74.5 -32q-45 0 -77 32t-32 77zM512 1280q0 45 32 77t77 32q43 0 74.5 -32t31.5 -77t-30.5 -75.5t-75.5 -30.5q-43 0 -76 30.5t-33 75.5zM641 0q0 43 31 76t76 33t76.5 -32t31.5 -77t-31.5 -77t-76.5 -32t-76 31t-31 78zM766 385q0 43 31.5 75 t74.5 32q45 0 77 -32t32 -75q0 -45 -31.5 -77t-77.5 -32q-43 0 -74.5 32t-31.5 77zM768 1280q0 45 32 77t77 32q43 0 74.5 -32t31.5 -77t-30.5 -75.5t-75.5 -30.5q-43 0 -76 30.5t-33 75.5zM897 768q0 43 31 76t76 33t76.5 -32t31.5 -77t-30.5 -75.5t-77.5 -30.5 q-45 0 -76 30.5t-31 75.5zM897 1024q0 43 31 76t76 33t76.5 -32t31.5 -77t-30.5 -75.5t-77.5 -30.5q-45 0 -76 30.5t-31 75.5z" />
<glyph unicode="A" d="M-2 512q0 45 31.5 77t74.5 32q45 0 77 -32t32 -77t-30.5 -75.5t-78.5 -30.5q-43 0 -74.5 31.5t-31.5 74.5zM0 0q0 45 32 77t77 32q43 0 74.5 -32t31.5 -77t-31.5 -77t-74.5 -32q-45 0 -77 32t-32 77zM0 256q0 45 32 77t77 32q43 0 74.5 -32t31.5 -77t-30.5 -75.5 t-75.5 -30.5q-43 0 -76 30.5t-33 75.5zM129 768q0 43 31 76t76 33t76.5 -32t31.5 -77t-30.5 -75.5t-77.5 -30.5q-45 0 -76 30.5t-31 75.5zM256 512q0 45 32 77t77 32q43 0 74.5 -32t31.5 -77t-30.5 -75.5t-75.5 -30.5q-43 0 -76 30.5t-33 75.5zM256 1024q0 45 32 77t77 32 q43 0 74.5 -32t31.5 -77t-30.5 -75.5t-75.5 -30.5q-43 0 -76 30.5t-33 75.5zM385 1280q0 43 31 76t76 33t76.5 -32t31.5 -77t-30.5 -75.5t-77.5 -30.5q-45 0 -76 30.5t-31 75.5zM512 512q0 45 32 77t77 32q43 0 74.5 -32t31.5 -77t-30.5 -75.5t-75.5 -30.5q-43 0 -76 30.5 t-33 75.5zM512 1536q0 45 32 77t77 32q43 0 74.5 -32t31.5 -77t-30.5 -75.5t-75.5 -30.5q-43 0 -76 30.5t-33 75.5zM641 1280q0 43 31 76t76 33t76.5 -32t31.5 -77t-30.5 -75.5t-77.5 -30.5q-45 0 -76 30.5t-31 75.5zM768 512q0 45 32 77t77 32q43 0 74.5 -32t31.5 -77 t-30.5 -75.5t-75.5 -30.5q-43 0 -76 30.5t-33 75.5zM768 1024q0 45 32 77t77 32q43 0 74.5 -32t31.5 -77t-30.5 -75.5t-75.5 -30.5q-43 0 -76 30.5t-33 75.5zM897 768q0 43 31 76t76 33t76.5 -32t31.5 -77t-30.5 -75.5t-77.5 -30.5q-45 0 -76 30.5t-31 75.5zM1022 512 q0 45 31.5 77t74.5 32q45 0 77 -32t32 -77t-30.5 -75.5t-78.5 -30.5q-43 0 -74.5 31.5t-31.5 74.5zM1024 0q0 45 32 77t77 32q43 0 74.5 -32t31.5 -77t-31.5 -77t-74.5 -32q-45 0 -77 32t-32 77zM1024 256q0 45 32 77t77 32q43 0 74.5 -32t31.5 -77t-30.5 -75.5t-75.5 -30.5 q-43 0 -76 30.5t-33 75.5z" />
<glyph unicode="B" d="M0 0q0 45 32 77t77 32q43 0 74.5 -32t31.5 -77t-31.5 -77t-74.5 -32q-45 0 -77 32t-32 77zM0 1536q0 45 32 77t77 32q43 0 74.5 -32t31.5 -77t-30.5 -75.5t-75.5 -30.5q-43 0 -76 30.5t-33 75.5zM125 512q0 45 31.5 77t76.5 32t76 -31t31 -78q0 -45 -30.5 -75.5 t-76.5 -30.5q-43 0 -75.5 30.5t-32.5 75.5zM129 256q0 43 31 76t76 33t76.5 -32t31.5 -77t-30.5 -75.5t-77.5 -30.5q-45 0 -76 30.5t-31 75.5zM129 768q0 43 31 76t76 33t76.5 -32t31.5 -77t-30.5 -75.5t-77.5 -30.5q-45 0 -76 30.5t-31 75.5zM129 1024q0 43 31 76t76 33 t76.5 -32t31.5 -77t-30.5 -75.5t-77.5 -30.5q-45 0 -76 30.5t-31 75.5zM129 1280q0 43 31 76t76 33t76.5 -32t31.5 -77t-30.5 -75.5t-77.5 -30.5q-45 0 -76 30.5t-31 75.5zM256 0q0 45 32 77t77 32q43 0 74.5 -32t31.5 -77t-31.5 -77t-74.5 -32q-45 0 -77 32t-32 77z M256 1536q0 45 32 77t77 32q43 0 74.5 -32t31.5 -77t-30.5 -75.5t-75.5 -30.5q-43 0 -76 30.5t-33 75.5zM512 0q0 45 32 77t77 32q43 0 74.5 -32t31.5 -77t-31.5 -77t-74.5 -32q-45 0 -77 32t-32 77zM512 768q0 45 32 77t77 32q43 0 74.5 -32t31.5 -77t-30.5 -75.5 t-75.5 -30.5q-43 0 -76 30.5t-33 75.5zM512 1536q0 45 32 77t77 32q43 0 74.5 -32t31.5 -77t-30.5 -75.5t-75.5 -30.5q-43 0 -76 30.5t-33 75.5zM768 0q0 45 32 77t77 32q43 0 74.5 -32t31.5 -77t-31.5 -77t-74.5 -32q-45 0 -77 32t-32 77zM768 768q0 45 32 77t77 32 q43 0 74.5 -32t31.5 -77t-30.5 -75.5t-75.5 -30.5q-43 0 -76 30.5t-33 75.5zM768 1536q0 45 32 77t77 32q43 0 74.5 -32t31.5 -77t-30.5 -75.5t-75.5 -30.5q-43 0 -76 30.5t-33 75.5zM1022 512q0 45 31.5 77t74.5 32q45 0 77 -32t32 -77t-30.5 -75.5t-78.5 -30.5 q-43 0 -74.5 31.5t-31.5 74.5zM1024 256q0 45 32 77t77 32q43 0 74.5 -32t31.5 -77t-30.5 -75.5t-75.5 -30.5q-43 0 -76 30.5t-33 75.5zM1024 1024q0 45 32 77t77 32q43 0 74.5 -32t31.5 -77t-30.5 -75.5t-75.5 -30.5q-43 0 -76 30.5t-33 75.5zM1024 1280q0 45 32 77t77 32 q43 0 74.5 -32t31.5 -77t-30.5 -75.5t-75.5 -30.5q-43 0 -76 30.5t-33 75.5z" />
<glyph unicode="C" d="M-2 512q0 45 31.5 77t74.5 32q45 0 77 -32t32 -77t-30.5 -75.5t-78.5 -30.5q-43 0 -74.5 31.5t-31.5 74.5zM0 256q0 45 32 77t77 32q43 0 74.5 -32t31.5 -77t-30.5 -75.5t-75.5 -30.5q-43 0 -76 30.5t-33 75.5zM0 768q0 45 32 77t77 32q43 0 74.5 -32t31.5 -77 t-30.5 -75.5t-75.5 -30.5q-43 0 -76 30.5t-33 75.5zM0 1024q0 45 32 77t77 32q43 0 74.5 -32t31.5 -77t-30.5 -75.5t-75.5 -30.5q-43 0 -76 30.5t-33 75.5zM0 1280q0 45 32 77t77 32q43 0 74.5 -32t31.5 -77t-30.5 -75.5t-75.5 -30.5q-43 0 -76 30.5t-33 75.5zM256 0 q0 45 32 77t77 32q43 0 74.5 -32t31.5 -77t-31.5 -77t-74.5 -32q-45 0 -77 32t-32 77zM256 1536q0 45 32 77t77 32q43 0 74.5 -32t31.5 -77t-30.5 -75.5t-75.5 -30.5q-43 0 -76 30.5t-33 75.5zM512 0q0 45 32 77t77 32q43 0 74.5 -32t31.5 -77t-31.5 -77t-74.5 -32 q-45 0 -77 32t-32 77zM512 1536q0 45 32 77t77 32q43 0 74.5 -32t31.5 -77t-30.5 -75.5t-75.5 -30.5q-43 0 -76 30.5t-33 75.5zM768 0q0 45 32 77t77 32q43 0 74.5 -32t31.5 -77t-31.5 -77t-74.5 -32q-45 0 -77 32t-32 77zM768 1536q0 45 32 77t77 32q43 0 74.5 -32 t31.5 -77t-30.5 -75.5t-75.5 -30.5q-43 0 -76 30.5t-33 75.5zM1024 256q0 45 32 77t77 32q43 0 74.5 -32t31.5 -77t-30.5 -75.5t-75.5 -30.5q-43 0 -76 30.5t-33 75.5zM1024 1280q0 45 32 77t77 32q43 0 74.5 -32t31.5 -77t-30.5 -75.5t-75.5 -30.5q-43 0 -76 30.5t-33 75.5 z" />
<glyph unicode="D" d="M0 0q0 45 32 77t77 32q43 0 74.5 -32t31.5 -77t-31.5 -77t-74.5 -32q-45 0 -77 32t-32 77zM0 1536q0 45 32 77t77 32q43 0 74.5 -32t31.5 -77t-30.5 -75.5t-75.5 -30.5q-43 0 -76 30.5t-33 75.5zM125 512q0 45 31.5 77t76.5 32t76 -31t31 -78q0 -45 -30.5 -75.5 t-76.5 -30.5q-43 0 -75.5 30.5t-32.5 75.5zM129 256q0 43 31 76t76 33t76.5 -32t31.5 -77t-30.5 -75.5t-77.5 -30.5q-45 0 -76 30.5t-31 75.5zM129 768q0 43 31 76t76 33t76.5 -32t31.5 -77t-30.5 -75.5t-77.5 -30.5q-45 0 -76 30.5t-31 75.5zM129 1024q0 43 31 76t76 33 t76.5 -32t31.5 -77t-30.5 -75.5t-77.5 -30.5q-45 0 -76 30.5t-31 75.5zM129 1280q0 43 31 76t76 33t76.5 -32t31.5 -77t-30.5 -75.5t-77.5 -30.5q-45 0 -76 30.5t-31 75.5zM256 0q0 45 32 77t77 32q43 0 74.5 -32t31.5 -77t-31.5 -77t-74.5 -32q-45 0 -77 32t-32 77z M256 1536q0 45 32 77t77 32q43 0 74.5 -32t31.5 -77t-30.5 -75.5t-75.5 -30.5q-43 0 -76 30.5t-33 75.5zM512 0q0 45 32 77t77 32q43 0 74.5 -32t31.5 -77t-31.5 -77t-74.5 -32q-45 0 -77 32t-32 77zM512 1536q0 45 32 77t77 32q43 0 74.5 -32t31.5 -77t-30.5 -75.5 t-75.5 -30.5q-43 0 -76 30.5t-33 75.5zM768 0q0 45 32 77t77 32q43 0 74.5 -32t31.5 -77t-31.5 -77t-74.5 -32q-45 0 -77 32t-32 77zM768 1536q0 45 32 77t77 32q43 0 74.5 -32t31.5 -77t-30.5 -75.5t-75.5 -30.5q-43 0 -76 30.5t-33 75.5zM1022 512q0 45 31.5 77t74.5 32 q45 0 77 -32t32 -77t-30.5 -75.5t-78.5 -30.5q-43 0 -74.5 31.5t-31.5 74.5zM1024 256q0 45 32 77t77 32q43 0 74.5 -32t31.5 -77t-30.5 -75.5t-75.5 -30.5q-43 0 -76 30.5t-33 75.5zM1024 768q0 45 32 77t77 32q43 0 74.5 -32t31.5 -77t-30.5 -75.5t-75.5 -30.5 q-43 0 -76 30.5t-33 75.5zM1024 1024q0 45 32 77t77 32q43 0 74.5 -32t31.5 -77t-30.5 -75.5t-75.5 -30.5q-43 0 -76 30.5t-33 75.5zM1024 1280q0 45 32 77t77 32q43 0 74.5 -32t31.5 -77t-30.5 -75.5t-75.5 -30.5q-43 0 -76 30.5t-33 75.5z" />
<glyph unicode="E" d="M-2 512q0 45 31.5 77t74.5 32q45 0 77 -32t32 -77t-30.5 -75.5t-78.5 -30.5q-43 0 -74.5 31.5t-31.5 74.5zM0 0q0 45 32 77t77 32q43 0 74.5 -32t31.5 -77t-31.5 -77t-74.5 -32q-45 0 -77 32t-32 77zM0 256q0 45 32 77t77 32q43 0 74.5 -32t31.5 -77t-30.5 -75.5 t-75.5 -30.5q-43 0 -76 30.5t-33 75.5zM0 768q0 45 32 77t77 32q43 0 74.5 -32t31.5 -77t-30.5 -75.5t-75.5 -30.5q-43 0 -76 30.5t-33 75.5zM0 1024q0 45 32 77t77 32q43 0 74.5 -32t31.5 -77t-30.5 -75.5t-75.5 -30.5q-43 0 -76 30.5t-33 75.5zM0 1280q0 45 32 77t77 32 q43 0 74.5 -32t31.5 -77t-30.5 -75.5t-75.5 -30.5q-43 0 -76 30.5t-33 75.5zM0 1536q0 45 32 77t77 32q43 0 74.5 -32t31.5 -77t-30.5 -75.5t-75.5 -30.5q-43 0 -76 30.5t-33 75.5zM256 0q0 45 32 77t77 32q43 0 74.5 -32t31.5 -77t-31.5 -77t-74.5 -32q-45 0 -77 32t-32 77 zM256 768q0 45 32 77t77 32q43 0 74.5 -32t31.5 -77t-30.5 -75.5t-75.5 -30.5q-43 0 -76 30.5t-33 75.5zM256 1536q0 45 32 77t77 32q43 0 74.5 -32t31.5 -77t-30.5 -75.5t-75.5 -30.5q-43 0 -76 30.5t-33 75.5zM512 0q0 45 32 77t77 32q43 0 74.5 -32t31.5 -77t-31.5 -77 t-74.5 -32q-45 0 -77 32t-32 77zM512 768q0 45 32 77t77 32q43 0 74.5 -32t31.5 -77t-30.5 -75.5t-75.5 -30.5q-43 0 -76 30.5t-33 75.5zM512 1536q0 45 32 77t77 32q43 0 74.5 -32t31.5 -77t-30.5 -75.5t-75.5 -30.5q-43 0 -76 30.5t-33 75.5zM768 0q0 45 32 77t77 32 q43 0 74.5 -32t31.5 -77t-31.5 -77t-74.5 -32q-45 0 -77 32t-32 77zM768 768q0 45 32 77t77 32q43 0 74.5 -32t31.5 -77t-30.5 -75.5t-75.5 -30.5q-43 0 -76 30.5t-33 75.5zM768 1536q0 45 32 77t77 32q43 0 74.5 -32t31.5 -77t-30.5 -75.5t-75.5 -30.5q-43 0 -76 30.5 t-33 75.5zM1024 0q0 45 32 77t77 32q43 0 74.5 -32t31.5 -77t-31.5 -77t-74.5 -32q-45 0 -77 32t-32 77zM1024 1536q0 45 32 77t77 32q43 0 74.5 -32t31.5 -77t-30.5 -75.5t-75.5 -30.5q-43 0 -76 30.5t-33 75.5z" />
<glyph unicode="F" d="M-2 512q0 45 31.5 77t74.5 32q45 0 77 -32t32 -77t-30.5 -75.5t-78.5 -30.5q-43 0 -74.5 31.5t-31.5 74.5zM0 0q0 45 32 77t77 32q43 0 74.5 -32t31.5 -77t-31.5 -77t-74.5 -32q-45 0 -77 32t-32 77zM0 256q0 45 32 77t77 32q43 0 74.5 -32t31.5 -77t-30.5 -75.5 t-75.5 -30.5q-43 0 -76 30.5t-33 75.5zM0 768q0 45 32 77t77 32q43 0 74.5 -32t31.5 -77t-30.5 -75.5t-75.5 -30.5q-43 0 -76 30.5t-33 75.5zM0 1024q0 45 32 77t77 32q43 0 74.5 -32t31.5 -77t-30.5 -75.5t-75.5 -30.5q-43 0 -76 30.5t-33 75.5zM0 1280q0 45 32 77t77 32 q43 0 74.5 -32t31.5 -77t-30.5 -75.5t-75.5 -30.5q-43 0 -76 30.5t-33 75.5zM0 1536q0 45 32 77t77 32q43 0 74.5 -32t31.5 -77t-30.5 -75.5t-75.5 -30.5q-43 0 -76 30.5t-33 75.5zM256 768q0 45 32 77t77 32q43 0 74.5 -32t31.5 -77t-30.5 -75.5t-75.5 -30.5 q-43 0 -76 30.5t-33 75.5zM256 1536q0 45 32 77t77 32q43 0 74.5 -32t31.5 -77t-30.5 -75.5t-75.5 -30.5q-43 0 -76 30.5t-33 75.5zM512 768q0 45 32 77t77 32q43 0 74.5 -32t31.5 -77t-30.5 -75.5t-75.5 -30.5q-43 0 -76 30.5t-33 75.5zM512 1536q0 45 32 77t77 32 q43 0 74.5 -32t31.5 -77t-30.5 -75.5t-75.5 -30.5q-43 0 -76 30.5t-33 75.5zM768 768q0 45 32 77t77 32q43 0 74.5 -32t31.5 -77t-30.5 -75.5t-75.5 -30.5q-43 0 -76 30.5t-33 75.5zM768 1536q0 45 32 77t77 32q43 0 74.5 -32t31.5 -77t-30.5 -75.5t-75.5 -30.5 q-43 0 -76 30.5t-33 75.5zM1024 1536q0 45 32 77t77 32q43 0 74.5 -32t31.5 -77t-30.5 -75.5t-75.5 -30.5q-43 0 -76 30.5t-33 75.5z" />
<glyph unicode="G" d="M-2 512q0 45 31.5 77t74.5 32q45 0 77 -32t32 -77t-30.5 -75.5t-78.5 -30.5q-43 0 -74.5 31.5t-31.5 74.5zM0 256q0 45 32 77t77 32q43 0 74.5 -32t31.5 -77t-30.5 -75.5t-75.5 -30.5q-43 0 -76 30.5t-33 75.5zM0 768q0 45 32 77t77 32q43 0 74.5 -32t31.5 -77 t-30.5 -75.5t-75.5 -30.5q-43 0 -76 30.5t-33 75.5zM0 1024q0 45 32 77t77 32q43 0 74.5 -32t31.5 -77t-30.5 -75.5t-75.5 -30.5q-43 0 -76 30.5t-33 75.5zM0 1280q0 45 32 77t77 32q43 0 74.5 -32t31.5 -77t-30.5 -75.5t-75.5 -30.5q-43 0 -76 30.5t-33 75.5zM256 0 q0 45 32 77t77 32q43 0 74.5 -32t31.5 -77t-31.5 -77t-74.5 -32q-45 0 -77 32t-32 77zM256 1536q0 45 32 77t77 32q43 0 74.5 -32t31.5 -77t-30.5 -75.5t-75.5 -30.5q-43 0 -76 30.5t-33 75.5zM512 0q0 45 32 77t77 32q43 0 74.5 -32t31.5 -77t-31.5 -77t-74.5 -32 q-45 0 -77 32t-32 77zM512 1536q0 45 32 77t77 32q43 0 74.5 -32t31.5 -77t-30.5 -75.5t-75.5 -30.5q-43 0 -76 30.5t-33 75.5zM768 0q0 45 32 77t77 32q43 0 74.5 -32t31.5 -77t-31.5 -77t-74.5 -32q-45 0 -77 32t-32 77zM768 768q0 45 32 77t77 32q43 0 74.5 -32t31.5 -77 t-30.5 -75.5t-75.5 -30.5q-43 0 -76 30.5t-33 75.5zM768 1536q0 45 32 77t77 32q43 0 74.5 -32t31.5 -77t-30.5 -75.5t-75.5 -30.5q-43 0 -76 30.5t-33 75.5zM1022 512q0 45 31.5 77t74.5 32q45 0 77 -32t32 -77t-30.5 -75.5t-78.5 -30.5q-43 0 -74.5 31.5t-31.5 74.5z M1024 256q0 45 32 77t77 32q43 0 74.5 -32t31.5 -77t-30.5 -75.5t-75.5 -30.5q-43 0 -76 30.5t-33 75.5zM1024 768q0 45 32 77t77 32q43 0 74.5 -32t31.5 -77t-30.5 -75.5t-75.5 -30.5q-43 0 -76 30.5t-33 75.5zM1024 1280q0 45 32 77t77 32q43 0 74.5 -32t31.5 -77 t-30.5 -75.5t-75.5 -30.5q-43 0 -76 30.5t-33 75.5z" />
<glyph unicode="H" d="M-2 512q0 45 31.5 77t74.5 32q45 0 77 -32t32 -77t-30.5 -75.5t-78.5 -30.5q-43 0 -74.5 31.5t-31.5 74.5zM0 0q0 45 32 77t77 32q43 0 74.5 -32t31.5 -77t-31.5 -77t-74.5 -32q-45 0 -77 32t-32 77zM0 256q0 45 32 77t77 32q43 0 74.5 -32t31.5 -77t-30.5 -75.5 t-75.5 -30.5q-43 0 -76 30.5t-33 75.5zM0 768q0 45 32 77t77 32q43 0 74.5 -32t31.5 -77t-30.5 -75.5t-75.5 -30.5q-43 0 -76 30.5t-33 75.5zM0 1024q0 45 32 77t77 32q43 0 74.5 -32t31.5 -77t-30.5 -75.5t-75.5 -30.5q-43 0 -76 30.5t-33 75.5zM0 1280q0 45 32 77t77 32 q43 0 74.5 -32t31.5 -77t-30.5 -75.5t-75.5 -30.5q-43 0 -76 30.5t-33 75.5zM0 1536q0 45 32 77t77 32q43 0 74.5 -32t31.5 -77t-30.5 -75.5t-75.5 -30.5q-43 0 -76 30.5t-33 75.5zM256 768q0 45 32 77t77 32q43 0 74.5 -32t31.5 -77t-30.5 -75.5t-75.5 -30.5 q-43 0 -76 30.5t-33 75.5zM512 768q0 45 32 77t77 32q43 0 74.5 -32t31.5 -77t-30.5 -75.5t-75.5 -30.5q-43 0 -76 30.5t-33 75.5zM768 768q0 45 32 77t77 32q43 0 74.5 -32t31.5 -77t-30.5 -75.5t-75.5 -30.5q-43 0 -76 30.5t-33 75.5zM1022 512q0 45 31.5 77t74.5 32 q45 0 77 -32t32 -77t-30.5 -75.5t-78.5 -30.5q-43 0 -74.5 31.5t-31.5 74.5zM1024 0q0 45 32 77t77 32q43 0 74.5 -32t31.5 -77t-31.5 -77t-74.5 -32q-45 0 -77 32t-32 77zM1024 256q0 45 32 77t77 32q43 0 74.5 -32t31.5 -77t-30.5 -75.5t-75.5 -30.5q-43 0 -76 30.5 t-33 75.5zM1024 768q0 45 32 77t77 32q43 0 74.5 -32t31.5 -77t-30.5 -75.5t-75.5 -30.5q-43 0 -76 30.5t-33 75.5zM1024 1024q0 45 32 77t77 32q43 0 74.5 -32t31.5 -77t-30.5 -75.5t-75.5 -30.5q-43 0 -76 30.5t-33 75.5zM1024 1280q0 45 32 77t77 32q43 0 74.5 -32 t31.5 -77t-30.5 -75.5t-75.5 -30.5q-43 0 -76 30.5t-33 75.5zM1024 1536q0 45 32 77t77 32q43 0 74.5 -32t31.5 -77t-30.5 -75.5t-75.5 -30.5q-43 0 -76 30.5t-33 75.5z" />
<glyph unicode="I" d="M256 0q0 45 32 77t77 32q43 0 74.5 -32t31.5 -77t-31.5 -77t-74.5 -32q-45 0 -77 32t-32 77zM256 1536q0 45 32 77t77 32q43 0 74.5 -32t31.5 -77t-30.5 -75.5t-75.5 -30.5q-43 0 -76 30.5t-33 75.5zM510 512q0 45 31.5 77t74.5 32q45 0 77 -32t32 -77t-30.5 -75.5 t-78.5 -30.5q-43 0 -74.5 31.5t-31.5 74.5zM512 0q0 45 32 77t77 32q43 0 74.5 -32t31.5 -77t-31.5 -77t-74.5 -32q-45 0 -77 32t-32 77zM512 256q0 45 32 77t77 32q43 0 74.5 -32t31.5 -77t-30.5 -75.5t-75.5 -30.5q-43 0 -76 30.5t-33 75.5zM512 768q0 45 32 77t77 32 q43 0 74.5 -32t31.5 -77t-30.5 -75.5t-75.5 -30.5q-43 0 -76 30.5t-33 75.5zM512 1024q0 45 32 77t77 32q43 0 74.5 -32t31.5 -77t-30.5 -75.5t-75.5 -30.5q-43 0 -76 30.5t-33 75.5zM512 1280q0 45 32 77t77 32q43 0 74.5 -32t31.5 -77t-30.5 -75.5t-75.5 -30.5 q-43 0 -76 30.5t-33 75.5zM512 1536q0 45 32 77t77 32q43 0 74.5 -32t31.5 -77t-30.5 -75.5t-75.5 -30.5q-43 0 -76 30.5t-33 75.5zM768 0q0 45 32 77t77 32q43 0 74.5 -32t31.5 -77t-31.5 -77t-74.5 -32q-45 0 -77 32t-32 77zM768 1536q0 45 32 77t77 32q43 0 74.5 -32 t31.5 -77t-30.5 -75.5t-75.5 -30.5q-43 0 -76 30.5t-33 75.5z" />
<glyph unicode="J" d="M-2 512q0 45 31.5 77t74.5 32q45 0 77 -32t32 -77t-30.5 -75.5t-78.5 -30.5q-43 0 -74.5 31.5t-31.5 74.5zM0 256q0 45 32 77t77 32q43 0 74.5 -32t31.5 -77t-30.5 -75.5t-75.5 -30.5q-43 0 -76 30.5t-33 75.5zM256 0q0 45 32 77t77 32q43 0 74.5 -32t31.5 -77t-31.5 -77 t-74.5 -32q-45 0 -77 32t-32 77zM512 0q0 45 32 77t77 32q43 0 74.5 -32t31.5 -77t-31.5 -77t-74.5 -32q-45 0 -77 32t-32 77zM512 1536q0 45 32 77t77 32q43 0 74.5 -32t31.5 -77t-30.5 -75.5t-75.5 -30.5q-43 0 -76 30.5t-33 75.5zM766 512q0 45 31.5 77t74.5 32 q45 0 77 -32t32 -77t-30.5 -75.5t-78.5 -30.5q-43 0 -74.5 31.5t-31.5 74.5zM768 256q0 45 32 77t77 32q43 0 74.5 -32t31.5 -77t-30.5 -75.5t-75.5 -30.5q-43 0 -76 30.5t-33 75.5zM768 768q0 45 32 77t77 32q43 0 74.5 -32t31.5 -77t-30.5 -75.5t-75.5 -30.5 q-43 0 -76 30.5t-33 75.5zM768 1024q0 45 32 77t77 32q43 0 74.5 -32t31.5 -77t-30.5 -75.5t-75.5 -30.5q-43 0 -76 30.5t-33 75.5zM768 1280q0 45 32 77t77 32q43 0 74.5 -32t31.5 -77t-30.5 -75.5t-75.5 -30.5q-43 0 -76 30.5t-33 75.5zM768 1536q0 45 32 77t77 32 q43 0 74.5 -32t31.5 -77t-30.5 -75.5t-75.5 -30.5q-43 0 -76 30.5t-33 75.5zM1024 1536q0 45 32 77t77 32q43 0 74.5 -32t31.5 -77t-30.5 -75.5t-75.5 -30.5q-43 0 -76 30.5t-33 75.5z" />
<glyph unicode="K" d="M-2 512q0 45 31.5 77t74.5 32q45 0 77 -32t32 -77t-30.5 -75.5t-78.5 -30.5q-43 0 -74.5 31.5t-31.5 74.5zM0 0q0 45 32 77t77 32q43 0 74.5 -32t31.5 -77t-31.5 -77t-74.5 -32q-45 0 -77 32t-32 77zM0 256q0 45 32 77t77 32q43 0 74.5 -32t31.5 -77t-30.5 -75.5 t-75.5 -30.5q-43 0 -76 30.5t-33 75.5zM0 768q0 45 32 77t77 32q43 0 74.5 -32t31.5 -77t-30.5 -75.5t-75.5 -30.5q-43 0 -76 30.5t-33 75.5zM0 1024q0 45 32 77t77 32q43 0 74.5 -32t31.5 -77t-30.5 -75.5t-75.5 -30.5q-43 0 -76 30.5t-33 75.5zM0 1280q0 45 32 77t77 32 q43 0 74.5 -32t31.5 -77t-30.5 -75.5t-75.5 -30.5q-43 0 -76 30.5t-33 75.5zM0 1536q0 45 32 77t77 32q43 0 74.5 -32t31.5 -77t-30.5 -75.5t-75.5 -30.5q-43 0 -76 30.5t-33 75.5zM256 768q0 45 32 77t77 32q43 0 74.5 -32t31.5 -77t-30.5 -75.5t-75.5 -30.5 q-43 0 -76 30.5t-33 75.5zM512 512q0 45 32 77t77 32q43 0 74.5 -32t31.5 -77t-30.5 -75.5t-75.5 -30.5q-43 0 -76 30.5t-33 75.5zM512 1024q0 45 32 77t77 32q43 0 74.5 -32t31.5 -77t-30.5 -75.5t-75.5 -30.5q-43 0 -76 30.5t-33 75.5zM768 256q0 45 32 77t77 32 q43 0 74.5 -32t31.5 -77t-30.5 -75.5t-75.5 -30.5q-43 0 -76 30.5t-33 75.5zM768 1280q0 45 32 77t77 32q43 0 74.5 -32t31.5 -77t-30.5 -75.5t-75.5 -30.5q-43 0 -76 30.5t-33 75.5zM1024 0q0 45 32 77t77 32q43 0 74.5 -32t31.5 -77t-31.5 -77t-74.5 -32q-45 0 -77 32 t-32 77zM1024 1536q0 45 32 77t77 32q43 0 74.5 -32t31.5 -77t-30.5 -75.5t-75.5 -30.5q-43 0 -76 30.5t-33 75.5z" />
<glyph unicode="L" d="M-2 512q0 45 31.5 77t74.5 32q45 0 77 -32t32 -77t-30.5 -75.5t-78.5 -30.5q-43 0 -74.5 31.5t-31.5 74.5zM0 0q0 45 32 77t77 32q43 0 74.5 -32t31.5 -77t-31.5 -77t-74.5 -32q-45 0 -77 32t-32 77zM0 256q0 45 32 77t77 32q43 0 74.5 -32t31.5 -77t-30.5 -75.5 t-75.5 -30.5q-43 0 -76 30.5t-33 75.5zM0 768q0 45 32 77t77 32q43 0 74.5 -32t31.5 -77t-30.5 -75.5t-75.5 -30.5q-43 0 -76 30.5t-33 75.5zM0 1024q0 45 32 77t77 32q43 0 74.5 -32t31.5 -77t-30.5 -75.5t-75.5 -30.5q-43 0 -76 30.5t-33 75.5zM0 1280q0 45 32 77t77 32 q43 0 74.5 -32t31.5 -77t-30.5 -75.5t-75.5 -30.5q-43 0 -76 30.5t-33 75.5zM0 1536q0 45 32 77t77 32q43 0 74.5 -32t31.5 -77t-30.5 -75.5t-75.5 -30.5q-43 0 -76 30.5t-33 75.5zM256 0q0 45 32 77t77 32q43 0 74.5 -32t31.5 -77t-31.5 -77t-74.5 -32q-45 0 -77 32t-32 77 zM512 0q0 45 32 77t77 32q43 0 74.5 -32t31.5 -77t-31.5 -77t-74.5 -32q-45 0 -77 32t-32 77zM768 0q0 45 32 77t77 32q43 0 74.5 -32t31.5 -77t-31.5 -77t-74.5 -32q-45 0 -77 32t-32 77zM1024 0q0 45 32 77t77 32q43 0 74.5 -32t31.5 -77t-31.5 -77t-74.5 -32 q-45 0 -77 32t-32 77z" />
<glyph unicode="M" d="M-2 512q0 45 31.5 77t74.5 32q45 0 77 -32t32 -77t-30.5 -75.5t-78.5 -30.5q-43 0 -74.5 31.5t-31.5 74.5zM0 0q0 45 32 77t77 32q43 0 74.5 -32t31.5 -77t-31.5 -77t-74.5 -32q-45 0 -77 32t-32 77zM0 256q0 45 32 77t77 32q43 0 74.5 -32t31.5 -77t-30.5 -75.5 t-75.5 -30.5q-43 0 -76 30.5t-33 75.5zM0 768q0 45 32 77t77 32q43 0 74.5 -32t31.5 -77t-30.5 -75.5t-75.5 -30.5q-43 0 -76 30.5t-33 75.5zM0 1024q0 45 32 77t77 32q43 0 74.5 -32t31.5 -77t-30.5 -75.5t-75.5 -30.5q-43 0 -76 30.5t-33 75.5zM0 1280q0 45 32 77t77 32 q43 0 74.5 -32t31.5 -77t-30.5 -75.5t-75.5 -30.5q-43 0 -76 30.5t-33 75.5zM0 1536q0 45 32 77t77 32q43 0 74.5 -32t31.5 -77t-30.5 -75.5t-75.5 -30.5q-43 0 -76 30.5t-33 75.5zM256 1280q0 45 32 77t77 32q43 0 74.5 -32t31.5 -77t-30.5 -75.5t-75.5 -30.5 q-43 0 -76 30.5t-33 75.5zM385 1024q0 43 31 76t76 33t76.5 -32t31.5 -77t-30.5 -75.5t-77.5 -30.5q-45 0 -76 30.5t-31 75.5zM512 512q0 45 32 77t77 32q43 0 74.5 -32t31.5 -77t-30.5 -75.5t-75.5 -30.5q-43 0 -76 30.5t-33 75.5zM512 768q0 45 32 77t77 32q43 0 74.5 -32 t31.5 -77t-30.5 -75.5t-75.5 -30.5q-43 0 -76 30.5t-33 75.5zM641 1024q0 43 31 76t76 33t76.5 -32t31.5 -77t-30.5 -75.5t-77.5 -30.5q-45 0 -76 30.5t-31 75.5zM768 1280q0 45 32 77t77 32q43 0 74.5 -32t31.5 -77t-30.5 -75.5t-75.5 -30.5q-43 0 -76 30.5t-33 75.5z M1022 512q0 45 31.5 77t74.5 32q45 0 77 -32t32 -77t-30.5 -75.5t-78.5 -30.5q-43 0 -74.5 31.5t-31.5 74.5zM1024 0q0 45 32 77t77 32q43 0 74.5 -32t31.5 -77t-31.5 -77t-74.5 -32q-45 0 -77 32t-32 77zM1024 256q0 45 32 77t77 32q43 0 74.5 -32t31.5 -77t-30.5 -75.5 t-75.5 -30.5q-43 0 -76 30.5t-33 75.5zM1024 768q0 45 32 77t77 32q43 0 74.5 -32t31.5 -77t-30.5 -75.5t-75.5 -30.5q-43 0 -76 30.5t-33 75.5zM1024 1024q0 45 32 77t77 32q43 0 74.5 -32t31.5 -77t-30.5 -75.5t-75.5 -30.5q-43 0 -76 30.5t-33 75.5zM1024 1280 q0 45 32 77t77 32q43 0 74.5 -32t31.5 -77t-30.5 -75.5t-75.5 -30.5q-43 0 -76 30.5t-33 75.5zM1024 1536q0 45 32 77t77 32q43 0 74.5 -32t31.5 -77t-30.5 -75.5t-75.5 -30.5q-43 0 -76 30.5t-33 75.5z" />
<glyph unicode="N" d="M-2 512q0 45 31.5 77t74.5 32q45 0 77 -32t32 -77t-30.5 -75.5t-78.5 -30.5q-43 0 -74.5 31.5t-31.5 74.5zM0 0q0 45 32 77t77 32q43 0 74.5 -32t31.5 -77t-31.5 -77t-74.5 -32q-45 0 -77 32t-32 77zM0 256q0 45 32 77t77 32q43 0 74.5 -32t31.5 -77t-30.5 -75.5 t-75.5 -30.5q-43 0 -76 30.5t-33 75.5zM0 768q0 45 32 77t77 32q43 0 74.5 -32t31.5 -77t-30.5 -75.5t-75.5 -30.5q-43 0 -76 30.5t-33 75.5zM0 1024q0 45 32 77t77 32q43 0 74.5 -32t31.5 -77t-30.5 -75.5t-75.5 -30.5q-43 0 -76 30.5t-33 75.5zM0 1280q0 45 32 77t77 32 q43 0 74.5 -32t31.5 -77t-30.5 -75.5t-75.5 -30.5q-43 0 -76 30.5t-33 75.5zM0 1536q0 45 32 77t77 32q43 0 74.5 -32t31.5 -77t-30.5 -75.5t-75.5 -30.5q-43 0 -76 30.5t-33 75.5zM256 1280q0 45 32 77t77 32q43 0 74.5 -32t31.5 -77t-30.5 -75.5t-75.5 -30.5 q-43 0 -76 30.5t-33 75.5zM385 1024q0 43 31 76t76 33t76.5 -32t31.5 -77t-30.5 -75.5t-77.5 -30.5q-45 0 -76 30.5t-31 75.5zM512 768q0 45 32 77t77 32q43 0 74.5 -32t31.5 -77t-30.5 -75.5t-75.5 -30.5q-43 0 -76 30.5t-33 75.5zM641 512q0 43 31 76t76 33t76.5 -32 t31.5 -77t-30.5 -75.5t-77.5 -30.5q-45 0 -76 30.5t-31 75.5zM768 256q0 45 32 77t77 32q43 0 74.5 -32t31.5 -77t-30.5 -75.5t-75.5 -30.5q-43 0 -76 30.5t-33 75.5zM1022 512q0 45 31.5 77t74.5 32q45 0 77 -32t32 -77t-30.5 -75.5t-78.5 -30.5q-43 0 -74.5 31.5 t-31.5 74.5zM1024 0q0 45 32 77t77 32q43 0 74.5 -32t31.5 -77t-31.5 -77t-74.5 -32q-45 0 -77 32t-32 77zM1024 256q0 45 32 77t77 32q43 0 74.5 -32t31.5 -77t-30.5 -75.5t-75.5 -30.5q-43 0 -76 30.5t-33 75.5zM1024 768q0 45 32 77t77 32q43 0 74.5 -32t31.5 -77 t-30.5 -75.5t-75.5 -30.5q-43 0 -76 30.5t-33 75.5zM1024 1024q0 45 32 77t77 32q43 0 74.5 -32t31.5 -77t-30.5 -75.5t-75.5 -30.5q-43 0 -76 30.5t-33 75.5zM1024 1280q0 45 32 77t77 32q43 0 74.5 -32t31.5 -77t-30.5 -75.5t-75.5 -30.5q-43 0 -76 30.5t-33 75.5z M1024 1536q0 45 32 77t77 32q43 0 74.5 -32t31.5 -77t-30.5 -75.5t-75.5 -30.5q-43 0 -76 30.5t-33 75.5z" />
<glyph unicode="O" d="M-2 512q0 45 31.5 77t74.5 32q45 0 77 -32t32 -77t-30.5 -75.5t-78.5 -30.5q-43 0 -74.5 31.5t-31.5 74.5zM0 256q0 45 32 77t77 32q43 0 74.5 -32t31.5 -77t-30.5 -75.5t-75.5 -30.5q-43 0 -76 30.5t-33 75.5zM0 768q0 45 32 77t77 32q43 0 74.5 -32t31.5 -77 t-30.5 -75.5t-75.5 -30.5q-43 0 -76 30.5t-33 75.5zM0 1024q0 45 32 77t77 32q43 0 74.5 -32t31.5 -77t-30.5 -75.5t-75.5 -30.5q-43 0 -76 30.5t-33 75.5zM0 1280q0 45 32 77t77 32q43 0 74.5 -32t31.5 -77t-30.5 -75.5t-75.5 -30.5q-43 0 -76 30.5t-33 75.5zM256 0 q0 45 32 77t77 32q43 0 74.5 -32t31.5 -77t-31.5 -77t-74.5 -32q-45 0 -77 32t-32 77zM256 1536q0 45 32 77t77 32q43 0 74.5 -32t31.5 -77t-30.5 -75.5t-75.5 -30.5q-43 0 -76 30.5t-33 75.5zM512 0q0 45 32 77t77 32q43 0 74.5 -32t31.5 -77t-31.5 -77t-74.5 -32 q-45 0 -77 32t-32 77zM512 1536q0 45 32 77t77 32q43 0 74.5 -32t31.5 -77t-30.5 -75.5t-75.5 -30.5q-43 0 -76 30.5t-33 75.5zM768 0q0 45 32 77t77 32q43 0 74.5 -32t31.5 -77t-31.5 -77t-74.5 -32q-45 0 -77 32t-32 77zM768 1536q0 45 32 77t77 32q43 0 74.5 -32 t31.5 -77t-30.5 -75.5t-75.5 -30.5q-43 0 -76 30.5t-33 75.5zM1022 512q0 45 31.5 77t74.5 32q45 0 77 -32t32 -77t-30.5 -75.5t-78.5 -30.5q-43 0 -74.5 31.5t-31.5 74.5zM1024 256q0 45 32 77t77 32q43 0 74.5 -32t31.5 -77t-30.5 -75.5t-75.5 -30.5q-43 0 -76 30.5 t-33 75.5zM1024 768q0 45 32 77t77 32q43 0 74.5 -32t31.5 -77t-30.5 -75.5t-75.5 -30.5q-43 0 -76 30.5t-33 75.5zM1024 1024q0 45 32 77t77 32q43 0 74.5 -32t31.5 -77t-30.5 -75.5t-75.5 -30.5q-43 0 -76 30.5t-33 75.5zM1024 1280q0 45 32 77t77 32q43 0 74.5 -32 t31.5 -77t-30.5 -75.5t-75.5 -30.5q-43 0 -76 30.5t-33 75.5z" />
<glyph unicode="P" d="M-2 512q0 45 31.5 77t74.5 32q45 0 77 -32t32 -77t-30.5 -75.5t-78.5 -30.5q-43 0 -74.5 31.5t-31.5 74.5zM0 0q0 45 32 77t77 32q43 0 74.5 -32t31.5 -77t-31.5 -77t-74.5 -32q-45 0 -77 32t-32 77zM0 256q0 45 32 77t77 32q43 0 74.5 -32t31.5 -77t-30.5 -75.5 t-75.5 -30.5q-43 0 -76 30.5t-33 75.5zM0 768q0 45 32 77t77 32q43 0 74.5 -32t31.5 -77t-30.5 -75.5t-75.5 -30.5q-43 0 -76 30.5t-33 75.5zM0 1024q0 45 32 77t77 32q43 0 74.5 -32t31.5 -77t-30.5 -75.5t-75.5 -30.5q-43 0 -76 30.5t-33 75.5zM0 1280q0 45 32 77t77 32 q43 0 74.5 -32t31.5 -77t-30.5 -75.5t-75.5 -30.5q-43 0 -76 30.5t-33 75.5zM0 1536q0 45 32 77t77 32q43 0 74.5 -32t31.5 -77t-30.5 -75.5t-75.5 -30.5q-43 0 -76 30.5t-33 75.5zM256 768q0 45 32 77t77 32q43 0 74.5 -32t31.5 -77t-30.5 -75.5t-75.5 -30.5 q-43 0 -76 30.5t-33 75.5zM256 1536q0 45 32 77t77 32q43 0 74.5 -32t31.5 -77t-30.5 -75.5t-75.5 -30.5q-43 0 -76 30.5t-33 75.5zM512 768q0 45 32 77t77 32q43 0 74.5 -32t31.5 -77t-30.5 -75.5t-75.5 -30.5q-43 0 -76 30.5t-33 75.5zM512 1536q0 45 32 77t77 32 q43 0 74.5 -32t31.5 -77t-30.5 -75.5t-75.5 -30.5q-43 0 -76 30.5t-33 75.5zM768 768q0 45 32 77t77 32q43 0 74.5 -32t31.5 -77t-30.5 -75.5t-75.5 -30.5q-43 0 -76 30.5t-33 75.5zM768 1536q0 45 32 77t77 32q43 0 74.5 -32t31.5 -77t-30.5 -75.5t-75.5 -30.5 q-43 0 -76 30.5t-33 75.5zM1024 1024q0 45 32 77t77 32q43 0 74.5 -32t31.5 -77t-30.5 -75.5t-75.5 -30.5q-43 0 -76 30.5t-33 75.5zM1024 1280q0 45 32 77t77 32q43 0 74.5 -32t31.5 -77t-30.5 -75.5t-75.5 -30.5q-43 0 -76 30.5t-33 75.5z" />
<glyph unicode="Q" d="M-2 512q0 45 31.5 77t74.5 32q45 0 77 -32t32 -77t-30.5 -75.5t-78.5 -30.5q-43 0 -74.5 31.5t-31.5 74.5zM0 256q0 45 32 77t77 32q43 0 74.5 -32t31.5 -77t-30.5 -75.5t-75.5 -30.5q-43 0 -76 30.5t-33 75.5zM0 768q0 45 32 77t77 32q43 0 74.5 -32t31.5 -77 t-30.5 -75.5t-75.5 -30.5q-43 0 -76 30.5t-33 75.5zM0 1024q0 45 32 77t77 32q43 0 74.5 -32t31.5 -77t-30.5 -75.5t-75.5 -30.5q-43 0 -76 30.5t-33 75.5zM0 1280q0 45 32 77t77 32q43 0 74.5 -32t31.5 -77t-30.5 -75.5t-75.5 -30.5q-43 0 -76 30.5t-33 75.5zM256 0 q0 45 32 77t77 32q43 0 74.5 -32t31.5 -77t-31.5 -77t-74.5 -32q-45 0 -77 32t-32 77zM256 1536q0 45 32 77t77 32q43 0 74.5 -32t31.5 -77t-30.5 -75.5t-75.5 -30.5q-43 0 -76 30.5t-33 75.5zM512 0q0 45 32 77t77 32q43 0 74.5 -32t31.5 -77t-31.5 -77t-74.5 -32 q-45 0 -77 32t-32 77zM512 1536q0 45 32 77t77 32q43 0 74.5 -32t31.5 -77t-30.5 -75.5t-75.5 -30.5q-43 0 -76 30.5t-33 75.5zM641 256q0 43 31 76t76 33t76.5 -32t31.5 -77t-30.5 -75.5t-77.5 -30.5q-45 0 -76 30.5t-31 75.5zM768 0q0 45 32 77t77 32q43 0 74.5 -32 t31.5 -77t-31.5 -77t-74.5 -32q-45 0 -77 32t-32 77zM768 1536q0 45 32 77t77 32q43 0 74.5 -32t31.5 -77t-30.5 -75.5t-75.5 -30.5q-43 0 -76 30.5t-33 75.5zM897 -256q0 45 31 75.5t76 30.5q43 0 75.5 -30.5t32.5 -75.5t-31.5 -77t-76.5 -32t-76 31t-31 78zM1022 512 q0 45 31.5 77t74.5 32q45 0 77 -32t32 -77t-30.5 -75.5t-78.5 -30.5q-43 0 -74.5 31.5t-31.5 74.5zM1024 256q0 45 32 77t77 32q43 0 74.5 -32t31.5 -77t-30.5 -75.5t-75.5 -30.5q-43 0 -76 30.5t-33 75.5zM1024 768q0 45 32 77t77 32q43 0 74.5 -32t31.5 -77t-30.5 -75.5 t-75.5 -30.5q-43 0 -76 30.5t-33 75.5zM1024 1024q0 45 32 77t77 32q43 0 74.5 -32t31.5 -77t-30.5 -75.5t-75.5 -30.5q-43 0 -76 30.5t-33 75.5zM1024 1280q0 45 32 77t77 32q43 0 74.5 -32t31.5 -77t-30.5 -75.5t-75.5 -30.5q-43 0 -76 30.5t-33 75.5z" />
<glyph unicode="R" d="M-2 512q0 45 31.5 77t74.5 32q45 0 77 -32t32 -77t-30.5 -75.5t-78.5 -30.5q-43 0 -74.5 31.5t-31.5 74.5zM0 0q0 45 32 77t77 32q43 0 74.5 -32t31.5 -77t-31.5 -77t-74.5 -32q-45 0 -77 32t-32 77zM0 256q0 45 32 77t77 32q43 0 74.5 -32t31.5 -77t-30.5 -75.5 t-75.5 -30.5q-43 0 -76 30.5t-33 75.5zM0 768q0 45 32 77t77 32q43 0 74.5 -32t31.5 -77t-30.5 -75.5t-75.5 -30.5q-43 0 -76 30.5t-33 75.5zM0 1024q0 45 32 77t77 32q43 0 74.5 -32t31.5 -77t-30.5 -75.5t-75.5 -30.5q-43 0 -76 30.5t-33 75.5zM0 1280q0 45 32 77t77 32 q43 0 74.5 -32t31.5 -77t-30.5 -75.5t-75.5 -30.5q-43 0 -76 30.5t-33 75.5zM0 1536q0 45 32 77t77 32q43 0 74.5 -32t31.5 -77t-30.5 -75.5t-75.5 -30.5q-43 0 -76 30.5t-33 75.5zM256 768q0 45 32 77t77 32q43 0 74.5 -32t31.5 -77t-30.5 -75.5t-75.5 -30.5 q-43 0 -76 30.5t-33 75.5zM256 1536q0 45 32 77t77 32q43 0 74.5 -32t31.5 -77t-30.5 -75.5t-75.5 -30.5q-43 0 -76 30.5t-33 75.5zM512 768q0 45 32 77t77 32q43 0 74.5 -32t31.5 -77t-30.5 -75.5t-75.5 -30.5q-43 0 -76 30.5t-33 75.5zM512 1536q0 45 32 77t77 32 q43 0 74.5 -32t31.5 -77t-30.5 -75.5t-75.5 -30.5q-43 0 -76 30.5t-33 75.5zM768 512q0 45 32 77t77 32q43 0 74.5 -32t31.5 -77t-30.5 -75.5t-75.5 -30.5q-43 0 -76 30.5t-33 75.5zM768 768q0 45 32 77t77 32q43 0 74.5 -32t31.5 -77t-30.5 -75.5t-75.5 -30.5 q-43 0 -76 30.5t-33 75.5zM768 1536q0 45 32 77t77 32q43 0 74.5 -32t31.5 -77t-30.5 -75.5t-75.5 -30.5q-43 0 -76 30.5t-33 75.5zM897 256q0 43 31 76t76 33t76.5 -32t31.5 -77t-30.5 -75.5t-77.5 -30.5q-45 0 -76 30.5t-31 75.5zM1024 0q0 45 32 77t77 32q43 0 74.5 -32 t31.5 -77t-31.5 -77t-74.5 -32q-45 0 -77 32t-32 77zM1024 1024q0 45 32 77t77 32q43 0 74.5 -32t31.5 -77t-30.5 -75.5t-75.5 -30.5q-43 0 -76 30.5t-33 75.5zM1024 1280q0 45 32 77t77 32q43 0 74.5 -32t31.5 -77t-30.5 -75.5t-75.5 -30.5q-43 0 -76 30.5t-33 75.5z" />
<glyph unicode="S" d="M0 256q0 45 32 77t77 32q43 0 74.5 -32t31.5 -77t-30.5 -75.5t-75.5 -30.5q-43 0 -76 30.5t-33 75.5zM0 1024q0 45 32 77t77 32q43 0 74.5 -32t31.5 -77t-30.5 -75.5t-75.5 -30.5q-43 0 -76 30.5t-33 75.5zM0 1280q0 45 32 77t77 32q43 0 74.5 -32t31.5 -77t-30.5 -75.5 t-75.5 -30.5q-43 0 -76 30.5t-33 75.5zM256 0q0 45 32 77t77 32q43 0 74.5 -32t31.5 -77t-31.5 -77t-74.5 -32q-45 0 -77 32t-32 77zM256 768q0 45 32 77t77 32q43 0 74.5 -32t31.5 -77t-30.5 -75.5t-75.5 -30.5q-43 0 -76 30.5t-33 75.5zM256 1536q0 45 32 77t77 32 q43 0 74.5 -32t31.5 -77t-30.5 -75.5t-75.5 -30.5q-43 0 -76 30.5t-33 75.5zM512 0q0 45 32 77t77 32q43 0 74.5 -32t31.5 -77t-31.5 -77t-74.5 -32q-45 0 -77 32t-32 77zM512 768q0 45 32 77t77 32q43 0 74.5 -32t31.5 -77t-30.5 -75.5t-75.5 -30.5q-43 0 -76 30.5 t-33 75.5zM512 1536q0 45 32 77t77 32q43 0 74.5 -32t31.5 -77t-30.5 -75.5t-75.5 -30.5q-43 0 -76 30.5t-33 75.5zM768 0q0 45 32 77t77 32q43 0 74.5 -32t31.5 -77t-31.5 -77t-74.5 -32q-45 0 -77 32t-32 77zM768 768q0 45 32 77t77 32q43 0 74.5 -32t31.5 -77 t-30.5 -75.5t-75.5 -30.5q-43 0 -76 30.5t-33 75.5zM768 1536q0 45 32 77t77 32q43 0 74.5 -32t31.5 -77t-30.5 -75.5t-75.5 -30.5q-43 0 -76 30.5t-33 75.5zM1022 512q0 45 31.5 77t74.5 32q45 0 77 -32t32 -77t-30.5 -75.5t-78.5 -30.5q-43 0 -74.5 31.5t-31.5 74.5z M1024 256q0 45 32 77t77 32q43 0 74.5 -32t31.5 -77t-30.5 -75.5t-75.5 -30.5q-43 0 -76 30.5t-33 75.5zM1024 1280q0 45 32 77t77 32q43 0 74.5 -32t31.5 -77t-30.5 -75.5t-75.5 -30.5q-43 0 -76 30.5t-33 75.5z" />
<glyph unicode="T" d="M0 1536q0 45 32 77t77 32q43 0 74.5 -32t31.5 -77t-30.5 -75.5t-75.5 -30.5q-43 0 -76 30.5t-33 75.5zM256 1536q0 45 32 77t77 32q43 0 74.5 -32t31.5 -77t-30.5 -75.5t-75.5 -30.5q-43 0 -76 30.5t-33 75.5zM510 512q0 45 31.5 77t74.5 32q45 0 77 -32t32 -77 t-30.5 -75.5t-78.5 -30.5q-43 0 -74.5 31.5t-31.5 74.5zM512 0q0 45 32 77t77 32q43 0 74.5 -32t31.5 -77t-31.5 -77t-74.5 -32q-45 0 -77 32t-32 77zM512 256q0 45 32 77t77 32q43 0 74.5 -32t31.5 -77t-30.5 -75.5t-75.5 -30.5q-43 0 -76 30.5t-33 75.5zM512 768 q0 45 32 77t77 32q43 0 74.5 -32t31.5 -77t-30.5 -75.5t-75.5 -30.5q-43 0 -76 30.5t-33 75.5zM512 1024q0 45 32 77t77 32q43 0 74.5 -32t31.5 -77t-30.5 -75.5t-75.5 -30.5q-43 0 -76 30.5t-33 75.5zM512 1280q0 45 32 77t77 32q43 0 74.5 -32t31.5 -77t-30.5 -75.5 t-75.5 -30.5q-43 0 -76 30.5t-33 75.5zM512 1536q0 45 32 77t77 32q43 0 74.5 -32t31.5 -77t-30.5 -75.5t-75.5 -30.5q-43 0 -76 30.5t-33 75.5zM768 1536q0 45 32 77t77 32q43 0 74.5 -32t31.5 -77t-30.5 -75.5t-75.5 -30.5q-43 0 -76 30.5t-33 75.5zM1024 1536q0 45 32 77 t77 32q43 0 74.5 -32t31.5 -77t-30.5 -75.5t-75.5 -30.5q-43 0 -76 30.5t-33 75.5z" />
<glyph unicode="U" d="M-2 512q0 45 31.5 77t74.5 32q45 0 77 -32t32 -77t-30.5 -75.5t-78.5 -30.5q-43 0 -74.5 31.5t-31.5 74.5zM0 256q0 45 32 77t77 32q43 0 74.5 -32t31.5 -77t-30.5 -75.5t-75.5 -30.5q-43 0 -76 30.5t-33 75.5zM0 768q0 45 32 77t77 32q43 0 74.5 -32t31.5 -77 t-30.5 -75.5t-75.5 -30.5q-43 0 -76 30.5t-33 75.5zM0 1024q0 45 32 77t77 32q43 0 74.5 -32t31.5 -77t-30.5 -75.5t-75.5 -30.5q-43 0 -76 30.5t-33 75.5zM0 1280q0 45 32 77t77 32q43 0 74.5 -32t31.5 -77t-30.5 -75.5t-75.5 -30.5q-43 0 -76 30.5t-33 75.5zM0 1536 q0 45 32 77t77 32q43 0 74.5 -32t31.5 -77t-30.5 -75.5t-75.5 -30.5q-43 0 -76 30.5t-33 75.5zM256 0q0 45 32 77t77 32q43 0 74.5 -32t31.5 -77t-31.5 -77t-74.5 -32q-45 0 -77 32t-32 77zM512 0q0 45 32 77t77 32q43 0 74.5 -32t31.5 -77t-31.5 -77t-74.5 -32 q-45 0 -77 32t-32 77zM768 0q0 45 32 77t77 32q43 0 74.5 -32t31.5 -77t-31.5 -77t-74.5 -32q-45 0 -77 32t-32 77zM1022 512q0 45 31.5 77t74.5 32q45 0 77 -32t32 -77t-30.5 -75.5t-78.5 -30.5q-43 0 -74.5 31.5t-31.5 74.5zM1024 256q0 45 32 77t77 32q43 0 74.5 -32 t31.5 -77t-30.5 -75.5t-75.5 -30.5q-43 0 -76 30.5t-33 75.5zM1024 768q0 45 32 77t77 32q43 0 74.5 -32t31.5 -77t-30.5 -75.5t-75.5 -30.5q-43 0 -76 30.5t-33 75.5zM1024 1024q0 45 32 77t77 32q43 0 74.5 -32t31.5 -77t-30.5 -75.5t-75.5 -30.5q-43 0 -76 30.5t-33 75.5 zM1024 1280q0 45 32 77t77 32q43 0 74.5 -32t31.5 -77t-30.5 -75.5t-75.5 -30.5q-43 0 -76 30.5t-33 75.5zM1024 1536q0 45 32 77t77 32q43 0 74.5 -32t31.5 -77t-30.5 -75.5t-75.5 -30.5q-43 0 -76 30.5t-33 75.5z" />
<glyph unicode="V" d="M0 1024q0 45 32 77t77 32q43 0 74.5 -32t31.5 -77t-30.5 -75.5t-75.5 -30.5q-43 0 -76 30.5t-33 75.5zM0 1280q0 45 32 77t77 32q43 0 74.5 -32t31.5 -77t-30.5 -75.5t-75.5 -30.5q-43 0 -76 30.5t-33 75.5zM0 1536q0 45 32 77t77 32q43 0 74.5 -32t31.5 -77t-30.5 -75.5 t-75.5 -30.5q-43 0 -76 30.5t-33 75.5zM129 768q0 43 31 76t76 33t76.5 -32t31.5 -77t-30.5 -75.5t-77.5 -30.5q-45 0 -76 30.5t-31 75.5zM256 512q0 45 32 77t77 32q43 0 74.5 -32t31.5 -77t-30.5 -75.5t-75.5 -30.5q-43 0 -76 30.5t-33 75.5zM385 256q0 43 31 76t76 33 t76.5 -32t31.5 -77t-30.5 -75.5t-77.5 -30.5q-45 0 -76 30.5t-31 75.5zM512 0q0 45 32 77t77 32q43 0 74.5 -32t31.5 -77t-31.5 -77t-74.5 -32q-45 0 -77 32t-32 77zM641 256q0 43 31 76t76 33t76.5 -32t31.5 -77t-30.5 -75.5t-77.5 -30.5q-45 0 -76 30.5t-31 75.5zM768 512 q0 45 32 77t77 32q43 0 74.5 -32t31.5 -77t-30.5 -75.5t-75.5 -30.5q-43 0 -76 30.5t-33 75.5zM897 768q0 43 31 76t76 33t76.5 -32t31.5 -77t-30.5 -75.5t-77.5 -30.5q-45 0 -76 30.5t-31 75.5zM1024 1024q0 45 32 77t77 32q43 0 74.5 -32t31.5 -77t-30.5 -75.5 t-75.5 -30.5q-43 0 -76 30.5t-33 75.5zM1024 1280q0 45 32 77t77 32q43 0 74.5 -32t31.5 -77t-30.5 -75.5t-75.5 -30.5q-43 0 -76 30.5t-33 75.5zM1024 1536q0 45 32 77t77 32q43 0 74.5 -32t31.5 -77t-30.5 -75.5t-75.5 -30.5q-43 0 -76 30.5t-33 75.5z" />
<glyph unicode="W" d="M0 0q0 45 31.5 77t77.5 32q43 0 74.5 -32t31.5 -77t-31.5 -77t-74.5 -32q-45 0 -77 32t-32 77zM0 256q0 45 31.5 77t77.5 32q43 0 74.5 -32t31.5 -77t-30.5 -75.5t-75.5 -30.5q-43 0 -76 30.5t-33 75.5zM0 512q0 45 31.5 77t77.5 32q43 0 74.5 -32t31.5 -77t-30.5 -75.5 t-75.5 -30.5q-43 0 -76 30.5t-33 75.5zM0 768q0 45 31.5 77t77.5 32q43 0 74.5 -32t31.5 -77t-30.5 -75.5t-75.5 -30.5q-43 0 -76 30.5t-33 75.5zM0 1280q0 45 31.5 77t77.5 32q43 0 74.5 -32t31.5 -77t-30.5 -75.5t-75.5 -30.5q-43 0 -76 30.5t-33 75.5zM0 1536 q0 45 31.5 77t77.5 32q43 0 74.5 -32t31.5 -77t-30.5 -75.5t-75.5 -30.5q-43 0 -76 30.5t-33 75.5zM2 1024q0 45 32 77t77 32t75.5 -31t30.5 -78q0 -45 -30.5 -75.5t-75.5 -30.5q-43 0 -76 30.5t-33 75.5zM256 256q0 45 31.5 77t77.5 32q43 0 74.5 -32t31.5 -77t-30.5 -75.5 t-75.5 -30.5q-43 0 -76 30.5t-33 75.5zM385 512q0 43 30.5 76t76.5 33q45 0 76.5 -32t31.5 -77t-30.5 -75.5t-77.5 -30.5q-45 0 -76 30.5t-31 75.5zM512 768q0 45 31.5 77t77.5 32q43 0 74.5 -32t31.5 -77t-30.5 -75.5t-75.5 -30.5q-43 0 -76 30.5t-33 75.5zM512 1024 q0 45 31.5 77t77.5 32q43 0 74.5 -32t31.5 -77t-30.5 -75.5t-75.5 -30.5q-43 0 -76 30.5t-33 75.5zM641 512q0 43 30.5 76t76.5 33q45 0 76.5 -32t31.5 -77t-30.5 -75.5t-77.5 -30.5q-45 0 -76 30.5t-31 75.5zM768 256q0 45 31.5 77t77.5 32q43 0 74.5 -32t31.5 -77 t-30.5 -75.5t-75.5 -30.5q-43 0 -76 30.5t-33 75.5zM1024 0q0 45 31.5 77t77.5 32q43 0 74.5 -32t31.5 -77t-31.5 -77t-74.5 -32q-45 0 -77 32t-32 77zM1024 256q0 45 31.5 77t77.5 32q43 0 74.5 -32t31.5 -77t-30.5 -75.5t-75.5 -30.5q-43 0 -76 30.5t-33 75.5zM1024 512 q0 45 31.5 77t77.5 32q43 0 74.5 -32t31.5 -77t-30.5 -75.5t-75.5 -30.5q-43 0 -76 30.5t-33 75.5zM1024 768q0 45 31.5 77t77.5 32q43 0 74.5 -32t31.5 -77t-30.5 -75.5t-75.5 -30.5q-43 0 -76 30.5t-33 75.5zM1024 1280q0 45 31.5 77t77.5 32q43 0 74.5 -32t31.5 -77 t-30.5 -75.5t-75.5 -30.5q-43 0 -76 30.5t-33 75.5zM1024 1536q0 45 31.5 77t77.5 32q43 0 74.5 -32t31.5 -77t-30.5 -75.5t-75.5 -30.5q-43 0 -76 30.5t-33 75.5zM1026 1024q0 45 32 77t77 32t75.5 -31t30.5 -78q0 -45 -30.5 -75.5t-75.5 -30.5q-43 0 -76 30.5t-33 75.5z " />
<glyph unicode="X" d="M0 0q0 45 32 77t77 32q43 0 74.5 -32t31.5 -77t-31.5 -77t-74.5 -32q-45 0 -77 32t-32 77zM0 1536q0 45 32 77t77 32q43 0 74.5 -32t31.5 -77t-30.5 -75.5t-75.5 -30.5q-43 0 -76 30.5t-33 75.5zM256 256q0 45 32 77t77 32q43 0 74.5 -32t31.5 -77t-30.5 -75.5 t-75.5 -30.5q-43 0 -76 30.5t-33 75.5zM256 1280q0 45 32 77t77 32q43 0 74.5 -32t31.5 -77t-30.5 -75.5t-75.5 -30.5q-43 0 -76 30.5t-33 75.5zM512 512q0 45 32 77t77 32q43 0 74.5 -32t31.5 -77t-30.5 -75.5t-75.5 -30.5q-43 0 -76 30.5t-33 75.5zM512 768q0 45 32 77 t77 32q43 0 74.5 -32t31.5 -77t-30.5 -75.5t-75.5 -30.5q-43 0 -76 30.5t-33 75.5zM512 1024q0 45 32 77t77 32q43 0 74.5 -32t31.5 -77t-30.5 -75.5t-75.5 -30.5q-43 0 -76 30.5t-33 75.5zM768 256q0 45 32 77t77 32q43 0 74.5 -32t31.5 -77t-30.5 -75.5t-75.5 -30.5 q-43 0 -76 30.5t-33 75.5zM768 1280q0 45 32 77t77 32q43 0 74.5 -32t31.5 -77t-30.5 -75.5t-75.5 -30.5q-43 0 -76 30.5t-33 75.5zM1024 0q0 45 32 77t77 32q43 0 74.5 -32t31.5 -77t-31.5 -77t-74.5 -32q-45 0 -77 32t-32 77zM1024 1536q0 45 32 77t77 32q43 0 74.5 -32 t31.5 -77t-30.5 -75.5t-75.5 -30.5q-43 0 -76 30.5t-33 75.5z" />
<glyph unicode="Y" d="M0 1536q0 45 32 77t77 32q43 0 74.5 -32t31.5 -77t-30.5 -75.5t-75.5 -30.5q-43 0 -76 30.5t-33 75.5zM129 1280q0 43 31 76t76 33t76.5 -32t31.5 -77t-30.5 -75.5t-77.5 -30.5q-45 0 -76 30.5t-31 75.5zM256 1024q0 45 32 77t77 32q43 0 74.5 -32t31.5 -77t-30.5 -75.5 t-75.5 -30.5q-43 0 -76 30.5t-33 75.5zM385 768q0 43 31 76t76 33t76.5 -32t31.5 -77t-30.5 -75.5t-77.5 -30.5q-45 0 -76 30.5t-31 75.5zM512 0q0 45 32 77t77 32q43 0 74.5 -32t31.5 -77t-31.5 -77t-74.5 -32q-45 0 -77 32t-32 77zM512 256q0 45 32 77t77 32 q43 0 74.5 -32t31.5 -77t-30.5 -75.5t-75.5 -30.5q-43 0 -76 30.5t-33 75.5zM512 512q0 45 32 77t77 32q43 0 74.5 -32t31.5 -77t-30.5 -75.5t-75.5 -30.5q-43 0 -76 30.5t-33 75.5zM641 768q0 43 31 76t76 33t76.5 -32t31.5 -77t-30.5 -75.5t-77.5 -30.5q-45 0 -76 30.5 t-31 75.5zM768 1024q0 45 32 77t77 32q43 0 74.5 -32t31.5 -77t-30.5 -75.5t-75.5 -30.5q-43 0 -76 30.5t-33 75.5zM897 1280q0 43 31 76t76 33t76.5 -32t31.5 -77t-30.5 -75.5t-77.5 -30.5q-45 0 -76 30.5t-31 75.5zM1024 1536q0 45 32 77t77 32q43 0 74.5 -32t31.5 -77 t-30.5 -75.5t-75.5 -30.5q-43 0 -76 30.5t-33 75.5z" />
<glyph unicode="Z" d="M-6 0q0 45 31.5 77t76.5 32t77 -32t32 -77t-32 -77t-77 -32t-76.5 32t-31.5 77zM-6 1536q0 45 31.5 77t76.5 32t77 -32t32 -77t-30.5 -75.5t-78.5 -30.5q-43 0 -75.5 30.5t-32.5 75.5zM252 256q0 43 30.5 76t75.5 33t77 -32t32 -77t-30.5 -75.5t-78.5 -30.5 q-45 0 -75.5 30.5t-30.5 75.5zM256 0q0 45 32 77t77 32q43 0 74.5 -32t31.5 -77t-31.5 -77t-74.5 -32q-45 0 -77 32t-32 77zM256 1536q0 45 32 77t77 32q43 0 74.5 -32t31.5 -77t-30.5 -75.5t-75.5 -30.5q-43 0 -76 30.5t-33 75.5zM379 512q0 45 31.5 77t76.5 32 q43 0 75 -32t32 -77t-31 -75.5t-76 -30.5q-43 0 -75.5 30.5t-32.5 75.5zM508 768q0 43 30.5 76t75.5 33t77 -32t32 -77t-30.5 -75.5t-78.5 -30.5q-45 0 -75.5 30.5t-30.5 75.5zM512 0q0 45 32 77t77 32q43 0 74.5 -32t31.5 -77t-31.5 -77t-74.5 -32q-45 0 -77 32t-32 77z M512 1536q0 45 32 77t77 32q43 0 74.5 -32t31.5 -77t-30.5 -75.5t-75.5 -30.5q-43 0 -76 30.5t-33 75.5zM635 1024q0 45 31.5 77t76.5 32q43 0 75 -32t32 -77t-31 -75.5t-76 -30.5q-43 0 -75.5 30.5t-32.5 75.5zM764 1280q0 43 30.5 76t75.5 33t77 -32t32 -77t-30.5 -75.5 t-78.5 -30.5q-45 0 -75.5 30.5t-30.5 75.5zM768 1536q0 45 32 77t77 32q43 0 74.5 -32t31.5 -77t-30.5 -75.5t-75.5 -30.5q-43 0 -76 30.5t-33 75.5zM770 0q0 45 32 77t77 32t75.5 -31t30.5 -78q0 -43 -30.5 -76t-75.5 -33t-77 32t-32 77zM1020 0q0 43 30.5 76t75.5 33 t77 -32t32 -77t-32 -77t-77 -32t-75.5 31t-30.5 78zM1020 1536q0 43 30.5 76t75.5 33t77 -32t32 -77t-30.5 -75.5t-78.5 -30.5q-45 0 -75.5 30.5t-30.5 75.5z" />
<glyph unicode="[" d="M766 512q0 45 31.5 77t74.5 32q45 0 77 -32t32 -77t-30.5 -75.5t-78.5 -30.5q-43 0 -74.5 31.5t-31.5 74.5zM768 0q0 45 32 77t77 32q43 0 74.5 -32t31.5 -77t-31.5 -77t-74.5 -32q-45 0 -77 32t-32 77zM768 256q0 45 32 77t77 32q43 0 74.5 -32t31.5 -77t-30.5 -75.5 t-75.5 -30.5q-43 0 -76 30.5t-33 75.5zM768 768q0 45 32 77t77 32q43 0 74.5 -32t31.5 -77t-30.5 -75.5t-75.5 -30.5q-43 0 -76 30.5t-33 75.5zM768 1024q0 45 32 77t77 32q43 0 74.5 -32t31.5 -77t-30.5 -75.5t-75.5 -30.5q-43 0 -76 30.5t-33 75.5zM768 1280q0 45 32 77 t77 32q43 0 74.5 -32t31.5 -77t-30.5 -75.5t-75.5 -30.5q-43 0 -76 30.5t-33 75.5zM768 1536q0 45 32 77t77 32q43 0 74.5 -32t31.5 -77t-30.5 -75.5t-75.5 -30.5q-43 0 -76 30.5t-33 75.5zM1024 0q0 45 32 77t77 32q43 0 74.5 -32t31.5 -77t-31.5 -77t-74.5 -32 q-45 0 -77 32t-32 77zM1024 1536q0 45 32 77t77 32q43 0 74.5 -32t31.5 -77t-30.5 -75.5t-75.5 -30.5q-43 0 -76 30.5t-33 75.5z" />
<glyph unicode="\" d="M0 1536q0 45 32 77t77 32q43 0 74.5 -32t31.5 -77t-30.5 -75.5t-75.5 -30.5q-43 0 -76 30.5t-33 75.5zM129 1280q0 43 31 76t76 33t76.5 -32t31.5 -77t-30.5 -75.5t-77.5 -30.5q-45 0 -76 30.5t-31 75.5zM256 1024q0 45 32 77t77 32q43 0 74.5 -32t31.5 -77t-30.5 -75.5 t-75.5 -30.5q-43 0 -76 30.5t-33 75.5zM385 768q0 43 31 76t76 33t76.5 -32t31.5 -77t-30.5 -75.5t-77.5 -30.5q-45 0 -76 30.5t-31 75.5zM512 512q0 45 32 77t77 32q43 0 74.5 -32t31.5 -77t-30.5 -75.5t-75.5 -30.5q-43 0 -76 30.5t-33 75.5zM641 256q0 43 31 76t76 33 t76.5 -32t31.5 -77t-30.5 -75.5t-77.5 -30.5q-45 0 -76 30.5t-31 75.5zM768 0q0 45 32 77t77 32q43 0 74.5 -32t31.5 -77t-31.5 -77t-74.5 -32q-45 0 -77 32t-32 77z" />
<glyph unicode="]" d="M512 0q0 45 32 77t77 32q43 0 74.5 -32t31.5 -77t-31.5 -77t-74.5 -32q-45 0 -77 32t-32 77zM512 1536q0 45 32 77t77 32q43 0 74.5 -32t31.5 -77t-30.5 -75.5t-75.5 -30.5q-43 0 -76 30.5t-33 75.5zM768 0q0 45 32 77t77 32q43 0 74.5 -32t31.5 -77t-31.5 -77t-74.5 -32 q-45 0 -77 32t-32 77zM768 256q0 45 32 77t77 32q43 0 74.5 -32t31.5 -77t-30.5 -75.5t-75.5 -30.5q-43 0 -76 30.5t-33 75.5zM768 768q0 45 32 77t77 32q43 0 74.5 -32t31.5 -77t-30.5 -75.5t-75.5 -30.5q-43 0 -76 30.5t-33 75.5zM768 1024q0 45 32 77t77 32 q43 0 74.5 -32t31.5 -77t-30.5 -75.5t-75.5 -30.5q-43 0 -76 30.5t-33 75.5zM768 1280q0 45 32 77t77 32q43 0 74.5 -32t31.5 -77t-30.5 -75.5t-75.5 -30.5q-43 0 -76 30.5t-33 75.5zM768 1536q0 45 32 77t77 32q43 0 74.5 -32t31.5 -77t-30.5 -75.5t-75.5 -30.5 q-43 0 -76 30.5t-33 75.5zM770 512q0 45 32 77t77 32t75.5 -31t30.5 -78q0 -45 -30.5 -75.5t-75.5 -30.5q-43 0 -76 30.5t-33 75.5z" />
<glyph unicode="^" d="M256 1280q0 45 32 77t77 32q43 0 74.5 -32t31.5 -77t-30.5 -75.5t-75.5 -30.5q-43 0 -76 30.5t-33 75.5zM512 1536q0 45 32 77t77 32q43 0 74.5 -32t31.5 -77t-30.5 -75.5t-75.5 -30.5q-43 0 -76 30.5t-33 75.5zM768 1280q0 45 32 77t77 32q43 0 74.5 -32t31.5 -77 t-30.5 -75.5t-75.5 -30.5q-43 0 -76 30.5t-33 75.5z" />
<glyph unicode="_" d="M-2 -512q0 45 30.5 75.5t75.5 30.5q43 0 76 -30.5t33 -75.5t-31.5 -77t-77.5 -32q-43 0 -74.5 32t-31.5 77zM256 -512q0 45 31 75.5t78 30.5q43 0 74.5 -31.5t31.5 -74.5q0 -45 -31.5 -77t-74.5 -32q-45 0 -77 32t-32 77zM512 -512q0 45 31 75.5t78 30.5q43 0 74.5 -31.5 t31.5 -74.5q0 -45 -31.5 -77t-74.5 -32q-45 0 -77 32t-32 77zM768 -512q0 45 31 75.5t78 30.5q43 0 74.5 -31.5t31.5 -74.5q0 -45 -31.5 -77t-74.5 -32q-45 0 -77 32t-32 77zM1022 -512q0 45 30.5 75.5t75.5 30.5q43 0 76 -30.5t33 -75.5t-31.5 -77t-77.5 -32 q-43 0 -74.5 32t-31.5 77z" />
<glyph unicode="`" d="M385 1536q0 43 31 76t76 33t76.5 -32t31.5 -77t-30.5 -75.5t-77.5 -30.5q-45 0 -76 30.5t-31 75.5zM512 1280q0 45 32 77t77 32q43 0 74.5 -32t31.5 -77t-30.5 -75.5t-75.5 -30.5q-43 0 -76 30.5t-33 75.5z" />
<glyph unicode="a" d="M-2 512q0 45 31.5 77t74.5 32q45 0 77 -32t32 -77t-30.5 -75.5t-78.5 -30.5q-43 0 -74.5 31.5t-31.5 74.5zM0 256q0 45 32 77t77 32q43 0 74.5 -32t31.5 -77t-30.5 -75.5t-75.5 -30.5q-43 0 -76 30.5t-33 75.5zM0 768q0 45 32 77t77 32q43 0 74.5 -32t31.5 -77 t-30.5 -75.5t-75.5 -30.5q-43 0 -76 30.5t-33 75.5zM256 0q0 45 32 77t77 32q43 0 74.5 -32t31.5 -77t-31.5 -77t-74.5 -32q-45 0 -77 32t-32 77zM256 1024q0 45 32 77t77 32q43 0 74.5 -32t31.5 -77t-30.5 -75.5t-75.5 -30.5q-43 0 -76 30.5t-33 75.5zM512 256q0 45 32 77 t77 32q43 0 74.5 -32t31.5 -77t-30.5 -75.5t-75.5 -30.5q-43 0 -76 30.5t-33 75.5zM512 1024q0 45 32 77t77 32q43 0 74.5 -32t31.5 -77t-30.5 -75.5t-75.5 -30.5q-43 0 -76 30.5t-33 75.5zM766 512q0 45 31.5 77t74.5 32q45 0 77 -32t32 -77t-30.5 -75.5t-78.5 -30.5 q-43 0 -74.5 31.5t-31.5 74.5zM768 0q0 45 32 77t77 32q43 0 74.5 -32t31.5 -77t-31.5 -77t-74.5 -32q-45 0 -77 32t-32 77zM768 256q0 45 32 77t77 32q43 0 74.5 -32t31.5 -77t-30.5 -75.5t-75.5 -30.5q-43 0 -76 30.5t-33 75.5zM768 768q0 45 32 77t77 32q43 0 74.5 -32 t31.5 -77t-30.5 -75.5t-75.5 -30.5q-43 0 -76 30.5t-33 75.5zM768 1024q0 45 32 77t77 32q43 0 74.5 -32t31.5 -77t-30.5 -75.5t-75.5 -30.5q-43 0 -76 30.5t-33 75.5z" />
<glyph unicode="b" d="M0 0q0 45 32 77t77 32q43 0 74.5 -32t31.5 -77t-31.5 -77t-74.5 -32q-45 0 -77 32t-32 77zM0 256q0 45 32 77t77 32q43 0 74.5 -32t31.5 -77t-30.5 -75.5t-75.5 -30.5q-43 0 -76 30.5t-33 75.5zM0 768q0 45 32 77t77 32q43 0 74.5 -32t31.5 -77t-30.5 -75.5t-75.5 -30.5 q-43 0 -76 30.5t-33 75.5zM0 1024q0 45 32 77t77 32q43 0 74.5 -32t31.5 -77t-30.5 -75.5t-75.5 -30.5q-43 0 -76 30.5t-33 75.5zM0 1280q0 45 32 77t77 32q43 0 74.5 -32t31.5 -77t-30.5 -75.5t-75.5 -30.5q-43 0 -76 30.5t-33 75.5zM0 1536q0 45 32 77t77 32 q43 0 74.5 -32t31.5 -77t-30.5 -75.5t-75.5 -30.5q-43 0 -76 30.5t-33 75.5zM2 512q0 45 32 77t77 32t75.5 -31t30.5 -78q0 -45 -30.5 -75.5t-75.5 -30.5q-43 0 -76 30.5t-33 75.5zM256 0q0 45 32 77t77 32q43 0 74.5 -32t31.5 -77t-31.5 -77t-74.5 -32q-45 0 -77 32t-32 77 zM256 1024q0 45 32 77t77 32q43 0 74.5 -32t31.5 -77t-30.5 -75.5t-75.5 -30.5q-43 0 -76 30.5t-33 75.5zM512 0q0 45 32 77t77 32q43 0 74.5 -32t31.5 -77t-31.5 -77t-74.5 -32q-45 0 -77 32t-32 77zM512 1024q0 45 32 77t77 32q43 0 74.5 -32t31.5 -77t-30.5 -75.5 t-75.5 -30.5q-43 0 -76 30.5t-33 75.5zM768 256q0 45 32 77t77 32q43 0 74.5 -32t31.5 -77t-30.5 -75.5t-75.5 -30.5q-43 0 -76 30.5t-33 75.5zM768 768q0 45 32 77t77 32q43 0 74.5 -32t31.5 -77t-30.5 -75.5t-75.5 -30.5q-43 0 -76 30.5t-33 75.5zM770 512q0 45 32 77 t77 32t75.5 -31t30.5 -78q0 -45 -30.5 -75.5t-75.5 -30.5q-43 0 -76 30.5t-33 75.5z" />
<glyph unicode="c" d="M-2 512q0 45 31.5 77t74.5 32q45 0 77 -32t32 -77t-30.5 -75.5t-78.5 -30.5q-43 0 -74.5 31.5t-31.5 74.5zM0 256q0 45 32 77t77 32q43 0 74.5 -32t31.5 -77t-30.5 -75.5t-75.5 -30.5q-43 0 -76 30.5t-33 75.5zM0 768q0 45 32 77t77 32q43 0 74.5 -32t31.5 -77 t-30.5 -75.5t-75.5 -30.5q-43 0 -76 30.5t-33 75.5zM256 0q0 45 32 77t77 32q43 0 74.5 -32t31.5 -77t-31.5 -77t-74.5 -32q-45 0 -77 32t-32 77zM256 1024q0 45 32 77t77 32q43 0 74.5 -32t31.5 -77t-30.5 -75.5t-75.5 -30.5q-43 0 -76 30.5t-33 75.5zM512 0q0 45 32 77 t77 32q43 0 74.5 -32t31.5 -77t-31.5 -77t-74.5 -32q-45 0 -77 32t-32 77zM512 1024q0 45 32 77t77 32q43 0 74.5 -32t31.5 -77t-30.5 -75.5t-75.5 -30.5q-43 0 -76 30.5t-33 75.5zM768 0q0 45 32 77t77 32q43 0 74.5 -32t31.5 -77t-31.5 -77t-74.5 -32q-45 0 -77 32t-32 77 zM768 1024q0 45 32 77t77 32q43 0 74.5 -32t31.5 -77t-30.5 -75.5t-75.5 -30.5q-43 0 -76 30.5t-33 75.5z" />
<glyph unicode="d" d="M-2 512q0 45 31.5 77t74.5 32q45 0 77 -32t32 -77t-30.5 -75.5t-78.5 -30.5q-43 0 -74.5 31.5t-31.5 74.5zM0 256q0 45 32 77t77 32q43 0 74.5 -32t31.5 -77t-30.5 -75.5t-75.5 -30.5q-43 0 -76 30.5t-33 75.5zM0 768q0 45 32 77t77 32q43 0 74.5 -32t31.5 -77 t-30.5 -75.5t-75.5 -30.5q-43 0 -76 30.5t-33 75.5zM256 0q0 45 32 77t77 32q43 0 74.5 -32t31.5 -77t-31.5 -77t-74.5 -32q-45 0 -77 32t-32 77zM256 1024q0 45 32 77t77 32q43 0 74.5 -32t31.5 -77t-30.5 -75.5t-75.5 -30.5q-43 0 -76 30.5t-33 75.5zM512 0q0 45 32 77 t77 32q43 0 74.5 -32t31.5 -77t-31.5 -77t-74.5 -32q-45 0 -77 32t-32 77zM512 1024q0 45 32 77t77 32q43 0 74.5 -32t31.5 -77t-30.5 -75.5t-75.5 -30.5q-43 0 -76 30.5t-33 75.5zM766 512q0 45 31.5 77t74.5 32q45 0 77 -32t32 -77t-30.5 -75.5t-78.5 -30.5 q-43 0 -74.5 31.5t-31.5 74.5zM768 0q0 45 32 77t77 32q43 0 74.5 -32t31.5 -77t-31.5 -77t-74.5 -32q-45 0 -77 32t-32 77zM768 256q0 45 32 77t77 32q43 0 74.5 -32t31.5 -77t-30.5 -75.5t-75.5 -30.5q-43 0 -76 30.5t-33 75.5zM768 768q0 45 32 77t77 32q43 0 74.5 -32 t31.5 -77t-30.5 -75.5t-75.5 -30.5q-43 0 -76 30.5t-33 75.5zM768 1024q0 45 32 77t77 32q43 0 74.5 -32t31.5 -77t-30.5 -75.5t-75.5 -30.5q-43 0 -76 30.5t-33 75.5zM768 1280q0 45 32 77t77 32q43 0 74.5 -32t31.5 -77t-30.5 -75.5t-75.5 -30.5q-43 0 -76 30.5t-33 75.5z M768 1536q0 45 32 77t77 32q43 0 74.5 -32t31.5 -77t-30.5 -75.5t-75.5 -30.5q-43 0 -76 30.5t-33 75.5z" />
<glyph unicode="e" d="M-2 512q0 45 31.5 77t74.5 32q45 0 77 -32t32 -77t-30.5 -75.5t-78.5 -30.5q-43 0 -74.5 31.5t-31.5 74.5zM0 256q0 45 32 77t77 32q43 0 74.5 -32t31.5 -77t-30.5 -75.5t-75.5 -30.5q-43 0 -76 30.5t-33 75.5zM0 768q0 45 32 77t77 32q43 0 74.5 -32t31.5 -77 t-30.5 -75.5t-75.5 -30.5q-43 0 -76 30.5t-33 75.5zM256 0q0 45 32 77t77 32q43 0 74.5 -32t31.5 -77t-31.5 -77t-74.5 -32q-45 0 -77 32t-32 77zM256 512q0 45 32 77t77 32q43 0 74.5 -32t31.5 -77t-30.5 -75.5t-75.5 -30.5q-43 0 -76 30.5t-33 75.5zM256 1024q0 45 32 77 t77 32q43 0 74.5 -32t31.5 -77t-30.5 -75.5t-75.5 -30.5q-43 0 -76 30.5t-33 75.5zM512 0q0 45 32 77t77 32q43 0 74.5 -32t31.5 -77t-31.5 -77t-74.5 -32q-45 0 -77 32t-32 77zM512 512q0 45 32 77t77 32q43 0 74.5 -32t31.5 -77t-30.5 -75.5t-75.5 -30.5q-43 0 -76 30.5 t-33 75.5zM512 1024q0 45 32 77t77 32q43 0 74.5 -32t31.5 -77t-30.5 -75.5t-75.5 -30.5q-43 0 -76 30.5t-33 75.5zM768 0q0 45 32 77t77 32q43 0 74.5 -32t31.5 -77t-31.5 -77t-74.5 -32q-45 0 -77 32t-32 77zM768 512q0 45 32 77t77 32q43 0 74.5 -32t31.5 -77 t-30.5 -75.5t-75.5 -30.5q-43 0 -76 30.5t-33 75.5zM768 1024q0 45 32 77t77 32q43 0 74.5 -32t31.5 -77t-30.5 -75.5t-75.5 -30.5q-43 0 -76 30.5t-33 75.5zM1024 512q0 45 32 77t77 32q43 0 74.5 -32t31.5 -77t-30.5 -75.5t-75.5 -30.5q-43 0 -76 30.5t-33 75.5zM1026 768 q0 45 32 77t77 32t75.5 -31t30.5 -78q0 -45 -30.5 -75.5t-75.5 -30.5q-43 0 -76 30.5t-33 75.5z" />
<glyph unicode="f" d="M0 0q0 45 32 77t77 32q43 0 74.5 -32t31.5 -77t-31.5 -77t-74.5 -32q-45 0 -77 32t-32 77zM0 1024q0 45 32 77t77 32q43 0 74.5 -32t31.5 -77t-30.5 -75.5t-75.5 -30.5q-43 0 -76 30.5t-33 75.5zM254 512q0 45 31.5 77t74.5 32q45 0 77 -32t32 -77t-30.5 -75.5 t-78.5 -30.5q-43 0 -74.5 31.5t-31.5 74.5zM256 0q0 45 32 77t77 32q43 0 74.5 -32t31.5 -77t-31.5 -77t-74.5 -32q-45 0 -77 32t-32 77zM256 256q0 45 32 77t77 32q43 0 74.5 -32t31.5 -77t-30.5 -75.5t-75.5 -30.5q-43 0 -76 30.5t-33 75.5zM256 768q0 45 32 77t77 32 q43 0 74.5 -32t31.5 -77t-30.5 -75.5t-75.5 -30.5q-43 0 -76 30.5t-33 75.5zM256 1024q0 45 32 77t77 32q43 0 74.5 -32t31.5 -77t-30.5 -75.5t-75.5 -30.5q-43 0 -76 30.5t-33 75.5zM256 1280q0 45 32 77t77 32q43 0 74.5 -32t31.5 -77t-30.5 -75.5t-75.5 -30.5 q-43 0 -76 30.5t-33 75.5zM385 1536q0 43 31 76t76 33t76.5 -32t31.5 -77t-30.5 -75.5t-77.5 -30.5q-45 0 -76 30.5t-31 75.5zM512 0q0 45 32 77t77 32q43 0 74.5 -32t31.5 -77t-31.5 -77t-74.5 -32q-45 0 -77 32t-32 77zM512 1024q0 45 32 77t77 32q43 0 74.5 -32t31.5 -77 t-30.5 -75.5t-75.5 -30.5q-43 0 -76 30.5t-33 75.5zM641 1536q0 43 31 76t76 33t76.5 -32t31.5 -77t-30.5 -75.5t-77.5 -30.5q-45 0 -76 30.5t-31 75.5z" />
<glyph unicode="g" d="M-2 512q0 45 31.5 77t74.5 32q45 0 77 -32t32 -77t-30.5 -75.5t-78.5 -30.5q-43 0 -74.5 31.5t-31.5 74.5zM0 256q0 45 32 77t77 32q43 0 74.5 -32t31.5 -77t-30.5 -75.5t-75.5 -30.5q-43 0 -76 30.5t-33 75.5zM0 768q0 45 32 77t77 32q43 0 74.5 -32t31.5 -77 t-30.5 -75.5t-75.5 -30.5q-43 0 -76 30.5t-33 75.5zM256 0q0 45 32 77t77 32q43 0 74.5 -32t31.5 -77t-31.5 -77t-74.5 -32q-45 0 -77 32t-32 77zM256 -512q0 45 31 75.5t78 30.5q43 0 74.5 -31.5t31.5 -74.5q0 -45 -31.5 -77t-74.5 -32q-45 0 -77 32t-32 77zM256 1024 q0 45 32 77t77 32q43 0 74.5 -32t31.5 -77t-30.5 -75.5t-75.5 -30.5q-43 0 -76 30.5t-33 75.5zM512 0q0 45 32 77t77 32q43 0 74.5 -32t31.5 -77t-31.5 -77t-74.5 -32q-45 0 -77 32t-32 77zM512 -512q0 45 31 75.5t78 30.5q43 0 74.5 -31.5t31.5 -74.5q0 -45 -31.5 -77 t-74.5 -32q-45 0 -77 32t-32 77zM512 1024q0 45 32 77t77 32q43 0 74.5 -32t31.5 -77t-30.5 -75.5t-75.5 -30.5q-43 0 -76 30.5t-33 75.5zM768 0q0 45 32 77t77 32q43 0 74.5 -32t31.5 -77t-31.5 -77t-74.5 -32q-45 0 -77 32t-32 77zM768 -512q0 45 31 75.5t78 30.5 q43 0 74.5 -31.5t31.5 -74.5q0 -45 -31.5 -77t-74.5 -32q-45 0 -77 32t-32 77zM768 768q0 45 32 77t77 32q43 0 74.5 -32t31.5 -77t-30.5 -75.5t-75.5 -30.5q-43 0 -76 30.5t-33 75.5zM1024 512q0 45 32 77t77 32q43 0 74.5 -32t31.5 -77t-30.5 -75.5t-75.5 -30.5 q-43 0 -76 30.5t-33 75.5zM1026 0q0 45 32 77t77 32t75.5 -31t30.5 -78q0 -43 -30.5 -76t-75.5 -33t-77 32t-32 77zM1026 256q0 45 32 77t77 32t75.5 -31t30.5 -78q0 -45 -30.5 -75.5t-75.5 -30.5q-43 0 -76 30.5t-33 75.5zM1026 -256q0 45 31 75.5t78 30.5q45 0 75.5 -30.5 t30.5 -75.5q0 -43 -30.5 -76t-75.5 -33t-77 32t-32 77zM1026 768q0 45 32 77t77 32t75.5 -31t30.5 -78q0 -45 -30.5 -75.5t-75.5 -30.5q-43 0 -76 30.5t-33 75.5zM1026 1024q0 45 32 77t77 32t75.5 -31t30.5 -78q0 -45 -30.5 -75.5t-75.5 -30.5q-43 0 -76 30.5t-33 75.5z " />
<glyph unicode="h" d="M-2 256q0 45 31.5 77t74.5 32q45 0 77 -32t32 -77t-31 -75.5t-78 -30.5q-43 0 -74.5 31.5t-31.5 74.5zM-2 768q0 45 31.5 77t74.5 32q45 0 77 -32t32 -77t-31 -75.5t-78 -30.5q-43 0 -74.5 31.5t-31.5 74.5zM-2 1024q0 45 31.5 77t74.5 32q45 0 77 -32t32 -77t-31 -75.5 t-78 -30.5q-43 0 -74.5 31.5t-31.5 74.5zM-2 1280q0 45 31.5 77t74.5 32q45 0 77 -32t32 -77t-31 -75.5t-78 -30.5q-43 0 -74.5 31.5t-31.5 74.5zM-2 1536q0 45 31.5 77t74.5 32q45 0 77 -32t32 -77t-31 -75.5t-78 -30.5q-43 0 -74.5 31.5t-31.5 74.5zM0 0q0 45 31.5 77 t77.5 32q43 0 74.5 -32t31.5 -77t-31.5 -77t-74.5 -32q-45 0 -77 32t-32 77zM0 512q0 45 31.5 77t77.5 32q43 0 74.5 -32t31.5 -77t-30.5 -75.5t-75.5 -30.5q-43 0 -76 30.5t-33 75.5zM256 768q0 45 31.5 77t77.5 32q43 0 74.5 -32t31.5 -77t-30.5 -75.5t-75.5 -30.5 q-43 0 -76 30.5t-33 75.5zM512 1024q0 45 31.5 77t77.5 32q43 0 74.5 -32t31.5 -77t-30.5 -75.5t-75.5 -30.5q-43 0 -76 30.5t-33 75.5zM768 1024q0 45 31.5 77t77.5 32q43 0 74.5 -32t31.5 -77t-30.5 -75.5t-75.5 -30.5q-43 0 -76 30.5t-33 75.5zM1024 0q0 45 31.5 77 t77.5 32q43 0 74.5 -32t31.5 -77t-31.5 -77t-74.5 -32q-45 0 -77 32t-32 77zM1024 256q0 45 31.5 77t77.5 32q43 0 74.5 -32t31.5 -77t-30.5 -75.5t-75.5 -30.5q-43 0 -76 30.5t-33 75.5zM1024 768q0 45 31.5 77t77.5 32q43 0 74.5 -32t31.5 -77t-30.5 -75.5t-75.5 -30.5 q-43 0 -76 30.5t-33 75.5zM1026 512q0 45 32 77t77 32t75.5 -31t30.5 -78q0 -45 -30.5 -75.5t-75.5 -30.5q-43 0 -76 30.5t-33 75.5z" />
<glyph unicode="i" d="M256 0q0 45 32 77t77 32q43 0 74.5 -32t31.5 -77t-31.5 -77t-74.5 -32q-45 0 -77 32t-32 77zM256 1024q0 45 32 77t77 32q43 0 74.5 -32t31.5 -77t-30.5 -75.5t-75.5 -30.5q-43 0 -76 30.5t-33 75.5zM510 512q0 45 31.5 77t74.5 32q45 0 77 -32t32 -77t-30.5 -75.5 t-78.5 -30.5q-43 0 -74.5 31.5t-31.5 74.5zM512 0q0 45 32 77t77 32q43 0 74.5 -32t31.5 -77t-31.5 -77t-74.5 -32q-45 0 -77 32t-32 77zM512 256q0 45 32 77t77 32q43 0 74.5 -32t31.5 -77t-30.5 -75.5t-75.5 -30.5q-43 0 -76 30.5t-33 75.5zM512 768q0 45 32 77t77 32 q43 0 74.5 -32t31.5 -77t-30.5 -75.5t-75.5 -30.5q-43 0 -76 30.5t-33 75.5zM512 1024q0 45 32 77t77 32q43 0 74.5 -32t31.5 -77t-30.5 -75.5t-75.5 -30.5q-43 0 -76 30.5t-33 75.5zM512 1536q0 45 32 77t77 32q43 0 74.5 -32t31.5 -77t-30.5 -75.5t-75.5 -30.5 q-43 0 -76 30.5t-33 75.5zM768 0q0 45 32 77t77 32q43 0 74.5 -32t31.5 -77t-31.5 -77t-74.5 -32q-45 0 -77 32t-32 77z" />
<glyph unicode="j" d="M129 -512q0 45 31 75.5t76 30.5q43 0 75.5 -30.5t32.5 -75.5t-31.5 -77t-76.5 -32t-76 31t-31 78zM256 1024q0 45 32 77t77 32q43 0 74.5 -32t31.5 -77t-30.5 -75.5t-75.5 -30.5q-43 0 -76 30.5t-33 75.5zM385 -512q0 45 31 75.5t76 30.5q43 0 75.5 -30.5t32.5 -75.5 t-31.5 -77t-76.5 -32t-76 31t-31 78zM510 512q0 45 31.5 77t74.5 32q45 0 77 -32t32 -77t-30.5 -75.5t-78.5 -30.5q-43 0 -74.5 31.5t-31.5 74.5zM512 0q0 45 32 77t77 32q43 0 74.5 -32t31.5 -77t-31.5 -77t-74.5 -32q-45 0 -77 32t-32 77zM512 256q0 45 32 77t77 32 q43 0 74.5 -32t31.5 -77t-30.5 -75.5t-75.5 -30.5q-43 0 -76 30.5t-33 75.5zM512 -256q0 45 31 75.5t78 30.5q43 0 74.5 -31.5t31.5 -74.5q0 -45 -31.5 -77t-74.5 -32q-45 0 -77 32t-32 77zM512 768q0 45 32 77t77 32q43 0 74.5 -32t31.5 -77t-30.5 -75.5t-75.5 -30.5 q-43 0 -76 30.5t-33 75.5zM512 1024q0 45 32 77t77 32q43 0 74.5 -32t31.5 -77t-30.5 -75.5t-75.5 -30.5q-43 0 -76 30.5t-33 75.5zM512 1536q0 45 32 77t77 32q43 0 74.5 -32t31.5 -77t-30.5 -75.5t-75.5 -30.5q-43 0 -76 30.5t-33 75.5z" />
<glyph unicode="k" d="M-2 512q0 45 31.5 77t74.5 32q45 0 77 -32t32 -77t-30.5 -75.5t-78.5 -30.5q-43 0 -74.5 31.5t-31.5 74.5zM0 0q0 45 32 77t77 32q43 0 74.5 -32t31.5 -77t-31.5 -77t-74.5 -32q-45 0 -77 32t-32 77zM0 256q0 45 32 77t77 32q43 0 74.5 -32t31.5 -77t-30.5 -75.5 t-75.5 -30.5q-43 0 -76 30.5t-33 75.5zM0 768q0 45 32 77t77 32q43 0 74.5 -32t31.5 -77t-30.5 -75.5t-75.5 -30.5q-43 0 -76 30.5t-33 75.5zM0 1024q0 45 32 77t77 32q43 0 74.5 -32t31.5 -77t-30.5 -75.5t-75.5 -30.5q-43 0 -76 30.5t-33 75.5zM0 1280q0 45 32 77t77 32 q43 0 74.5 -32t31.5 -77t-30.5 -75.5t-75.5 -30.5q-43 0 -76 30.5t-33 75.5zM0 1536q0 45 32 77t77 32q43 0 74.5 -32t31.5 -77t-30.5 -75.5t-75.5 -30.5q-43 0 -76 30.5t-33 75.5zM256 512q0 45 32 77t77 32q43 0 74.5 -32t31.5 -77t-30.5 -75.5t-75.5 -30.5 q-43 0 -76 30.5t-33 75.5zM512 256q0 45 32 77t77 32q43 0 74.5 -32t31.5 -77t-30.5 -75.5t-75.5 -30.5q-43 0 -76 30.5t-33 75.5zM512 768q0 45 32 77t77 32q43 0 74.5 -32t31.5 -77t-30.5 -75.5t-75.5 -30.5q-43 0 -76 30.5t-33 75.5zM768 0q0 45 32 77t77 32 q43 0 74.5 -32t31.5 -77t-31.5 -77t-74.5 -32q-45 0 -77 32t-32 77zM768 1024q0 45 32 77t77 32q43 0 74.5 -32t31.5 -77t-30.5 -75.5t-75.5 -30.5q-43 0 -76 30.5t-33 75.5z" />
<glyph unicode="l" d="M256 0q0 45 32 77t77 32q43 0 74.5 -32t31.5 -77t-31.5 -77t-74.5 -32q-45 0 -77 32t-32 77zM256 1536q0 45 32 77t77 32q43 0 74.5 -32t31.5 -77t-30.5 -75.5t-75.5 -30.5q-43 0 -76 30.5t-33 75.5zM510 512q0 45 31.5 77t74.5 32q45 0 77 -32t32 -77t-30.5 -75.5 t-78.5 -30.5q-43 0 -74.5 31.5t-31.5 74.5zM512 0q0 45 32 77t77 32q43 0 74.5 -32t31.5 -77t-31.5 -77t-74.5 -32q-45 0 -77 32t-32 77zM512 256q0 45 32 77t77 32q43 0 74.5 -32t31.5 -77t-30.5 -75.5t-75.5 -30.5q-43 0 -76 30.5t-33 75.5zM512 768q0 45 32 77t77 32 q43 0 74.5 -32t31.5 -77t-30.5 -75.5t-75.5 -30.5q-43 0 -76 30.5t-33 75.5zM512 1024q0 45 32 77t77 32q43 0 74.5 -32t31.5 -77t-30.5 -75.5t-75.5 -30.5q-43 0 -76 30.5t-33 75.5zM512 1280q0 45 32 77t77 32q43 0 74.5 -32t31.5 -77t-30.5 -75.5t-75.5 -30.5 q-43 0 -76 30.5t-33 75.5zM512 1536q0 45 32 77t77 32q43 0 74.5 -32t31.5 -77t-30.5 -75.5t-75.5 -30.5q-43 0 -76 30.5t-33 75.5zM768 0q0 45 32 77t77 32q43 0 74.5 -32t31.5 -77t-31.5 -77t-74.5 -32q-45 0 -77 32t-32 77z" />
<glyph unicode="m" d="M-2 256q0 45 31.5 77t74.5 32q45 0 77 -32t32 -77t-31 -75.5t-78 -30.5q-43 0 -74.5 31.5t-31.5 74.5zM-2 768q0 45 31.5 77t74.5 32q45 0 77 -32t32 -77t-31 -75.5t-78 -30.5q-43 0 -74.5 31.5t-31.5 74.5zM-2 1024q0 45 31.5 77t74.5 32q45 0 77 -32t32 -77t-31 -75.5 t-78 -30.5q-43 0 -74.5 31.5t-31.5 74.5zM0 0q0 45 31.5 77t77.5 32q43 0 74.5 -32t31.5 -77t-31.5 -77t-74.5 -32q-45 0 -77 32t-32 77zM0 512q0 45 31.5 77t77.5 32q43 0 74.5 -32t31.5 -77t-30.5 -75.5t-75.5 -30.5q-43 0 -76 30.5t-33 75.5zM256 1024q0 45 31.5 77 t77.5 32q43 0 70.5 -31t35.5 -78q2 -8 2 -16q1 -32 -27 -58q-34 -32 -81 -32q-43 0 -76 30.5t-33 75.5zM510 256q0 45 31.5 77t74.5 32q45 0 77 -32t32 -77t-31 -75.5t-78 -30.5q-43 0 -74.5 31.5t-31.5 74.5zM510 768q0 45 31.5 77t74.5 32q45 0 77 -32t32 -77t-31 -75.5 t-78 -30.5q-43 0 -74.5 31.5t-31.5 74.5zM512 0q0 45 31.5 77t77.5 32q43 0 74.5 -32t31.5 -77t-31.5 -77t-74.5 -32q-45 0 -77 32t-32 77zM512 512q0 45 31.5 77t77.5 32q43 0 74.5 -32t31.5 -77t-30.5 -75.5t-75.5 -30.5q-43 0 -76 30.5t-33 75.5zM512 1024q0 45 31.5 77 t77.5 32q43 0 74.5 -32t31.5 -77t-30.5 -75.5t-75.5 -30.5q-43 0 -76 30.5t-33 75.5zM768 1024q0 45 31.5 77t77.5 32q43 0 74.5 -32t31.5 -77t-30.5 -75.5t-75.5 -30.5q-43 0 -76 30.5t-33 75.5zM1024 0q0 45 31.5 77t77.5 32q43 0 74.5 -32t31.5 -77t-31.5 -77t-74.5 -32 q-45 0 -77 32t-32 77zM1024 256q0 45 31.5 77t77.5 32q43 0 74.5 -32t31.5 -77t-30.5 -75.5t-75.5 -30.5q-43 0 -76 30.5t-33 75.5zM1024 768q0 45 31.5 77t77.5 32q43 0 74.5 -32t31.5 -77t-30.5 -75.5t-75.5 -30.5q-43 0 -76 30.5t-33 75.5zM1026 512q0 45 32 77t77 32 t75.5 -31t30.5 -78q0 -45 -30.5 -75.5t-75.5 -30.5q-43 0 -76 30.5t-33 75.5z" />
<glyph unicode="n" d="M-2 256q0 45 31.5 77t74.5 32q45 0 77 -32t32 -77t-31 -75.5t-78 -30.5q-43 0 -74.5 31.5t-31.5 74.5zM-2 768q0 45 31.5 77t74.5 32q45 0 77 -32t32 -77t-31 -75.5t-78 -30.5q-43 0 -74.5 31.5t-31.5 74.5zM-2 1024q0 45 31.5 77t74.5 32q45 0 77 -32t32 -77t-31 -75.5 t-78 -30.5q-43 0 -74.5 31.5t-31.5 74.5zM0 0q0 45 31.5 77t77.5 32q43 0 74.5 -32t31.5 -77t-31.5 -77t-74.5 -32q-45 0 -77 32t-32 77zM0 512q0 45 31.5 77t77.5 32q43 0 74.5 -32t31.5 -77t-30.5 -75.5t-75.5 -30.5q-43 0 -76 30.5t-33 75.5zM256 768q0 45 31.5 77 t77.5 32q43 0 74.5 -32t31.5 -77t-30.5 -75.5t-75.5 -30.5q-43 0 -76 30.5t-33 75.5zM512 1024q0 45 31.5 77t77.5 32q43 0 74.5 -32t31.5 -77t-30.5 -75.5t-75.5 -30.5q-43 0 -76 30.5t-33 75.5zM768 1024q0 45 31.5 77t77.5 32q43 0 74.5 -32t31.5 -77t-30.5 -75.5 t-75.5 -30.5q-43 0 -76 30.5t-33 75.5zM1024 0q0 45 31.5 77t77.5 32q43 0 74.5 -32t31.5 -77t-31.5 -77t-74.5 -32q-45 0 -77 32t-32 77zM1024 256q0 45 31.5 77t77.5 32q43 0 74.5 -32t31.5 -77t-30.5 -75.5t-75.5 -30.5q-43 0 -76 30.5t-33 75.5zM1024 768q0 45 31.5 77 t77.5 32q43 0 74.5 -32t31.5 -77t-30.5 -75.5t-75.5 -30.5q-43 0 -76 30.5t-33 75.5zM1026 512q0 45 32 77t77 32t75.5 -31t30.5 -78q0 -45 -30.5 -75.5t-75.5 -30.5q-43 0 -76 30.5t-33 75.5z" />
<glyph unicode="o" d="M-2 512q0 45 31.5 77t74.5 32q45 0 77 -32t32 -77t-30.5 -75.5t-78.5 -30.5q-43 0 -74.5 31.5t-31.5 74.5zM0 256q0 45 32 77t77 32q43 0 74.5 -32t31.5 -77t-30.5 -75.5t-75.5 -30.5q-43 0 -76 30.5t-33 75.5zM0 768q0 45 32 77t77 32q43 0 74.5 -32t31.5 -77 t-30.5 -75.5t-75.5 -30.5q-43 0 -76 30.5t-33 75.5zM256 0q0 45 32 77t77 32q43 0 74.5 -32t31.5 -77t-31.5 -77t-74.5 -32q-45 0 -77 32t-32 77zM256 1024q0 45 32 77t77 32q43 0 74.5 -32t31.5 -77t-30.5 -75.5t-75.5 -30.5q-43 0 -76 30.5t-33 75.5zM512 0q0 45 32 77 t77 32q43 0 74.5 -32t31.5 -77t-31.5 -77t-74.5 -32q-45 0 -77 32t-32 77zM512 1024q0 45 32 77t77 32q43 0 74.5 -32t31.5 -77t-30.5 -75.5t-75.5 -30.5q-43 0 -76 30.5t-33 75.5zM768 0q0 45 32 77t77 32q43 0 74.5 -32t31.5 -77t-31.5 -77t-74.5 -32q-45 0 -77 32t-32 77 zM768 1024q0 45 32 77t77 32q43 0 74.5 -32t31.5 -77t-30.5 -75.5t-75.5 -30.5q-43 0 -76 30.5t-33 75.5zM1024 512q0 45 32 77t77 32q43 0 74.5 -32t31.5 -77t-30.5 -75.5t-75.5 -30.5q-43 0 -76 30.5t-33 75.5zM1026 256q0 45 32 77t77 32t75.5 -31t30.5 -78 q0 -45 -30.5 -75.5t-75.5 -30.5q-43 0 -76 30.5t-33 75.5zM1026 768q0 45 32 77t77 32t75.5 -31t30.5 -78q0 -45 -30.5 -75.5t-75.5 -30.5q-43 0 -76 30.5t-33 75.5z" />
<glyph unicode="p" d="M0 0q0 45 31.5 77t77.5 32q43 0 74.5 -32t31.5 -77t-31.5 -77t-74.5 -32q-45 0 -77 32t-32 77zM0 -256q0 45 30.5 75.5t78.5 30.5q43 0 74.5 -31.5t31.5 -74.5q0 -45 -31.5 -77t-74.5 -32q-45 0 -77 32t-32 77zM0 256q0 45 31.5 77t77.5 32q43 0 74.5 -32t31.5 -77 t-30.5 -75.5t-75.5 -30.5q-43 0 -76 30.5t-33 75.5zM0 -512q0 45 30.5 75.5t78.5 30.5q43 0 74.5 -31.5t31.5 -74.5q0 -45 -31.5 -77t-74.5 -32q-45 0 -77 32t-32 77zM0 768q0 45 31.5 77t77.5 32q43 0 74.5 -32t31.5 -77t-30.5 -75.5t-75.5 -30.5q-43 0 -76 30.5t-33 75.5z M0 1024q0 45 31.5 77t77.5 32q43 0 74.5 -32t31.5 -77t-30.5 -75.5t-75.5 -30.5q-43 0 -76 30.5t-33 75.5zM2 512q0 45 32 77t77 32t75.5 -31t30.5 -78q0 -45 -30.5 -75.5t-75.5 -30.5q-43 0 -76 30.5t-33 75.5zM256 0q0 45 31.5 77t77.5 32q43 0 74.5 -32t31.5 -77 t-31.5 -77t-74.5 -32q-45 0 -77 32t-32 77zM256 1024q0 45 31.5 77t77.5 32q43 0 74.5 -32t31.5 -77t-30.5 -75.5t-75.5 -30.5q-43 0 -76 30.5t-33 75.5zM512 0q0 45 31.5 77t77.5 32q43 0 74.5 -32t31.5 -77t-31.5 -77t-74.5 -32q-45 0 -77 32t-32 77zM512 1024 q0 45 31.5 77t77.5 32q43 0 74.5 -32t31.5 -77t-30.5 -75.5t-75.5 -30.5q-43 0 -76 30.5t-33 75.5zM768 256q0 45 31.5 77t77.5 32q43 0 74.5 -32t31.5 -77t-30.5 -75.5t-75.5 -30.5q-43 0 -76 30.5t-33 75.5zM768 768q0 45 31.5 77t77.5 32q43 0 74.5 -32t31.5 -77 t-30.5 -75.5t-75.5 -30.5q-43 0 -76 30.5t-33 75.5zM770 512q0 45 32 77t77 32t75.5 -31t30.5 -78q0 -45 -30.5 -75.5t-75.5 -30.5q-43 0 -76 30.5t-33 75.5z" />
<glyph unicode="q" d="M-2 512q0 45 31.5 77t74.5 32q45 0 77 -32t32 -77t-31 -75.5t-78 -30.5q-43 0 -74.5 31.5t-31.5 74.5zM0 256q0 45 31.5 77t77.5 32q43 0 74.5 -32t31.5 -77t-30.5 -75.5t-75.5 -30.5q-43 0 -76 30.5t-33 75.5zM0 768q0 45 31.5 77t77.5 32q43 0 74.5 -32t31.5 -77 t-30.5 -75.5t-75.5 -30.5q-43 0 -76 30.5t-33 75.5zM256 0q0 45 31.5 77t77.5 32q43 0 74.5 -32t31.5 -77t-31.5 -77t-74.5 -32q-45 0 -77 32t-32 77zM256 1024q0 45 31.5 77t77.5 32q43 0 74.5 -32t31.5 -77t-30.5 -75.5t-75.5 -30.5q-43 0 -76 30.5t-33 75.5zM512 0 q0 45 31.5 77t77.5 32q43 0 74.5 -32t31.5 -77t-31.5 -77t-74.5 -32q-45 0 -77 32t-32 77zM512 1024q0 45 31.5 77t77.5 32q43 0 74.5 -32t31.5 -77t-30.5 -75.5t-75.5 -30.5q-43 0 -76 30.5t-33 75.5zM766 512q0 45 31.5 77t74.5 32q45 0 77 -32t32 -77t-31 -75.5 t-78 -30.5q-43 0 -74.5 31.5t-31.5 74.5zM768 0q0 45 31.5 77t77.5 32q43 0 74.5 -32t31.5 -77t-31.5 -77t-74.5 -32q-45 0 -77 32t-32 77zM768 -256q0 45 30.5 75.5t78.5 30.5q43 0 74.5 -31.5t31.5 -74.5q0 -45 -31.5 -77t-74.5 -32q-45 0 -77 32t-32 77zM768 256 q0 45 31.5 77t77.5 32q43 0 74.5 -32t31.5 -77t-30.5 -75.5t-75.5 -30.5q-43 0 -76 30.5t-33 75.5zM768 -512q0 45 30.5 75.5t78.5 30.5q43 0 74.5 -31.5t31.5 -74.5q0 -45 -31.5 -77t-74.5 -32q-45 0 -77 32t-32 77zM768 768q0 45 31.5 77t77.5 32q43 0 74.5 -32t31.5 -77 t-30.5 -75.5t-75.5 -30.5q-43 0 -76 30.5t-33 75.5zM768 1024q0 45 31.5 77t77.5 32q43 0 74.5 -32t31.5 -77t-30.5 -75.5t-75.5 -30.5q-43 0 -76 30.5t-33 75.5z" />
<glyph unicode="r" d="M-2 256q0 45 31.5 77t74.5 32q45 0 77 -32t32 -77t-31 -75.5t-78 -30.5q-43 0 -74.5 31.5t-31.5 74.5zM-2 768q0 45 31.5 77t74.5 32q45 0 77 -32t32 -77t-31 -75.5t-78 -30.5q-43 0 -74.5 31.5t-31.5 74.5zM-2 1024q0 45 31.5 77t74.5 32q45 0 77 -32t32 -77t-31 -75.5 t-78 -30.5q-43 0 -74.5 31.5t-31.5 74.5zM0 0q0 45 31.5 77t77.5 32q43 0 74.5 -32t31.5 -77t-31.5 -77t-74.5 -32q-45 0 -77 32t-32 77zM0 512q0 45 31.5 77t77.5 32q43 0 74.5 -32t31.5 -77t-30.5 -75.5t-75.5 -30.5q-43 0 -76 30.5t-33 75.5zM256 768q0 45 31.5 77 t77.5 32q43 0 74.5 -32t31.5 -77t-30.5 -75.5t-75.5 -30.5q-43 0 -76 30.5t-33 75.5zM512 1024q0 45 31.5 77t77.5 32q43 0 74.5 -32t31.5 -77t-30.5 -75.5t-75.5 -30.5q-43 0 -76 30.5t-33 75.5zM768 1024q0 45 31.5 77t77.5 32q43 0 74.5 -32t31.5 -77t-30.5 -75.5 t-75.5 -30.5q-43 0 -76 30.5t-33 75.5z" />
<glyph unicode="s" d="M-2 0q0 45 31.5 77t74.5 32q45 0 77 -32t32 -77t-31.5 -77t-77.5 -32q-43 0 -74.5 32t-31.5 77zM0 768q0 45 32 77t77 32q43 0 74.5 -32t31.5 -77t-30.5 -75.5t-75.5 -30.5q-43 0 -76 30.5t-33 75.5zM256 0q0 45 32 77t77 32q43 0 74.5 -32t31.5 -77t-31.5 -77t-74.5 -32 q-45 0 -77 32t-32 77zM256 512q0 45 32 77t77 32q43 0 74.5 -32t31.5 -77t-30.5 -75.5t-75.5 -30.5q-43 0 -76 30.5t-33 75.5zM256 1024q0 45 32 77t77 32q43 0 74.5 -32t31.5 -77t-30.5 -75.5t-75.5 -30.5q-43 0 -76 30.5t-33 75.5zM512 0q0 45 32 77t77 32q43 0 74.5 -32 t31.5 -77t-31.5 -77t-74.5 -32q-45 0 -77 32t-32 77zM512 512q0 45 32 77t77 32q43 0 74.5 -32t31.5 -77t-30.5 -75.5t-75.5 -30.5q-43 0 -76 30.5t-33 75.5zM512 1024q0 45 32 77t77 32q43 0 74.5 -32t31.5 -77t-30.5 -75.5t-75.5 -30.5q-43 0 -76 30.5t-33 75.5zM768 0 q0 45 32 77t77 32q43 0 74.5 -32t31.5 -77t-31.5 -77t-74.5 -32q-45 0 -77 32t-32 77zM768 512q0 45 32 77t77 32q43 0 74.5 -32t31.5 -77t-30.5 -75.5t-75.5 -30.5q-43 0 -76 30.5t-33 75.5zM768 1024q0 45 32 77t77 32q43 0 74.5 -32t31.5 -77t-30.5 -75.5t-75.5 -30.5 q-43 0 -76 30.5t-33 75.5zM1024 256q0 45 32 77t77 32q43 0 74.5 -32t31.5 -77t-30.5 -75.5t-75.5 -30.5q-43 0 -76 30.5t-33 75.5zM1026 1024q0 45 32 77t77 32t75.5 -31t30.5 -78q0 -45 -30.5 -75.5t-75.5 -30.5q-43 0 -76 30.5t-33 75.5z" />
<glyph unicode="t" d="M0 1024q0 45 32 77t77 32q43 0 74.5 -32t31.5 -77t-30.5 -75.5t-75.5 -30.5q-43 0 -76 30.5t-33 75.5zM254 512q0 45 31.5 77t74.5 32q45 0 77 -32t32 -77t-30.5 -75.5t-78.5 -30.5q-43 0 -74.5 31.5t-31.5 74.5zM256 256q0 45 32 77t77 32q43 0 74.5 -32t31.5 -77 t-30.5 -75.5t-75.5 -30.5q-43 0 -76 30.5t-33 75.5zM256 768q0 45 32 77t77 32q43 0 74.5 -32t31.5 -77t-30.5 -75.5t-75.5 -30.5q-43 0 -76 30.5t-33 75.5zM256 1024q0 45 32 77t77 32q43 0 74.5 -32t31.5 -77t-30.5 -75.5t-75.5 -30.5q-43 0 -76 30.5t-33 75.5zM256 1280 q0 45 32 77t77 32q43 0 74.5 -32t31.5 -77t-30.5 -75.5t-75.5 -30.5q-43 0 -76 30.5t-33 75.5zM256 1536q0 45 32 77t77 32q43 0 74.5 -32t31.5 -77t-30.5 -75.5t-75.5 -30.5q-43 0 -76 30.5t-33 75.5zM385 0q0 43 31 76t76 33t76.5 -32t31.5 -77t-31.5 -77t-76.5 -32 t-76 31t-31 78zM512 1024q0 45 32 77t77 32q43 0 74.5 -32t31.5 -77t-30.5 -75.5t-75.5 -30.5q-43 0 -76 30.5t-33 75.5zM641 0q0 43 31 76t76 33t76.5 -32t31.5 -77t-31.5 -77t-76.5 -32t-76 31t-31 78z" />
<glyph unicode="u" d="M-2 512q0 45 31.5 77t74.5 32q45 0 77 -32t32 -77t-30.5 -75.5t-78.5 -30.5q-43 0 -74.5 31.5t-31.5 74.5zM0 256q0 45 32 77t77 32q43 0 74.5 -32t31.5 -77t-30.5 -75.5t-75.5 -30.5q-43 0 -76 30.5t-33 75.5zM0 768q0 45 32 77t77 32q43 0 74.5 -32t31.5 -77 t-30.5 -75.5t-75.5 -30.5q-43 0 -76 30.5t-33 75.5zM0 1024q0 45 32 77t77 32q43 0 74.5 -32t31.5 -77t-30.5 -75.5t-75.5 -30.5q-43 0 -76 30.5t-33 75.5zM256 0q0 45 32 77t77 32q43 0 74.5 -32t31.5 -77t-31.5 -77t-74.5 -32q-45 0 -77 32t-32 77zM512 0q0 45 32 77 t77 32q43 0 74.5 -32t31.5 -77t-31.5 -77t-74.5 -32q-45 0 -77 32t-32 77zM768 256q0 45 32 77t77 32q43 0 74.5 -32t31.5 -77t-30.5 -75.5t-75.5 -30.5q-43 0 -76 30.5t-33 75.5zM1024 512q0 45 32 77t77 32q43 0 74.5 -32t31.5 -77t-30.5 -75.5t-75.5 -30.5 q-43 0 -76 30.5t-33 75.5zM1024 1024q0 45 32 77t77 32q43 0 74.5 -32t31.5 -77t-30.5 -75.5t-75.5 -30.5q-43 0 -76 30.5t-33 75.5zM1026 0q0 45 32 77t77 32t75.5 -31t30.5 -78q0 -43 -30.5 -76t-75.5 -33t-77 32t-32 77zM1026 256q0 45 32 77t77 32t75.5 -31t30.5 -78 q0 -45 -30.5 -75.5t-75.5 -30.5q-43 0 -76 30.5t-33 75.5zM1026 768q0 45 32 77t77 32t75.5 -31t30.5 -78q0 -45 -30.5 -75.5t-75.5 -30.5q-43 0 -76 30.5t-33 75.5z" />
<glyph unicode="v" d="M0 1024q0 45 32 77t77 32q43 0 74.5 -32t31.5 -77t-30.5 -75.5t-75.5 -30.5q-43 0 -76 30.5t-33 75.5zM129 768q0 43 31 76t76 33t76.5 -32t31.5 -77t-30.5 -75.5t-77.5 -30.5q-45 0 -76 30.5t-31 75.5zM254 512q0 45 31.5 77t74.5 32q45 0 77 -32t32 -77t-30.5 -75.5 t-78.5 -30.5q-43 0 -74.5 31.5t-31.5 74.5zM385 256q0 43 31 76t76 33t76.5 -32t31.5 -77t-30.5 -75.5t-77.5 -30.5q-45 0 -76 30.5t-31 75.5zM512 0q0 45 32 77t77 32q43 0 74.5 -32t31.5 -77t-31.5 -77t-74.5 -32q-45 0 -77 32t-32 77zM641 256q0 43 31 76t76 33t76.5 -32 t31.5 -77t-30.5 -75.5t-77.5 -30.5q-45 0 -76 30.5t-31 75.5zM768 512q0 45 32 77t77 32q43 0 74.5 -32t31.5 -77t-30.5 -75.5t-75.5 -30.5q-43 0 -76 30.5t-33 75.5zM899 768q0 45 32 77t75 32q45 0 76.5 -32t31.5 -77t-30.5 -75.5t-77.5 -30.5q-43 0 -75 31.5t-32 74.5z M1024 1024q0 45 32 77t77 32q43 0 74.5 -32t31.5 -77t-30.5 -75.5t-75.5 -30.5q-43 0 -76 30.5t-33 75.5z" />
<glyph unicode="w" d="M0 256q0 45 32 77t77 32q43 0 74.5 -32t31.5 -77t-30.5 -75.5t-75.5 -30.5q-43 0 -76 30.5t-33 75.5zM0 768q0 45 32 77t77 32q43 0 74.5 -32t31.5 -77t-30.5 -75.5t-75.5 -30.5q-43 0 -76 30.5t-33 75.5zM2 512q0 45 32 77t77 32t75.5 -31t30.5 -78q0 -45 -30.5 -75.5 t-75.5 -30.5q-43 0 -76 30.5t-33 75.5zM2 1024q0 45 32 77t77 32t75.5 -31t30.5 -78q0 -45 -30.5 -75.5t-75.5 -30.5q-43 0 -76 30.5t-33 75.5zM258 0q0 45 32 77t77 32q47 0 81 -32q27 -26 27 -60q0 -8 -2 -17q-8 -43 -36.5 -76t-69.5 -33q-45 0 -77 32t-32 77zM512 256 q0 45 32 77t77 32q43 0 74.5 -32t31.5 -77t-30.5 -75.5t-75.5 -30.5q-43 0 -76 30.5t-33 75.5zM512 768q0 45 32 77t77 32q43 0 74.5 -32t31.5 -77t-30.5 -75.5t-75.5 -30.5q-43 0 -76 30.5t-33 75.5zM514 512q0 45 32 77t77 32t75.5 -31t30.5 -78q0 -45 -30.5 -75.5 t-75.5 -30.5q-43 0 -76 30.5t-33 75.5zM514 1024q0 45 32 77t77 32t75.5 -31t30.5 -78q0 -45 -30.5 -75.5t-75.5 -30.5q-43 0 -76 30.5t-33 75.5zM770 0q0 45 32 77t77 32t75.5 -31t30.5 -78q0 -43 -30.5 -76t-75.5 -33t-77 32t-32 77zM1026 256q0 45 32 77t77 32t75.5 -31 t30.5 -78q0 -45 -30.5 -75.5t-75.5 -30.5q-43 0 -76 30.5t-33 75.5zM1026 768q0 45 32 77t77 32t75.5 -31t30.5 -78q0 -45 -30.5 -75.5t-75.5 -30.5q-43 0 -76 30.5t-33 75.5zM1026 1024q0 45 32 77t77 32t75.5 -31t30.5 -78q0 -45 -30.5 -75.5t-75.5 -30.5q-43 0 -76 30.5 t-33 75.5zM1030 512q0 43 31 76t76 33t76.5 -32t31.5 -77t-30.5 -75.5t-77.5 -30.5q-45 0 -76 30.5t-31 75.5z" />
<glyph unicode="x" d="M0 0q0 45 32 77t77 32q43 0 74.5 -32t31.5 -77t-31.5 -77t-74.5 -32q-45 0 -77 32t-32 77zM0 1024q0 45 32 77t77 32q43 0 74.5 -32t31.5 -77t-30.5 -75.5t-75.5 -30.5q-43 0 -76 30.5t-33 75.5zM256 256q0 45 32 77t77 32q43 0 74.5 -32t31.5 -77t-30.5 -75.5 t-75.5 -30.5q-43 0 -76 30.5t-33 75.5zM256 768q0 45 32 77t77 32q43 0 74.5 -32t31.5 -77t-30.5 -75.5t-75.5 -30.5q-43 0 -76 30.5t-33 75.5zM510 512q0 45 31.5 77t74.5 32q45 0 77 -32t32 -77t-30.5 -75.5t-78.5 -30.5q-43 0 -74.5 31.5t-31.5 74.5zM768 256q0 45 32 77 t77 32q43 0 74.5 -32t31.5 -77t-30.5 -75.5t-75.5 -30.5q-43 0 -76 30.5t-33 75.5zM770 768q0 45 32 77t77 32t75.5 -31t30.5 -78q0 -45 -30.5 -75.5t-75.5 -30.5q-43 0 -76 30.5t-33 75.5zM1024 0q0 45 32 77t77 32q43 0 74.5 -32t31.5 -77t-31.5 -77t-74.5 -32 q-45 0 -77 32t-32 77zM1024 1024q0 45 32 77t77 32q43 0 74.5 -32t31.5 -77t-30.5 -75.5t-75.5 -30.5q-43 0 -76 30.5t-33 75.5z" />
<glyph unicode="y" d="M-2 512q0 45 31.5 77t74.5 32q45 0 77 -32t32 -77t-30.5 -75.5t-78.5 -30.5q-43 0 -74.5 31.5t-31.5 74.5zM0 256q0 45 32 77t77 32q43 0 74.5 -32t31.5 -77t-30.5 -75.5t-75.5 -30.5q-43 0 -76 30.5t-33 75.5zM0 768q0 45 32 77t77 32q43 0 74.5 -32t31.5 -77 t-30.5 -75.5t-75.5 -30.5q-43 0 -76 30.5t-33 75.5zM0 1024q0 45 32 77t77 32q43 0 74.5 -32t31.5 -77t-30.5 -75.5t-75.5 -30.5q-43 0 -76 30.5t-33 75.5zM256 0q0 45 32 77t77 32q43 0 74.5 -32t31.5 -77t-31.5 -77t-74.5 -32q-45 0 -77 32t-32 77zM256 -512q0 45 31 75.5 t78 30.5q43 0 74.5 -31.5t31.5 -74.5q0 -45 -31.5 -77t-74.5 -32q-45 0 -77 32t-32 77zM512 0q0 45 32 77t77 32q43 0 74.5 -32t31.5 -77t-31.5 -77t-74.5 -32q-45 0 -77 32t-32 77zM512 -512q0 45 31 75.5t78 30.5q43 0 74.5 -31.5t31.5 -74.5q0 -45 -31.5 -77t-74.5 -32 q-45 0 -77 32t-32 77zM768 256q0 45 32 77t77 32q43 0 74.5 -32t31.5 -77t-30.5 -75.5t-75.5 -30.5q-43 0 -76 30.5t-33 75.5zM768 -512q0 45 31 75.5t78 30.5q43 0 74.5 -31.5t31.5 -74.5q0 -45 -31.5 -77t-74.5 -32q-45 0 -77 32t-32 77zM1024 512q0 45 32 77t77 32 q43 0 74.5 -32t31.5 -77t-30.5 -75.5t-75.5 -30.5q-43 0 -76 30.5t-33 75.5zM1026 0q0 45 32 77t77 32t75.5 -31t30.5 -78q0 -43 -30.5 -76t-75.5 -33t-77 32t-32 77zM1026 256q0 45 32 77t77 32t75.5 -31t30.5 -78q0 -45 -30.5 -75.5t-75.5 -30.5q-43 0 -76 30.5t-33 75.5z M1026 -256q0 45 31 75.5t78 30.5q45 0 75.5 -30.5t30.5 -75.5q0 -43 -30.5 -76t-75.5 -33t-77 32t-32 77zM1026 768q0 45 32 77t77 32t75.5 -31t30.5 -78q0 -45 -30.5 -75.5t-75.5 -30.5q-43 0 -76 30.5t-33 75.5zM1026 1024q0 45 32 77t77 32t75.5 -31t30.5 -78 q0 -45 -30.5 -75.5t-75.5 -30.5q-43 0 -76 30.5t-33 75.5z" />
<glyph unicode="z" d="M-6 0q0 45 31.5 77t76.5 32t77 -32t32 -77t-32 -77t-77 -32t-76.5 32t-31.5 77zM-6 1024q0 45 31.5 77t76.5 32t77 -32t32 -77t-30.5 -75.5t-78.5 -30.5q-43 0 -75.5 30.5t-32.5 75.5zM252 256q0 43 30.5 76t75.5 33t77 -32t32 -77t-30.5 -75.5t-78.5 -30.5 q-45 0 -75.5 30.5t-30.5 75.5zM256 0q0 45 32 77t77 32q43 0 74.5 -32t31.5 -77t-31.5 -77t-74.5 -32q-45 0 -77 32t-32 77zM256 1024q0 45 32 77t77 32q43 0 74.5 -32t31.5 -77t-30.5 -75.5t-75.5 -30.5q-43 0 -76 30.5t-33 75.5zM508 512q0 43 30.5 76t75.5 33t77 -32 t32 -77t-30.5 -75.5t-78.5 -30.5q-45 0 -75.5 30.5t-30.5 75.5zM512 0q0 45 32 77t77 32q43 0 74.5 -32t31.5 -77t-31.5 -77t-74.5 -32q-45 0 -77 32t-32 77zM512 1024q0 45 32 77t77 32q43 0 74.5 -32t31.5 -77t-30.5 -75.5t-75.5 -30.5q-43 0 -76 30.5t-33 75.5zM764 768 q0 43 30.5 76t75.5 33t77 -32t32 -77t-30.5 -75.5t-78.5 -30.5q-45 0 -75.5 30.5t-30.5 75.5zM768 1024q0 45 32 77t77 32q43 0 74.5 -32t31.5 -77t-30.5 -75.5t-75.5 -30.5q-43 0 -76 30.5t-33 75.5zM770 0q0 45 32 77t77 32t75.5 -31t30.5 -78q0 -43 -30.5 -76t-75.5 -33 t-77 32t-32 77zM1020 0q0 43 30.5 76t75.5 33t77 -32t32 -77t-32 -77t-77 -32t-75.5 31t-30.5 78zM1020 1024q0 43 30.5 76t75.5 33t77 -32t32 -77t-30.5 -75.5t-78.5 -30.5q-45 0 -75.5 30.5t-30.5 75.5z" />
<glyph unicode="{" d="M0 768q0 45 32 77t77 32q43 0 74.5 -32t31.5 -77t-30.5 -75.5t-75.5 -30.5q-43 0 -76 30.5t-33 75.5zM254 512q0 45 31.5 77t74.5 32q45 0 77 -32t32 -77t-30.5 -75.5t-78.5 -30.5q-43 0 -74.5 31.5t-31.5 74.5zM256 256q0 45 32 77t77 32q43 0 74.5 -32t31.5 -77 t-30.5 -75.5t-75.5 -30.5q-43 0 -76 30.5t-33 75.5zM256 1024q0 45 32 77t77 32q43 0 74.5 -32t31.5 -77t-30.5 -75.5t-75.5 -30.5q-43 0 -76 30.5t-33 75.5zM256 1280q0 45 32 77t77 32q43 0 74.5 -32t31.5 -77t-30.5 -75.5t-75.5 -30.5q-43 0 -76 30.5t-33 75.5zM512 0 q0 45 32 77t77 32q43 0 74.5 -32t31.5 -77t-31.5 -77t-74.5 -32q-45 0 -77 32t-32 77zM512 1536q0 45 32 77t77 32q43 0 74.5 -32t31.5 -77t-30.5 -75.5t-75.5 -30.5q-43 0 -76 30.5t-33 75.5z" />
<glyph unicode="|" d="M510 512q0 45 31.5 77t74.5 32q45 0 77 -32t32 -77t-30.5 -75.5t-78.5 -30.5q-43 0 -74.5 31.5t-31.5 74.5zM512 0q0 45 32 77t77 32q43 0 74.5 -32t31.5 -77t-31.5 -77t-74.5 -32q-45 0 -77 32t-32 77zM512 -256q0 45 31 75.5t78 30.5q43 0 74.5 -31.5t31.5 -74.5 q0 -45 -31.5 -77t-74.5 -32q-45 0 -77 32t-32 77zM512 256q0 45 32 77t77 32q43 0 74.5 -32t31.5 -77t-30.5 -75.5t-75.5 -30.5q-43 0 -76 30.5t-33 75.5zM512 -512q0 45 31 75.5t78 30.5q43 0 74.5 -31.5t31.5 -74.5q0 -45 -31.5 -77t-74.5 -32q-45 0 -77 32t-32 77z M512 768q0 45 32 77t77 32q43 0 74.5 -32t31.5 -77t-30.5 -75.5t-75.5 -30.5q-43 0 -76 30.5t-33 75.5zM512 1024q0 45 32 77t77 32q43 0 74.5 -32t31.5 -77t-30.5 -75.5t-75.5 -30.5q-43 0 -76 30.5t-33 75.5zM512 1280q0 45 32 77t77 32q43 0 74.5 -32t31.5 -77 t-30.5 -75.5t-75.5 -30.5q-43 0 -76 30.5t-33 75.5zM512 1536q0 45 32 77t77 32q43 0 74.5 -32t31.5 -77t-30.5 -75.5t-75.5 -30.5q-43 0 -76 30.5t-33 75.5z" />
<glyph unicode="}" d="M512 0q0 45 32 77t77 32q43 0 74.5 -32t31.5 -77t-31.5 -77t-74.5 -32q-45 0 -77 32t-32 77zM512 1536q0 45 32 77t77 32q43 0 74.5 -32t31.5 -77t-30.5 -75.5t-75.5 -30.5q-43 0 -76 30.5t-33 75.5zM768 256q0 45 32 77t77 32q43 0 74.5 -32t31.5 -77t-30.5 -75.5 t-75.5 -30.5q-43 0 -76 30.5t-33 75.5zM768 1024q0 45 32 77t77 32q43 0 74.5 -32t31.5 -77t-30.5 -75.5t-75.5 -30.5q-43 0 -76 30.5t-33 75.5zM768 1280q0 45 32 77t77 32q43 0 74.5 -32t31.5 -77t-30.5 -75.5t-75.5 -30.5q-43 0 -76 30.5t-33 75.5zM770 512q0 45 32 77 t77 32t75.5 -31t30.5 -78q0 -45 -30.5 -75.5t-75.5 -30.5q-43 0 -76 30.5t-33 75.5zM1024 768q0 45 32 77t77 32q43 0 74.5 -32t31.5 -77t-30.5 -75.5t-75.5 -30.5q-43 0 -76 30.5t-33 75.5z" />
<glyph unicode="~" d="M256 1280q0 45 32 77t77 32q43 0 74.5 -32t31.5 -77t-30.5 -75.5t-75.5 -30.5q-43 0 -76 30.5t-33 75.5zM512 1536q0 45 32 77t77 32q43 0 74.5 -32t31.5 -77t-30.5 -75.5t-75.5 -30.5q-43 0 -76 30.5t-33 75.5zM768 1280q0 45 32 77t77 32q43 0 74.5 -32t31.5 -77 t-30.5 -75.5t-75.5 -30.5q-43 0 -76 30.5t-33 75.5zM1024 1536q0 45 32 77t77 32q43 0 74.5 -32t31.5 -77t-30.5 -75.5t-75.5 -30.5q-43 0 -76 30.5t-33 75.5z" />
<glyph unicode="&#xa1;" d="M254 512q0 45 31.5 77t74.5 32q45 0 77 -32t32 -77t-30.5 -75.5t-78.5 -30.5q-43 0 -74.5 31.5t-31.5 74.5zM256 0q0 45 32 77t77 32q43 0 74.5 -32t31.5 -77t-31.5 -77t-74.5 -32q-45 0 -77 32t-32 77zM256 256q0 45 32 77t77 32q43 0 74.5 -32t31.5 -77t-30.5 -75.5 t-75.5 -30.5q-43 0 -76 30.5t-33 75.5zM256 768q0 45 32 77t77 32q43 0 74.5 -32t31.5 -77t-30.5 -75.5t-75.5 -30.5q-43 0 -76 30.5t-33 75.5zM256 1024q0 45 32 77t77 32q43 0 74.5 -32t31.5 -77t-30.5 -75.5t-75.5 -30.5q-43 0 -76 30.5t-33 75.5zM256 1536q0 45 32 77 t77 32q43 0 74.5 -32t31.5 -77t-30.5 -75.5t-75.5 -30.5q-43 0 -76 30.5t-33 75.5z" />
<glyph unicode="&#xa2;" d="M-2 512q0 45 31.5 77t74.5 32q45 0 77 -32t32 -77t-30.5 -75.5t-78.5 -30.5q-43 0 -74.5 31.5t-31.5 74.5zM0 256q0 45 32 77t77 32q43 0 74.5 -32t31.5 -77t-30.5 -75.5t-75.5 -30.5q-43 0 -76 30.5t-33 75.5zM0 768q0 45 32 77t77 32q43 0 74.5 -32t31.5 -77 t-30.5 -75.5t-75.5 -30.5q-43 0 -76 30.5t-33 75.5zM256 0q0 45 32 77t77 32q43 0 74.5 -32t31.5 -77t-31.5 -77t-74.5 -32q-45 0 -77 32t-32 77zM256 1024q0 45 32 77t77 32q43 0 74.5 -32t31.5 -77t-30.5 -75.5t-75.5 -30.5q-43 0 -76 30.5t-33 75.5zM512 0q0 45 32 77 t77 32q43 0 74.5 -32t31.5 -77t-31.5 -77t-74.5 -32q-45 0 -77 32t-32 77zM512 256q0 45 32 77t77 32q43 0 74.5 -32t31.5 -77t-30.5 -75.5t-75.5 -30.5q-43 0 -76 30.5t-33 75.5zM512 -256q0 45 31 75.5t78 30.5q43 0 74.5 -31.5t31.5 -74.5q0 -45 -31.5 -77t-74.5 -32 q-45 0 -77 32t-32 77zM512 512q0 45 32 77t77 32q43 0 74.5 -32t31.5 -77t-30.5 -75.5t-75.5 -30.5q-43 0 -76 30.5t-33 75.5zM512 768q0 45 32 77t77 32q43 0 74.5 -32t31.5 -77t-30.5 -75.5t-75.5 -30.5q-43 0 -76 30.5t-33 75.5zM512 1024q0 45 32 77t77 32 q43 0 74.5 -32t31.5 -77t-30.5 -75.5t-75.5 -30.5q-43 0 -76 30.5t-33 75.5zM512 1280q0 45 32 77t77 32q43 0 74.5 -32t31.5 -77t-30.5 -75.5t-75.5 -30.5q-43 0 -76 30.5t-33 75.5zM768 0q0 45 32 77t77 32q43 0 74.5 -32t31.5 -77t-31.5 -77t-74.5 -32q-45 0 -77 32 t-32 77zM768 1024q0 45 32 77t77 32q43 0 74.5 -32t31.5 -77t-30.5 -75.5t-75.5 -30.5q-43 0 -76 30.5t-33 75.5z" />
<glyph unicode="&#xa3;" d="M0 0q0 45 32 77t77 32q43 0 74.5 -32t31.5 -77t-31.5 -77t-74.5 -32q-45 0 -77 32t-32 77zM0 768q0 45 32 77t77 32q43 0 74.5 -32t31.5 -77t-30.5 -75.5t-75.5 -30.5q-43 0 -76 30.5t-33 75.5zM125 512q0 45 31.5 77t76.5 32t76 -31t31 -78q0 -45 -30.5 -75.5 t-76.5 -30.5q-43 0 -75.5 30.5t-32.5 75.5zM129 256q0 43 31 76t76 33t76.5 -32t31.5 -77t-30.5 -75.5t-77.5 -30.5q-45 0 -76 30.5t-31 75.5zM129 1024q0 43 31 76t76 33t76.5 -32t31.5 -77t-30.5 -75.5t-77.5 -30.5q-45 0 -76 30.5t-31 75.5zM129 1280q0 43 31 76t76 33 t76.5 -32t31.5 -77t-30.5 -75.5t-77.5 -30.5q-45 0 -76 30.5t-31 75.5zM256 0q0 45 32 77t77 32q43 0 74.5 -32t31.5 -77t-31.5 -77t-74.5 -32q-45 0 -77 32t-32 77zM256 768q0 45 32 77t77 32q43 0 74.5 -32t31.5 -77t-30.5 -75.5t-75.5 -30.5q-43 0 -76 30.5t-33 75.5z M385 1536q0 43 31 76t76 33t76.5 -32t31.5 -77t-30.5 -75.5t-77.5 -30.5q-45 0 -76 30.5t-31 75.5zM512 0q0 45 32 77t77 32q43 0 74.5 -32t31.5 -77t-31.5 -77t-74.5 -32q-45 0 -77 32t-32 77zM641 1280q0 43 31 76t76 33t76.5 -32t31.5 -77t-30.5 -75.5t-77.5 -30.5 q-45 0 -76 30.5t-31 75.5zM768 0q0 45 32 77t77 32q43 0 74.5 -32t31.5 -77t-31.5 -77t-74.5 -32q-45 0 -77 32t-32 77zM1024 0q0 45 32 77t77 32q43 0 74.5 -32t31.5 -77t-31.5 -77t-74.5 -32q-45 0 -77 32t-32 77z" />
<glyph unicode="&#xa4;" d="M-2 0q0 45 31.5 77t74.5 32q45 0 77 -32t32 -77t-31.5 -77t-77.5 -32q-43 0 -74.5 32t-31.5 77zM-2 512q0 45 31.5 77t74.5 32q45 0 77 -32t32 -77t-30.5 -75.5t-78.5 -30.5q-43 0 -74.5 31.5t-31.5 74.5zM-2 1024q0 45 31.5 77t74.5 32q45 0 77 -32t32 -77t-30.5 -75.5 t-78.5 -30.5q-43 0 -74.5 31.5t-31.5 74.5zM256 0q0 45 32 77t77 32q43 0 74.5 -32t31.5 -77t-31.5 -77t-74.5 -32q-45 0 -77 32t-32 77zM256 512q0 45 32 77t77 32q43 0 74.5 -32t31.5 -77t-30.5 -75.5t-75.5 -30.5q-43 0 -76 30.5t-33 75.5zM256 1024q0 45 32 77t77 32 q43 0 74.5 -32t31.5 -77t-30.5 -75.5t-75.5 -30.5q-43 0 -76 30.5t-33 75.5zM512 0q0 45 32 77t77 32q43 0 74.5 -32t31.5 -77t-31.5 -77t-74.5 -32q-45 0 -77 32t-32 77zM512 512q0 45 32 77t77 32q43 0 74.5 -32t31.5 -77t-30.5 -75.5t-75.5 -30.5q-43 0 -76 30.5 t-33 75.5zM512 1024q0 45 32 77t77 32q43 0 74.5 -32t31.5 -77t-30.5 -75.5t-75.5 -30.5q-43 0 -76 30.5t-33 75.5zM768 0q0 45 32 77t77 32q43 0 74.5 -32t31.5 -77t-31.5 -77t-74.5 -32q-45 0 -77 32t-32 77zM768 512q0 45 32 77t77 32q43 0 74.5 -32t31.5 -77 t-30.5 -75.5t-75.5 -30.5q-43 0 -76 30.5t-33 75.5zM768 1024q0 45 32 77t77 32q43 0 74.5 -32t31.5 -77t-30.5 -75.5t-75.5 -30.5q-43 0 -76 30.5t-33 75.5zM1022 0q0 45 31.5 77t74.5 32q45 0 77 -32t32 -77t-31.5 -77t-77.5 -32q-43 0 -74.5 32t-31.5 77zM1022 512 q0 45 31.5 77t74.5 32q45 0 77 -32t32 -77t-30.5 -75.5t-78.5 -30.5q-43 0 -74.5 31.5t-31.5 74.5zM1022 1024q0 45 31.5 77t74.5 32q45 0 77 -32t32 -77t-30.5 -75.5t-78.5 -30.5q-43 0 -74.5 31.5t-31.5 74.5z" />
<glyph unicode="&#xa5;" d="M129 1536q0 43 31 76t76 33t76.5 -32t31.5 -77t-30.5 -75.5t-77.5 -30.5q-45 0 -76 30.5t-31 75.5zM256 512q0 45 32 77t77 32q43 0 74.5 -32t31.5 -77t-30.5 -75.5t-75.5 -30.5q-43 0 -76 30.5t-33 75.5zM256 1024q0 45 32 77t77 32q43 0 74.5 -32t31.5 -77t-30.5 -75.5 t-75.5 -30.5q-43 0 -76 30.5t-33 75.5zM385 1280q0 43 31 76t76 33t76.5 -32t31.5 -77t-30.5 -75.5t-77.5 -30.5q-45 0 -76 30.5t-31 75.5zM512 0q0 45 32 77t77 32q43 0 74.5 -32t31.5 -77t-31.5 -77t-74.5 -32q-45 0 -77 32t-32 77zM512 256q0 45 32 77t77 32 q43 0 74.5 -32t31.5 -77t-30.5 -75.5t-75.5 -30.5q-43 0 -76 30.5t-33 75.5zM512 512q0 45 32 77t77 32q43 0 74.5 -32t31.5 -77t-30.5 -75.5t-75.5 -30.5q-43 0 -76 30.5t-33 75.5zM512 768q0 45 32 77t77 32q43 0 74.5 -32t31.5 -77t-30.5 -75.5t-75.5 -30.5 q-43 0 -76 30.5t-33 75.5zM512 1024q0 45 32 77t77 32q43 0 74.5 -32t31.5 -77t-30.5 -75.5t-75.5 -30.5q-43 0 -76 30.5t-33 75.5zM641 1280q0 43 31 76t76 33t76.5 -32t31.5 -77t-30.5 -75.5t-77.5 -30.5q-45 0 -76 30.5t-31 75.5zM768 512q0 45 32 77t77 32 q43 0 74.5 -32t31.5 -77t-30.5 -75.5t-75.5 -30.5q-43 0 -76 30.5t-33 75.5zM768 1024q0 45 32 77t77 32q43 0 74.5 -32t31.5 -77t-30.5 -75.5t-75.5 -30.5q-43 0 -76 30.5t-33 75.5zM897 1536q0 43 31 76t76 33t76.5 -32t31.5 -77t-30.5 -75.5t-77.5 -30.5q-45 0 -76 30.5 t-31 75.5z" />
<glyph unicode="&#xa7;" d="M129 1024q0 43 31 76t76 33t76.5 -32t31.5 -77t-30.5 -75.5t-77.5 -30.5q-45 0 -76 30.5t-31 75.5zM129 1280q0 43 31 76t76 33t76.5 -32t31.5 -77t-30.5 -75.5t-77.5 -30.5q-45 0 -76 30.5t-31 75.5zM256 0q0 45 32 77t77 32q43 0 74.5 -32t31.5 -77t-31.5 -77 t-74.5 -32q-45 0 -77 32t-32 77zM256 768q0 45 32 77t77 32q43 0 74.5 -32t31.5 -77t-30.5 -75.5t-75.5 -30.5q-43 0 -76 30.5t-33 75.5zM256 1536q0 45 32 77t77 32q43 0 74.5 -32t31.5 -77t-30.5 -75.5t-75.5 -30.5q-43 0 -76 30.5t-33 75.5zM385 512q0 43 31 76t76 33 t76.5 -32t31.5 -77t-30.5 -75.5t-77.5 -30.5q-45 0 -76 30.5t-31 75.5zM385 1024q0 43 31 76t76 33t76.5 -32t31.5 -77t-30.5 -75.5t-77.5 -30.5q-45 0 -76 30.5t-31 75.5zM512 0q0 45 32 77t77 32q43 0 74.5 -32t31.5 -77t-31.5 -77t-74.5 -32q-45 0 -77 32t-32 77z M512 1536q0 45 32 77t77 32q43 0 74.5 -32t31.5 -77t-30.5 -75.5t-75.5 -30.5q-43 0 -76 30.5t-33 75.5zM641 512q0 43 31 76t76 33t76.5 -32t31.5 -77t-30.5 -75.5t-77.5 -30.5q-45 0 -76 30.5t-31 75.5zM641 1024q0 43 31 76t76 33t76.5 -32t31.5 -77t-30.5 -75.5 t-77.5 -30.5q-45 0 -76 30.5t-31 75.5zM768 0q0 45 32 77t77 32q43 0 74.5 -32t31.5 -77t-31.5 -77t-74.5 -32q-45 0 -77 32t-32 77zM768 768q0 45 32 77t77 32q43 0 74.5 -32t31.5 -77t-30.5 -75.5t-75.5 -30.5q-43 0 -76 30.5t-33 75.5zM768 1536q0 45 32 77t77 32 q43 0 74.5 -32t31.5 -77t-30.5 -75.5t-75.5 -30.5q-43 0 -76 30.5t-33 75.5zM897 256q0 43 31 76t76 33t76.5 -32t31.5 -77t-30.5 -75.5t-77.5 -30.5q-45 0 -76 30.5t-31 75.5zM897 512q0 43 31 76t76 33t76.5 -32t31.5 -77t-30.5 -75.5t-77.5 -30.5q-45 0 -76 30.5 t-31 75.5z" />
<glyph unicode="&#xa8;" d="M256 1536q0 45 32 77t77 32q43 0 74.5 -32t31.5 -77t-30.5 -75.5t-75.5 -30.5q-43 0 -76 30.5t-33 75.5zM768 1536q0 45 32 77t77 32q43 0 74.5 -32t31.5 -77t-30.5 -75.5t-75.5 -30.5q-43 0 -76 30.5t-33 75.5z" />
<glyph unicode="&#xa9;" d="M0 0q0 45 32 77t77 32q43 0 74.5 -32t31.5 -77t-31.5 -77t-74.5 -32q-45 0 -77 32t-32 77zM0 -512q0 45 31 75.5t78 30.5q43 0 74.5 -31.5t31.5 -74.5q0 -45 -31.5 -77t-74.5 -32q-45 0 -77 32t-32 77zM0 1024q0 45 32 77t77 32q43 0 74.5 -32t31.5 -77t-30.5 -75.5 t-75.5 -30.5q-43 0 -76 30.5t-33 75.5zM0 1536q0 45 32 77t77 32q43 0 74.5 -32t31.5 -77t-30.5 -75.5t-75.5 -30.5q-43 0 -76 30.5t-33 75.5zM2 512q0 45 32 77t77 32t75.5 -31t30.5 -78q0 -45 -30.5 -75.5t-75.5 -30.5q-43 0 -76 30.5t-33 75.5zM256 -256q0 45 31 75.5 t78 30.5q43 0 74.5 -31.5t31.5 -74.5q0 -45 -31.5 -77t-74.5 -32q-45 0 -77 32t-32 77zM256 256q0 45 32 77t77 32q43 0 74.5 -32t31.5 -77t-30.5 -75.5t-75.5 -30.5q-43 0 -76 30.5t-33 75.5zM256 768q0 45 32 77t77 32q43 0 74.5 -32t31.5 -77t-30.5 -75.5t-75.5 -30.5 q-43 0 -76 30.5t-33 75.5zM256 1280q0 45 32 77t77 32q43 0 74.5 -32t31.5 -77t-30.5 -75.5t-75.5 -30.5q-43 0 -76 30.5t-33 75.5zM512 0q0 45 32 77t77 32q43 0 74.5 -32t31.5 -77t-31.5 -77t-74.5 -32q-45 0 -77 32t-32 77zM512 -512q0 45 31 75.5t78 30.5 q43 0 74.5 -31.5t31.5 -74.5q0 -45 -31.5 -77t-74.5 -32q-45 0 -77 32t-32 77zM512 1024q0 45 32 77t77 32q43 0 74.5 -32t31.5 -77t-30.5 -75.5t-75.5 -30.5q-43 0 -76 30.5t-33 75.5zM512 1536q0 45 32 77t77 32q43 0 74.5 -32t31.5 -77t-30.5 -75.5t-75.5 -30.5 q-43 0 -76 30.5t-33 75.5zM514 512q0 45 32 77t77 32t75.5 -31t30.5 -78q0 -45 -30.5 -75.5t-75.5 -30.5q-43 0 -76 30.5t-33 75.5zM768 256q0 45 32 77t77 32q43 0 74.5 -32t31.5 -77t-30.5 -75.5t-75.5 -30.5q-43 0 -76 30.5t-33 75.5zM768 -256q0 45 31 75.5t78 30.5 q43 0 74.5 -31.5t31.5 -74.5q0 -45 -31.5 -77t-74.5 -32q-45 0 -77 32t-32 77zM768 768q0 45 32 77t77 32q43 0 74.5 -32t31.5 -77t-30.5 -75.5t-75.5 -30.5q-43 0 -76 30.5t-33 75.5zM768 1280q0 45 32 77t77 32q43 0 74.5 -32t31.5 -77t-30.5 -75.5t-75.5 -30.5 q-43 0 -76 30.5t-33 75.5zM1024 0q0 45 32 77t77 32q43 0 74.5 -32t31.5 -77t-31.5 -77t-74.5 -32q-45 0 -77 32t-32 77zM1024 -512q0 45 31 75.5t78 30.5q43 0 74.5 -31.5t31.5 -74.5q0 -45 -31.5 -77t-74.5 -32q-45 0 -77 32t-32 77zM1024 1024q0 45 32 77t77 32 q43 0 74.5 -32t31.5 -77t-30.5 -75.5t-75.5 -30.5q-43 0 -76 30.5t-33 75.5zM1024 1536q0 45 32 77t77 32q43 0 74.5 -32t31.5 -77t-30.5 -75.5t-75.5 -30.5q-43 0 -76 30.5t-33 75.5zM1026 512q0 45 32 77t77 32t75.5 -31t30.5 -78q0 -45 -30.5 -75.5t-75.5 -30.5 q-43 0 -76 30.5t-33 75.5zM1280 256q0 45 32 77t77 32q43 0 74.5 -32t31.5 -77t-30.5 -75.5t-75.5 -30.5q-43 0 -76 30.5t-33 75.5zM1280 -256q0 45 31 75.5t78 30.5q43 0 74.5 -31.5t31.5 -74.5q0 -45 -31.5 -77t-74.5 -32q-45 0 -77 32t-32 77zM1280 768q0 45 32 77t77 32 q43 0 74.5 -32t31.5 -77t-30.5 -75.5t-75.5 -30.5q-43 0 -76 30.5t-33 75.5zM1280 1280q0 45 32 77t77 32q43 0 74.5 -32t31.5 -77t-30.5 -75.5t-75.5 -30.5q-43 0 -76 30.5t-33 75.5z" />
<glyph unicode="&#xaa;" d="M-2 512q0 45 31.5 77t74.5 32q45 0 77 -32t32 -77t-30.5 -75.5t-78.5 -30.5q-43 0 -74.5 31.5t-31.5 74.5zM129 1280q0 43 31 76t76 33t76.5 -32t31.5 -77t-30.5 -75.5t-77.5 -30.5q-45 0 -76 30.5t-31 75.5zM256 512q0 45 32 77t77 32q43 0 74.5 -32t31.5 -77 t-30.5 -75.5t-75.5 -30.5q-43 0 -76 30.5t-33 75.5zM256 1024q0 45 32 77t77 32q43 0 74.5 -32t31.5 -77t-30.5 -75.5t-75.5 -30.5q-43 0 -76 30.5t-33 75.5zM256 1536q0 45 32 77t77 32q43 0 74.5 -32t31.5 -77t-30.5 -75.5t-75.5 -30.5q-43 0 -76 30.5t-33 75.5zM512 512 q0 45 32 77t77 32q43 0 74.5 -32t31.5 -77t-30.5 -75.5t-75.5 -30.5q-43 0 -76 30.5t-33 75.5zM512 1536q0 45 32 77t77 32q43 0 74.5 -32t31.5 -77t-30.5 -75.5t-75.5 -30.5q-43 0 -76 30.5t-33 75.5zM641 1024q0 43 31 76t76 33t76.5 -32t31.5 -77t-30.5 -75.5 t-77.5 -30.5q-45 0 -76 30.5t-31 75.5zM641 1280q0 43 31 76t76 33t76.5 -32t31.5 -77t-30.5 -75.5t-77.5 -30.5q-45 0 -76 30.5t-31 75.5zM768 512q0 45 32 77t77 32q43 0 74.5 -32t31.5 -77t-30.5 -75.5t-75.5 -30.5q-43 0 -76 30.5t-33 75.5z" />
<glyph unicode="&#xab;" d="M0 768q0 45 32 77t77 32q43 0 74.5 -32t31.5 -77t-30.5 -75.5t-75.5 -30.5q-43 0 -76 30.5t-33 75.5zM129 512q0 43 31 76t76 33t76.5 -32t31.5 -77t-30.5 -75.5t-77.5 -30.5q-45 0 -76 30.5t-31 75.5zM129 1024q0 43 31 76t76 33t76.5 -32t31.5 -77t-30.5 -75.5 t-77.5 -30.5q-45 0 -76 30.5t-31 75.5zM256 256q0 45 32 77t77 32q43 0 74.5 -32t31.5 -77t-30.5 -75.5t-75.5 -30.5q-43 0 -76 30.5t-33 75.5zM256 1280q0 45 32 77t77 32q43 0 74.5 -32t31.5 -77t-30.5 -75.5t-75.5 -30.5q-43 0 -76 30.5t-33 75.5zM385 768q0 43 31 76 t76 33t76.5 -32t31.5 -77t-30.5 -75.5t-77.5 -30.5q-45 0 -76 30.5t-31 75.5zM512 512q0 45 32 77t77 32q43 0 74.5 -32t31.5 -77t-30.5 -75.5t-75.5 -30.5q-43 0 -76 30.5t-33 75.5zM512 1024q0 45 32 77t77 32q43 0 74.5 -32t31.5 -77t-30.5 -75.5t-75.5 -30.5 q-43 0 -76 30.5t-33 75.5zM641 256q0 43 31 76t76 33t76.5 -32t31.5 -77t-30.5 -75.5t-77.5 -30.5q-45 0 -76 30.5t-31 75.5zM641 1280q0 43 31 76t76 33t76.5 -32t31.5 -77t-30.5 -75.5t-77.5 -30.5q-45 0 -76 30.5t-31 75.5z" />
<glyph unicode="&#xac;" d="M-2 768q0 45 31.5 77t74.5 32q45 0 77 -32t32 -77t-30.5 -75.5t-78.5 -30.5q-43 0 -74.5 31.5t-31.5 74.5zM256 768q0 45 32 77t77 32q43 0 74.5 -32t31.5 -77t-30.5 -75.5t-75.5 -30.5q-43 0 -76 30.5t-33 75.5zM512 768q0 45 32 77t77 32q43 0 74.5 -32t31.5 -77 t-30.5 -75.5t-75.5 -30.5q-43 0 -76 30.5t-33 75.5zM768 768q0 45 32 77t77 32q43 0 74.5 -32t31.5 -77t-30.5 -75.5t-75.5 -30.5q-43 0 -76 30.5t-33 75.5zM1022 512q0 45 31.5 77t74.5 32q45 0 77 -32t32 -77t-30.5 -75.5t-78.5 -30.5q-43 0 -74.5 31.5t-31.5 74.5z M1022 768q0 45 31.5 77t74.5 32q45 0 77 -32t32 -77t-30.5 -75.5t-78.5 -30.5q-43 0 -74.5 31.5t-31.5 74.5z" />
<glyph unicode="&#xad;" d="M-2 512q0 45 31.5 77t74.5 32q45 0 77 -32t32 -77t-30.5 -75.5t-78.5 -30.5q-43 0 -74.5 31.5t-31.5 74.5zM256 512q0 45 32 77t77 32q43 0 74.5 -32t31.5 -77t-30.5 -75.5t-75.5 -30.5q-43 0 -76 30.5t-33 75.5zM512 512q0 45 32 77t77 32q43 0 74.5 -32t31.5 -77 t-30.5 -75.5t-75.5 -30.5q-43 0 -76 30.5t-33 75.5zM768 512q0 45 32 77t77 32q43 0 74.5 -32t31.5 -77t-30.5 -75.5t-75.5 -30.5q-43 0 -76 30.5t-33 75.5zM1022 512q0 45 31.5 77t74.5 32q45 0 77 -32t32 -77t-30.5 -75.5t-78.5 -30.5q-43 0 -74.5 31.5t-31.5 74.5z" />
<glyph unicode="&#xae;" d="M0 0q0 45 32 77t77 32q43 0 74.5 -32t31.5 -77t-31.5 -77t-74.5 -32q-45 0 -77 32t-32 77zM0 -512q0 45 31 75.5t78 30.5q43 0 74.5 -31.5t31.5 -74.5q0 -45 -31.5 -77t-74.5 -32q-45 0 -77 32t-32 77zM0 1024q0 45 32 77t77 32q43 0 74.5 -32t31.5 -77t-30.5 -75.5 t-75.5 -30.5q-43 0 -76 30.5t-33 75.5zM0 1536q0 45 32 77t77 32q43 0 74.5 -32t31.5 -77t-30.5 -75.5t-75.5 -30.5q-43 0 -76 30.5t-33 75.5zM2 512q0 45 32 77t77 32t75.5 -31t30.5 -78q0 -45 -30.5 -75.5t-75.5 -30.5q-43 0 -76 30.5t-33 75.5zM512 0q0 45 32 77t77 32 q43 0 74.5 -32t31.5 -77t-31.5 -77t-74.5 -32q-45 0 -77 32t-32 77zM512 -512q0 45 31 75.5t78 30.5q43 0 74.5 -31.5t31.5 -74.5q0 -45 -31.5 -77t-74.5 -32q-45 0 -77 32t-32 77zM512 1024q0 45 32 77t77 32q43 0 74.5 -32t31.5 -77t-30.5 -75.5t-75.5 -30.5 q-43 0 -76 30.5t-33 75.5zM512 1536q0 45 32 77t77 32q43 0 74.5 -32t31.5 -77t-30.5 -75.5t-75.5 -30.5q-43 0 -76 30.5t-33 75.5zM514 512q0 45 32 77t77 32t75.5 -31t30.5 -78q0 -45 -30.5 -75.5t-75.5 -30.5q-43 0 -76 30.5t-33 75.5zM1024 0q0 45 32 77t77 32 q43 0 74.5 -32t31.5 -77t-31.5 -77t-74.5 -32q-45 0 -77 32t-32 77zM1024 -512q0 45 31 75.5t78 30.5q43 0 74.5 -31.5t31.5 -74.5q0 -45 -31.5 -77t-74.5 -32q-45 0 -77 32t-32 77zM1024 1024q0 45 32 77t77 32q43 0 74.5 -32t31.5 -77t-30.5 -75.5t-75.5 -30.5 q-43 0 -76 30.5t-33 75.5zM1024 1536q0 45 32 77t77 32q43 0 74.5 -32t31.5 -77t-30.5 -75.5t-75.5 -30.5q-43 0 -76 30.5t-33 75.5zM1026 512q0 45 32 77t77 32t75.5 -31t30.5 -78q0 -45 -30.5 -75.5t-75.5 -30.5q-43 0 -76 30.5t-33 75.5z" />
<glyph unicode="&#xb0;" d="M129 1280q0 43 31 76t76 33t76.5 -32t31.5 -77t-30.5 -75.5t-77.5 -30.5q-45 0 -76 30.5t-31 75.5zM256 1024q0 45 32 77t77 32q43 0 74.5 -32t31.5 -77t-30.5 -75.5t-75.5 -30.5q-43 0 -76 30.5t-33 75.5zM256 1536q0 45 32 77t77 32q43 0 74.5 -32t31.5 -77 t-30.5 -75.5t-75.5 -30.5q-43 0 -76 30.5t-33 75.5zM512 1024q0 45 32 77t77 32q43 0 74.5 -32t31.5 -77t-30.5 -75.5t-75.5 -30.5q-43 0 -76 30.5t-33 75.5zM512 1536q0 45 32 77t77 32q43 0 74.5 -32t31.5 -77t-30.5 -75.5t-75.5 -30.5q-43 0 -76 30.5t-33 75.5zM641 1280 q0 43 31 76t76 33t76.5 -32t31.5 -77t-30.5 -75.5t-77.5 -30.5q-45 0 -76 30.5t-31 75.5z" />
<glyph unicode="&#xb1;" d="M-2 0q0 45 31.5 77t74.5 32q45 0 77 -32t32 -77t-31.5 -77t-77.5 -32q-43 0 -74.5 32t-31.5 77zM-2 768q0 45 31.5 77t74.5 32q45 0 77 -32t32 -77t-30.5 -75.5t-78.5 -30.5q-43 0 -74.5 31.5t-31.5 74.5zM256 0q0 45 32 77t77 32q43 0 74.5 -32t31.5 -77t-31.5 -77 t-74.5 -32q-45 0 -77 32t-32 77zM256 768q0 45 32 77t77 32q43 0 74.5 -32t31.5 -77t-30.5 -75.5t-75.5 -30.5q-43 0 -76 30.5t-33 75.5zM510 0q0 45 31.5 77t74.5 32q45 0 77 -32t32 -77t-31.5 -77t-77.5 -32q-43 0 -74.5 32t-31.5 77zM510 1280q0 45 31.5 77t74.5 32 q45 0 77 -32t32 -77t-30.5 -75.5t-78.5 -30.5q-43 0 -74.5 31.5t-31.5 74.5zM512 256q0 45 32 77t77 32q43 0 74.5 -32t31.5 -77t-30.5 -75.5t-75.5 -30.5q-43 0 -76 30.5t-33 75.5zM512 512q0 45 32 77t77 32q43 0 74.5 -32t31.5 -77t-30.5 -75.5t-75.5 -30.5 q-43 0 -76 30.5t-33 75.5zM512 768q0 45 32 77t77 32q43 0 74.5 -32t31.5 -77t-30.5 -75.5t-75.5 -30.5q-43 0 -76 30.5t-33 75.5zM512 1024q0 45 32 77t77 32q43 0 74.5 -32t31.5 -77t-30.5 -75.5t-75.5 -30.5q-43 0 -76 30.5t-33 75.5zM768 0q0 45 32 77t77 32 q43 0 74.5 -32t31.5 -77t-31.5 -77t-74.5 -32q-45 0 -77 32t-32 77zM768 768q0 45 32 77t77 32q43 0 74.5 -32t31.5 -77t-30.5 -75.5t-75.5 -30.5q-43 0 -76 30.5t-33 75.5zM1022 0q0 45 31.5 77t74.5 32q45 0 77 -32t32 -77t-31.5 -77t-77.5 -32q-43 0 -74.5 32t-31.5 77z M1022 768q0 45 31.5 77t74.5 32q45 0 77 -32t32 -77t-30.5 -75.5t-78.5 -30.5q-43 0 -74.5 31.5t-31.5 74.5z" />
<glyph unicode="&#xb4;" d="M385 1280q0 43 31 76t76 33t76.5 -32t31.5 -77t-30.5 -75.5t-77.5 -30.5q-45 0 -76 30.5t-31 75.5zM512 1536q0 45 32 77t77 32q43 0 74.5 -32t31.5 -77t-30.5 -75.5t-75.5 -30.5q-43 0 -76 30.5t-33 75.5z" />
<glyph unicode="&#xb5;" d="M0 -256q0 45 31 75.5t78 30.5q43 0 74.5 -31.5t31.5 -74.5q0 -45 -31.5 -77t-74.5 -32q-45 0 -77 32t-32 77zM129 0q0 43 31 76t76 33t76.5 -32t31.5 -77t-31.5 -77t-76.5 -32t-76 31t-31 78zM129 256q0 43 31 76t76 33t76.5 -32t31.5 -77t-30.5 -75.5t-77.5 -30.5 q-45 0 -76 30.5t-31 75.5zM129 768q0 43 31 76t76 33t76.5 -32t31.5 -77t-30.5 -75.5t-77.5 -30.5q-45 0 -76 30.5t-31 75.5zM131 512q0 45 32 77t75 32q45 0 76.5 -32t31.5 -77t-30.5 -75.5t-77.5 -30.5q-43 0 -75 31.5t-32 74.5zM131 1024q0 45 32 77t75 32q45 0 76.5 -32 t31.5 -77t-30.5 -75.5t-77.5 -30.5q-43 0 -75 31.5t-32 74.5zM387 256q0 45 32 77t75 32q45 0 76.5 -32t31.5 -77t-30.5 -75.5t-77.5 -30.5q-43 0 -75 31.5t-32 74.5zM514 0q0 45 32 77t77 32t75.5 -31t30.5 -78q0 -43 -30.5 -76t-75.5 -33t-77 32t-32 77zM770 0q0 45 32 77 t77 32t75.5 -31t30.5 -78q0 -43 -30.5 -76t-75.5 -33t-77 32t-32 77zM899 256q0 45 32 77t75 32q45 0 76.5 -32t31.5 -77t-30.5 -75.5t-77.5 -30.5q-43 0 -75 31.5t-32 74.5zM899 768q0 45 32 77t75 32q45 0 76.5 -32t31.5 -77t-30.5 -75.5t-77.5 -30.5q-43 0 -75 31.5 t-32 74.5zM899 1024q0 45 32 77t75 32q45 0 76.5 -32t31.5 -77t-30.5 -75.5t-77.5 -30.5q-43 0 -75 31.5t-32 74.5zM901 512q0 45 32 77t77 32q43 0 74.5 -32t31.5 -77t-30.5 -75.5t-75.5 -30.5q-43 0 -76 30.5t-33 75.5zM1026 0q0 45 32 77t77 32t75.5 -31t30.5 -78 q0 -43 -30.5 -76t-75.5 -33t-77 32t-32 77z" />
<glyph unicode="&#xb6;" d="M0 1024q0 45 32 77t77 32q43 0 74.5 -32t31.5 -77t-30.5 -75.5t-75.5 -30.5q-43 0 -76 30.5t-33 75.5zM0 1280q0 45 32 77t77 32q43 0 74.5 -32t31.5 -77t-30.5 -75.5t-75.5 -30.5q-43 0 -76 30.5t-33 75.5zM256 768q0 45 32 77t77 32q43 0 74.5 -32t31.5 -77 t-30.5 -75.5t-75.5 -30.5q-43 0 -76 30.5t-33 75.5zM256 1536q0 45 32 77t77 32q43 0 74.5 -32t31.5 -77t-30.5 -75.5t-75.5 -30.5q-43 0 -76 30.5t-33 75.5zM512 768q0 45 32 77t77 32q43 0 74.5 -32t31.5 -77t-30.5 -75.5t-75.5 -30.5q-43 0 -76 30.5t-33 75.5zM512 1536 q0 45 32 77t77 32q43 0 74.5 -32t31.5 -77t-30.5 -75.5t-75.5 -30.5q-43 0 -76 30.5t-33 75.5zM637 0q0 45 31.5 77t76.5 32t76 -31t31 -78q0 -43 -30.5 -76t-76.5 -33q-45 0 -76.5 32t-31.5 77zM637 256q0 45 31.5 77t76.5 32t76 -31t31 -78q0 -45 -30.5 -75.5t-76.5 -30.5 q-43 0 -75.5 30.5t-32.5 75.5zM637 1024q0 45 31.5 77t76.5 32t76 -31t31 -78q0 -45 -30.5 -75.5t-76.5 -30.5q-43 0 -75.5 30.5t-32.5 75.5zM637 1280q0 45 31.5 77t76.5 32t76 -31t31 -78q0 -45 -30.5 -75.5t-76.5 -30.5q-43 0 -75.5 30.5t-32.5 75.5zM641 512q0 43 31 76 t76 33t76.5 -32t31.5 -77t-30.5 -75.5t-77.5 -30.5q-45 0 -76 30.5t-31 75.5zM768 768q0 45 32 77t77 32q43 0 74.5 -32t31.5 -77t-30.5 -75.5t-75.5 -30.5q-43 0 -76 30.5t-33 75.5zM768 1536q0 45 32 77t77 32q43 0 74.5 -32t31.5 -77t-30.5 -75.5t-75.5 -30.5 q-43 0 -76 30.5t-33 75.5zM1024 0q0 45 32 77t77 32q43 0 74.5 -32t31.5 -77t-31.5 -77t-74.5 -32q-45 0 -77 32t-32 77zM1024 256q0 45 32 77t77 32q43 0 74.5 -32t31.5 -77t-30.5 -75.5t-75.5 -30.5q-43 0 -76 30.5t-33 75.5zM1024 768q0 45 32 77t77 32q43 0 74.5 -32 t31.5 -77t-30.5 -75.5t-75.5 -30.5q-43 0 -76 30.5t-33 75.5zM1024 1024q0 45 32 77t77 32q43 0 74.5 -32t31.5 -77t-30.5 -75.5t-75.5 -30.5q-43 0 -76 30.5t-33 75.5zM1024 1280q0 45 32 77t77 32q43 0 74.5 -32t31.5 -77t-30.5 -75.5t-75.5 -30.5q-43 0 -76 30.5 t-33 75.5zM1024 1536q0 45 32 77t77 32q43 0 74.5 -32t31.5 -77t-30.5 -75.5t-75.5 -30.5q-43 0 -76 30.5t-33 75.5zM1026 512q0 45 32 77t77 32t75.5 -31t30.5 -78q0 -45 -30.5 -75.5t-75.5 -30.5q-43 0 -76 30.5t-33 75.5z" />
<glyph unicode="&#xba;" d="M-2 512q0 45 31.5 77t74.5 32q45 0 77 -32t32 -77t-30.5 -75.5t-78.5 -30.5q-43 0 -74.5 31.5t-31.5 74.5zM129 1280q0 43 31 76t76 33t76.5 -32t31.5 -77t-30.5 -75.5t-77.5 -30.5q-45 0 -76 30.5t-31 75.5zM256 512q0 45 32 77t77 32q43 0 74.5 -32t31.5 -77 t-30.5 -75.5t-75.5 -30.5q-43 0 -76 30.5t-33 75.5zM256 1024q0 45 32 77t77 32q43 0 74.5 -32t31.5 -77t-30.5 -75.5t-75.5 -30.5q-43 0 -76 30.5t-33 75.5zM256 1536q0 45 32 77t77 32q43 0 74.5 -32t31.5 -77t-30.5 -75.5t-75.5 -30.5q-43 0 -76 30.5t-33 75.5zM512 512 q0 45 32 77t77 32q43 0 74.5 -32t31.5 -77t-30.5 -75.5t-75.5 -30.5q-43 0 -76 30.5t-33 75.5zM512 1024q0 45 32 77t77 32q43 0 74.5 -32t31.5 -77t-30.5 -75.5t-75.5 -30.5q-43 0 -76 30.5t-33 75.5zM512 1536q0 45 32 77t77 32q43 0 74.5 -32t31.5 -77t-30.5 -75.5 t-75.5 -30.5q-43 0 -76 30.5t-33 75.5zM641 1280q0 43 31 76t76 33t76.5 -32t31.5 -77t-30.5 -75.5t-77.5 -30.5q-45 0 -76 30.5t-31 75.5zM768 512q0 45 32 77t77 32q43 0 74.5 -32t31.5 -77t-30.5 -75.5t-75.5 -30.5q-43 0 -76 30.5t-33 75.5z" />
<glyph unicode="&#xbb;" d="M0 256q0 45 32 77t77 32q43 0 74.5 -32t31.5 -77t-30.5 -75.5t-75.5 -30.5q-43 0 -76 30.5t-33 75.5zM0 1280q0 45 32 77t77 32q43 0 74.5 -32t31.5 -77t-30.5 -75.5t-75.5 -30.5q-43 0 -76 30.5t-33 75.5zM129 512q0 43 31 76t76 33t76.5 -32t31.5 -77t-30.5 -75.5 t-77.5 -30.5q-45 0 -76 30.5t-31 75.5zM129 1024q0 43 31 76t76 33t76.5 -32t31.5 -77t-30.5 -75.5t-77.5 -30.5q-45 0 -76 30.5t-31 75.5zM256 768q0 45 32 77t77 32q43 0 74.5 -32t31.5 -77t-30.5 -75.5t-75.5 -30.5q-43 0 -76 30.5t-33 75.5zM385 256q0 43 31 76t76 33 t76.5 -32t31.5 -77t-30.5 -75.5t-77.5 -30.5q-45 0 -76 30.5t-31 75.5zM385 1280q0 43 31 76t76 33t76.5 -32t31.5 -77t-30.5 -75.5t-77.5 -30.5q-45 0 -76 30.5t-31 75.5zM512 512q0 45 32 77t77 32q43 0 74.5 -32t31.5 -77t-30.5 -75.5t-75.5 -30.5q-43 0 -76 30.5 t-33 75.5zM512 1024q0 45 32 77t77 32q43 0 74.5 -32t31.5 -77t-30.5 -75.5t-75.5 -30.5q-43 0 -76 30.5t-33 75.5zM641 768q0 43 31 76t76 33t76.5 -32t31.5 -77t-30.5 -75.5t-77.5 -30.5q-45 0 -76 30.5t-31 75.5z" />
<glyph unicode="&#xbf;" d="M0 256q0 45 31.5 77t77.5 32q43 0 74.5 -32t31.5 -77t-30.5 -75.5t-75.5 -30.5q-43 0 -76 30.5t-33 75.5zM0 512q0 45 31.5 77t77.5 32q43 0 74.5 -32t31.5 -77t-30.5 -75.5t-75.5 -30.5q-43 0 -76 30.5t-33 75.5zM256 0q0 45 31.5 77t77.5 32q43 0 74.5 -32t31.5 -77 t-31.5 -77t-74.5 -32q-45 0 -77 32t-32 77zM256 768q0 45 31.5 77t77.5 32q43 0 74.5 -32t31.5 -77t-30.5 -75.5t-75.5 -30.5q-43 0 -76 30.5t-33 75.5zM512 0q0 45 31.5 77t77.5 32q43 0 74.5 -32t31.5 -77t-31.5 -77t-74.5 -32q-45 0 -77 32t-32 77zM512 768q0 45 31.5 77 t77.5 32q43 0 74.5 -32t31.5 -77t-30.5 -75.5t-75.5 -30.5q-43 0 -76 30.5t-33 75.5zM512 1536q0 45 31.5 77t77.5 32q43 0 74.5 -32t31.5 -77t-30.5 -75.5t-75.5 -30.5q-43 0 -76 30.5t-33 75.5zM514 1024q0 45 32 77t77 32t75.5 -31t30.5 -78q0 -45 -30.5 -75.5 t-75.5 -30.5q-43 0 -76 30.5t-33 75.5zM768 0q0 45 31.5 77t77.5 32q43 0 74.5 -32t31.5 -77t-31.5 -77t-74.5 -32q-45 0 -77 32t-32 77zM1024 256q0 45 31.5 77t77.5 32q43 0 74.5 -32t31.5 -77t-30.5 -75.5t-75.5 -30.5q-43 0 -76 30.5t-33 75.5z" />
<glyph unicode="&#xc0;" d="M-2 512q0 45 31.5 77t74.5 32q45 0 77 -32t32 -77t-30.5 -75.5t-78.5 -30.5q-43 0 -74.5 31.5t-31.5 74.5zM0 0q0 45 32 77t77 32q43 0 74.5 -32t31.5 -77t-31.5 -77t-74.5 -32q-45 0 -77 32t-32 77zM0 256q0 45 32 77t77 32q43 0 74.5 -32t31.5 -77t-30.5 -75.5 t-75.5 -30.5q-43 0 -76 30.5t-33 75.5zM129 768q0 43 31 76t76 33t76.5 -32t31.5 -77t-30.5 -75.5t-77.5 -30.5q-45 0 -76 30.5t-31 75.5zM256 512q0 45 32 77t77 32q43 0 74.5 -32t31.5 -77t-30.5 -75.5t-75.5 -30.5q-43 0 -76 30.5t-33 75.5zM256 1536q0 45 32 77t77 32 q43 0 74.5 -32t31.5 -77t-30.5 -75.5t-75.5 -30.5q-43 0 -76 30.5t-33 75.5zM385 1024q0 43 31 76t76 33t76.5 -32t31.5 -77t-30.5 -75.5t-77.5 -30.5q-45 0 -76 30.5t-31 75.5zM512 512q0 45 32 77t77 32q43 0 74.5 -32t31.5 -77t-30.5 -75.5t-75.5 -30.5q-43 0 -76 30.5 t-33 75.5zM512 1280q0 45 32 77t77 32q43 0 74.5 -32t31.5 -77t-30.5 -75.5t-75.5 -30.5q-43 0 -76 30.5t-33 75.5zM641 1024q0 43 31 76t76 33t76.5 -32t31.5 -77t-30.5 -75.5t-77.5 -30.5q-45 0 -76 30.5t-31 75.5zM768 512q0 45 32 77t77 32q43 0 74.5 -32t31.5 -77 t-30.5 -75.5t-75.5 -30.5q-43 0 -76 30.5t-33 75.5zM897 768q0 43 31 76t76 33t76.5 -32t31.5 -77t-30.5 -75.5t-77.5 -30.5q-45 0 -76 30.5t-31 75.5zM1022 512q0 45 31.5 77t74.5 32q45 0 77 -32t32 -77t-30.5 -75.5t-78.5 -30.5q-43 0 -74.5 31.5t-31.5 74.5zM1024 0 q0 45 32 77t77 32q43 0 74.5 -32t31.5 -77t-31.5 -77t-74.5 -32q-45 0 -77 32t-32 77zM1024 256q0 45 32 77t77 32q43 0 74.5 -32t31.5 -77t-30.5 -75.5t-75.5 -30.5q-43 0 -76 30.5t-33 75.5z" />
<glyph unicode="&#xc3;" d="M-2 512q0 45 31.5 77t74.5 32q45 0 77 -32t32 -77t-30.5 -75.5t-78.5 -30.5q-43 0 -74.5 31.5t-31.5 74.5zM0 0q0 45 32 77t77 32q43 0 74.5 -32t31.5 -77t-31.5 -77t-74.5 -32q-45 0 -77 32t-32 77zM0 256q0 45 32 77t77 32q43 0 74.5 -32t31.5 -77t-30.5 -75.5 t-75.5 -30.5q-43 0 -76 30.5t-33 75.5zM129 768q0 43 31 76t76 33t76.5 -32t31.5 -77t-30.5 -75.5t-77.5 -30.5q-45 0 -76 30.5t-31 75.5zM129 1280q0 43 31 76t76 33t76.5 -32t31.5 -77t-30.5 -75.5t-77.5 -30.5q-45 0 -76 30.5t-31 75.5zM256 512q0 45 32 77t77 32 q43 0 74.5 -32t31.5 -77t-30.5 -75.5t-75.5 -30.5q-43 0 -76 30.5t-33 75.5zM385 1024q0 43 31 76t76 33t76.5 -32t31.5 -77t-30.5 -75.5t-77.5 -30.5q-45 0 -76 30.5t-31 75.5zM385 1536q0 43 31 76t76 33t76.5 -32t31.5 -77t-30.5 -75.5t-77.5 -30.5q-45 0 -76 30.5 t-31 75.5zM512 512q0 45 32 77t77 32q43 0 74.5 -32t31.5 -77t-30.5 -75.5t-75.5 -30.5q-43 0 -76 30.5t-33 75.5zM641 1024q0 43 31 76t76 33t76.5 -32t31.5 -77t-30.5 -75.5t-77.5 -30.5q-45 0 -76 30.5t-31 75.5zM641 1280q0 43 31 76t76 33t76.5 -32t31.5 -77 t-30.5 -75.5t-77.5 -30.5q-45 0 -76 30.5t-31 75.5zM768 512q0 45 32 77t77 32q43 0 74.5 -32t31.5 -77t-30.5 -75.5t-75.5 -30.5q-43 0 -76 30.5t-33 75.5zM897 768q0 43 31 76t76 33t76.5 -32t31.5 -77t-30.5 -75.5t-77.5 -30.5q-45 0 -76 30.5t-31 75.5zM897 1536 q0 43 31 76t76 33t76.5 -32t31.5 -77t-30.5 -75.5t-77.5 -30.5q-45 0 -76 30.5t-31 75.5zM1022 512q0 45 31.5 77t74.5 32q45 0 77 -32t32 -77t-30.5 -75.5t-78.5 -30.5q-43 0 -74.5 31.5t-31.5 74.5zM1024 0q0 45 32 77t77 32q43 0 74.5 -32t31.5 -77t-31.5 -77t-74.5 -32 q-45 0 -77 32t-32 77zM1024 256q0 45 32 77t77 32q43 0 74.5 -32t31.5 -77t-30.5 -75.5t-75.5 -30.5q-43 0 -76 30.5t-33 75.5z" />
<glyph unicode="&#xc4;" d="M-2 512q0 45 31.5 77t74.5 32q45 0 77 -32t32 -77t-30.5 -75.5t-78.5 -30.5q-43 0 -74.5 31.5t-31.5 74.5zM0 0q0 45 32 77t77 32q43 0 74.5 -32t31.5 -77t-31.5 -77t-74.5 -32q-45 0 -77 32t-32 77zM0 256q0 45 32 77t77 32q43 0 74.5 -32t31.5 -77t-30.5 -75.5 t-75.5 -30.5q-43 0 -76 30.5t-33 75.5zM129 768q0 43 31 76t76 33t76.5 -32t31.5 -77t-30.5 -75.5t-77.5 -30.5q-45 0 -76 30.5t-31 75.5zM256 512q0 45 32 77t77 32q43 0 74.5 -32t31.5 -77t-30.5 -75.5t-75.5 -30.5q-43 0 -76 30.5t-33 75.5zM256 1536q0 45 32 77t77 32 q43 0 74.5 -32t31.5 -77t-30.5 -75.5t-75.5 -30.5q-43 0 -76 30.5t-33 75.5zM385 1024q0 43 31 76t76 33t76.5 -32t31.5 -77t-30.5 -75.5t-77.5 -30.5q-45 0 -76 30.5t-31 75.5zM512 512q0 45 32 77t77 32q43 0 74.5 -32t31.5 -77t-30.5 -75.5t-75.5 -30.5q-43 0 -76 30.5 t-33 75.5zM512 1280q0 45 32 77t77 32q43 0 74.5 -32t31.5 -77t-30.5 -75.5t-75.5 -30.5q-43 0 -76 30.5t-33 75.5zM641 1024q0 43 31 76t76 33t76.5 -32t31.5 -77t-30.5 -75.5t-77.5 -30.5q-45 0 -76 30.5t-31 75.5zM768 512q0 45 32 77t77 32q43 0 74.5 -32t31.5 -77 t-30.5 -75.5t-75.5 -30.5q-43 0 -76 30.5t-33 75.5zM768 1536q0 45 32 77t77 32q43 0 74.5 -32t31.5 -77t-30.5 -75.5t-75.5 -30.5q-43 0 -76 30.5t-33 75.5zM897 768q0 43 31 76t76 33t76.5 -32t31.5 -77t-30.5 -75.5t-77.5 -30.5q-45 0 -76 30.5t-31 75.5zM1022 512 q0 45 31.5 77t74.5 32q45 0 77 -32t32 -77t-30.5 -75.5t-78.5 -30.5q-43 0 -74.5 31.5t-31.5 74.5zM1024 0q0 45 32 77t77 32q43 0 74.5 -32t31.5 -77t-31.5 -77t-74.5 -32q-45 0 -77 32t-32 77zM1024 256q0 45 32 77t77 32q43 0 74.5 -32t31.5 -77t-30.5 -75.5t-75.5 -30.5 q-43 0 -76 30.5t-33 75.5z" />
<glyph unicode="&#xc5;" d="M-2 512q0 45 31.5 77t74.5 32q45 0 77 -32t32 -77t-30.5 -75.5t-78.5 -30.5q-43 0 -74.5 31.5t-31.5 74.5zM0 0q0 45 32 77t77 32q43 0 74.5 -32t31.5 -77t-31.5 -77t-74.5 -32q-45 0 -77 32t-32 77zM0 256q0 45 32 77t77 32q43 0 74.5 -32t31.5 -77t-30.5 -75.5 t-75.5 -30.5q-43 0 -76 30.5t-33 75.5zM129 768q0 43 31 76t76 33t76.5 -32t31.5 -77t-30.5 -75.5t-77.5 -30.5q-45 0 -76 30.5t-31 75.5zM256 512q0 45 32 77t77 32q43 0 74.5 -32t31.5 -77t-30.5 -75.5t-75.5 -30.5q-43 0 -76 30.5t-33 75.5zM256 1280q0 45 32 77t77 32 q43 0 74.5 -32t31.5 -77t-30.5 -75.5t-75.5 -30.5q-43 0 -76 30.5t-33 75.5zM385 1024q0 43 31 76t76 33t76.5 -32t31.5 -77t-30.5 -75.5t-77.5 -30.5q-45 0 -76 30.5t-31 75.5zM512 512q0 45 32 77t77 32q43 0 74.5 -32t31.5 -77t-30.5 -75.5t-75.5 -30.5q-43 0 -76 30.5 t-33 75.5zM512 1536q0 45 32 77t77 32q43 0 74.5 -32t31.5 -77t-30.5 -75.5t-75.5 -30.5q-43 0 -76 30.5t-33 75.5zM641 1024q0 43 31 76t76 33t76.5 -32t31.5 -77t-30.5 -75.5t-77.5 -30.5q-45 0 -76 30.5t-31 75.5zM768 512q0 45 32 77t77 32q43 0 74.5 -32t31.5 -77 t-30.5 -75.5t-75.5 -30.5q-43 0 -76 30.5t-33 75.5zM768 1280q0 45 32 77t77 32q43 0 74.5 -32t31.5 -77t-30.5 -75.5t-75.5 -30.5q-43 0 -76 30.5t-33 75.5zM897 768q0 43 31 76t76 33t76.5 -32t31.5 -77t-30.5 -75.5t-77.5 -30.5q-45 0 -76 30.5t-31 75.5zM1022 512 q0 45 31.5 77t74.5 32q45 0 77 -32t32 -77t-30.5 -75.5t-78.5 -30.5q-43 0 -74.5 31.5t-31.5 74.5zM1024 0q0 45 32 77t77 32q43 0 74.5 -32t31.5 -77t-31.5 -77t-74.5 -32q-45 0 -77 32t-32 77zM1024 256q0 45 32 77t77 32q43 0 74.5 -32t31.5 -77t-30.5 -75.5t-75.5 -30.5 q-43 0 -76 30.5t-33 75.5z" />
<glyph unicode="&#xc6;" d="M-2 512q0 45 31.5 77t74.5 32q45 0 77 -32t32 -77t-30.5 -75.5t-78.5 -30.5q-43 0 -74.5 31.5t-31.5 74.5zM0 0q0 45 32 77t77 32q43 0 74.5 -32t31.5 -77t-31.5 -77t-74.5 -32q-45 0 -77 32t-32 77zM0 256q0 45 32 77t77 32q43 0 74.5 -32t31.5 -77t-30.5 -75.5 t-75.5 -30.5q-43 0 -76 30.5t-33 75.5zM129 768q0 43 31 76t76 33t76.5 -32t31.5 -77t-30.5 -75.5t-77.5 -30.5q-45 0 -76 30.5t-31 75.5zM256 512q0 45 32 77t77 32q43 0 74.5 -32t31.5 -77t-30.5 -75.5t-75.5 -30.5q-43 0 -76 30.5t-33 75.5zM256 1024q0 45 32 77t77 32 q43 0 74.5 -32t31.5 -77t-30.5 -75.5t-75.5 -30.5q-43 0 -76 30.5t-33 75.5zM385 1280q0 43 31 76t76 33t76.5 -32t31.5 -77t-30.5 -75.5t-77.5 -30.5q-45 0 -76 30.5t-31 75.5zM512 0q0 45 32 77t77 32q43 0 74.5 -32t31.5 -77t-31.5 -77t-74.5 -32q-45 0 -77 32t-32 77z M512 256q0 45 32 77t77 32q43 0 74.5 -32t31.5 -77t-30.5 -75.5t-75.5 -30.5q-43 0 -76 30.5t-33 75.5zM512 512q0 45 32 77t77 32q43 0 74.5 -32t31.5 -77t-30.5 -75.5t-75.5 -30.5q-43 0 -76 30.5t-33 75.5zM512 768q0 45 32 77t77 32q43 0 74.5 -32t31.5 -77t-30.5 -75.5 t-75.5 -30.5q-43 0 -76 30.5t-33 75.5zM512 1024q0 45 32 77t77 32q43 0 74.5 -32t31.5 -77t-30.5 -75.5t-75.5 -30.5q-43 0 -76 30.5t-33 75.5zM512 1536q0 45 32 77t77 32q43 0 74.5 -32t31.5 -77t-30.5 -75.5t-75.5 -30.5q-43 0 -76 30.5t-33 75.5zM768 0q0 45 32 77 t77 32q43 0 74.5 -32t31.5 -77t-31.5 -77t-74.5 -32q-45 0 -77 32t-32 77zM768 768q0 45 32 77t77 32q43 0 74.5 -32t31.5 -77t-30.5 -75.5t-75.5 -30.5q-43 0 -76 30.5t-33 75.5zM768 1536q0 45 32 77t77 32q43 0 74.5 -32t31.5 -77t-30.5 -75.5t-75.5 -30.5 q-43 0 -76 30.5t-33 75.5zM1022 0q0 45 31.5 77t74.5 32q45 0 77 -32t32 -77t-31.5 -77t-77.5 -32q-43 0 -74.5 32t-31.5 77zM1022 768q0 45 31.5 77t74.5 32q45 0 77 -32t32 -77t-30.5 -75.5t-78.5 -30.5q-43 0 -74.5 31.5t-31.5 74.5zM1022 1536q0 45 31.5 77t74.5 32 q45 0 77 -32t32 -77t-30.5 -75.5t-78.5 -30.5q-43 0 -74.5 31.5t-31.5 74.5z" />
<glyph unicode="&#xc7;" d="M-2 512q0 45 31.5 77t74.5 32q45 0 77 -32t32 -77t-30.5 -75.5t-78.5 -30.5q-43 0 -74.5 31.5t-31.5 74.5zM0 256q0 45 32 77t77 32q43 0 74.5 -32t31.5 -77t-30.5 -75.5t-75.5 -30.5q-43 0 -76 30.5t-33 75.5zM0 768q0 45 32 77t77 32q43 0 74.5 -32t31.5 -77 t-30.5 -75.5t-75.5 -30.5q-43 0 -76 30.5t-33 75.5zM0 1024q0 45 32 77t77 32q43 0 74.5 -32t31.5 -77t-30.5 -75.5t-75.5 -30.5q-43 0 -76 30.5t-33 75.5zM0 1280q0 45 32 77t77 32q43 0 74.5 -32t31.5 -77t-30.5 -75.5t-75.5 -30.5q-43 0 -76 30.5t-33 75.5zM256 0 q0 45 32 77t77 32q43 0 74.5 -32t31.5 -77t-31.5 -77t-74.5 -32q-45 0 -77 32t-32 77zM256 1536q0 45 32 77t77 32q43 0 74.5 -32t31.5 -77t-30.5 -75.5t-75.5 -30.5q-43 0 -76 30.5t-33 75.5zM385 -512q0 45 31 75.5t76 30.5q43 0 75.5 -30.5t32.5 -75.5t-31.5 -77 t-76.5 -32t-76 31t-31 78zM512 0q0 45 32 77t77 32q43 0 74.5 -32t31.5 -77t-31.5 -77t-74.5 -32q-45 0 -77 32t-32 77zM512 -256q0 45 31 75.5t78 30.5q43 0 74.5 -31.5t31.5 -74.5q0 -45 -31.5 -77t-74.5 -32q-45 0 -77 32t-32 77zM512 1536q0 45 32 77t77 32 q43 0 74.5 -32t31.5 -77t-30.5 -75.5t-75.5 -30.5q-43 0 -76 30.5t-33 75.5zM768 0q0 45 32 77t77 32q43 0 74.5 -32t31.5 -77t-31.5 -77t-74.5 -32q-45 0 -77 32t-32 77zM768 1536q0 45 32 77t77 32q43 0 74.5 -32t31.5 -77t-30.5 -75.5t-75.5 -30.5q-43 0 -76 30.5 t-33 75.5zM1024 256q0 45 32 77t77 32q43 0 74.5 -32t31.5 -77t-30.5 -75.5t-75.5 -30.5q-43 0 -76 30.5t-33 75.5zM1024 1280q0 45 32 77t77 32q43 0 74.5 -32t31.5 -77t-30.5 -75.5t-75.5 -30.5q-43 0 -76 30.5t-33 75.5z" />
<glyph unicode="&#xc9;" d="M-2 512q0 45 31.5 77t74.5 32q45 0 77 -32t32 -77t-30.5 -75.5t-78.5 -30.5q-43 0 -74.5 31.5t-31.5 74.5zM0 0q0 45 32 77t77 32q43 0 74.5 -32t31.5 -77t-31.5 -77t-74.5 -32q-45 0 -77 32t-32 77zM0 256q0 45 32 77t77 32q43 0 74.5 -32t31.5 -77t-30.5 -75.5 t-75.5 -30.5q-43 0 -76 30.5t-33 75.5zM0 768q0 45 32 77t77 32q43 0 74.5 -32t31.5 -77t-30.5 -75.5t-75.5 -30.5q-43 0 -76 30.5t-33 75.5zM0 1024q0 45 32 77t77 32q43 0 74.5 -32t31.5 -77t-30.5 -75.5t-75.5 -30.5q-43 0 -76 30.5t-33 75.5zM256 0q0 45 32 77t77 32 q43 0 74.5 -32t31.5 -77t-31.5 -77t-74.5 -32q-45 0 -77 32t-32 77zM256 512q0 45 32 77t77 32q43 0 74.5 -32t31.5 -77t-30.5 -75.5t-75.5 -30.5q-43 0 -76 30.5t-33 75.5zM256 1024q0 45 32 77t77 32q43 0 74.5 -32t31.5 -77t-30.5 -75.5t-75.5 -30.5q-43 0 -76 30.5 t-33 75.5zM385 1280q0 43 31 76t76 33t76.5 -32t31.5 -77t-30.5 -75.5t-77.5 -30.5q-45 0 -76 30.5t-31 75.5zM512 0q0 45 32 77t77 32q43 0 74.5 -32t31.5 -77t-31.5 -77t-74.5 -32q-45 0 -77 32t-32 77zM512 512q0 45 32 77t77 32q43 0 74.5 -32t31.5 -77t-30.5 -75.5 t-75.5 -30.5q-43 0 -76 30.5t-33 75.5zM512 1024q0 45 32 77t77 32q43 0 74.5 -32t31.5 -77t-30.5 -75.5t-75.5 -30.5q-43 0 -76 30.5t-33 75.5zM512 1536q0 45 32 77t77 32q43 0 74.5 -32t31.5 -77t-30.5 -75.5t-75.5 -30.5q-43 0 -76 30.5t-33 75.5zM768 0q0 45 32 77 t77 32q43 0 74.5 -32t31.5 -77t-31.5 -77t-74.5 -32q-45 0 -77 32t-32 77zM768 512q0 45 32 77t77 32q43 0 74.5 -32t31.5 -77t-30.5 -75.5t-75.5 -30.5q-43 0 -76 30.5t-33 75.5zM768 1024q0 45 32 77t77 32q43 0 74.5 -32t31.5 -77t-30.5 -75.5t-75.5 -30.5 q-43 0 -76 30.5t-33 75.5zM1024 0q0 45 32 77t77 32q43 0 74.5 -32t31.5 -77t-31.5 -77t-74.5 -32q-45 0 -77 32t-32 77zM1024 1024q0 45 32 77t77 32q43 0 74.5 -32t31.5 -77t-30.5 -75.5t-75.5 -30.5q-43 0 -76 30.5t-33 75.5z" />
<glyph unicode="&#xd1;" d="M-2 512q0 45 31.5 77t74.5 32q45 0 77 -32t32 -77t-30.5 -75.5t-78.5 -30.5q-43 0 -74.5 31.5t-31.5 74.5zM0 0q0 45 32 77t77 32q43 0 74.5 -32t31.5 -77t-31.5 -77t-74.5 -32q-45 0 -77 32t-32 77zM0 256q0 45 32 77t77 32q43 0 74.5 -32t31.5 -77t-30.5 -75.5 t-75.5 -30.5q-43 0 -76 30.5t-33 75.5zM0 768q0 45 32 77t77 32q43 0 74.5 -32t31.5 -77t-30.5 -75.5t-75.5 -30.5q-43 0 -76 30.5t-33 75.5zM0 1024q0 45 32 77t77 32q43 0 74.5 -32t31.5 -77t-30.5 -75.5t-75.5 -30.5q-43 0 -76 30.5t-33 75.5zM256 768q0 45 32 77t77 32 q43 0 74.5 -32t31.5 -77t-30.5 -75.5t-75.5 -30.5q-43 0 -76 30.5t-33 75.5zM256 1280q0 45 32 77t77 32q43 0 74.5 -32t31.5 -77t-30.5 -75.5t-75.5 -30.5q-43 0 -76 30.5t-33 75.5zM385 1536q0 43 31 76t76 33t76.5 -32t31.5 -77t-30.5 -75.5t-77.5 -30.5q-45 0 -76 30.5 t-31 75.5zM512 512q0 45 32 77t77 32q43 0 74.5 -32t31.5 -77t-30.5 -75.5t-75.5 -30.5q-43 0 -76 30.5t-33 75.5zM641 1280q0 43 31 76t76 33t76.5 -32t31.5 -77t-30.5 -75.5t-77.5 -30.5q-45 0 -76 30.5t-31 75.5zM768 256q0 45 32 77t77 32q43 0 74.5 -32t31.5 -77 t-30.5 -75.5t-75.5 -30.5q-43 0 -76 30.5t-33 75.5zM768 1536q0 45 32 77t77 32q43 0 74.5 -32t31.5 -77t-30.5 -75.5t-75.5 -30.5q-43 0 -76 30.5t-33 75.5zM1022 512q0 45 31.5 77t74.5 32q45 0 77 -32t32 -77t-30.5 -75.5t-78.5 -30.5q-43 0 -74.5 31.5t-31.5 74.5z M1024 0q0 45 32 77t77 32q43 0 74.5 -32t31.5 -77t-31.5 -77t-74.5 -32q-45 0 -77 32t-32 77zM1024 256q0 45 32 77t77 32q43 0 74.5 -32t31.5 -77t-30.5 -75.5t-75.5 -30.5q-43 0 -76 30.5t-33 75.5zM1024 768q0 45 32 77t77 32q43 0 74.5 -32t31.5 -77t-30.5 -75.5 t-75.5 -30.5q-43 0 -76 30.5t-33 75.5zM1024 1024q0 45 32 77t77 32q43 0 74.5 -32t31.5 -77t-30.5 -75.5t-75.5 -30.5q-43 0 -76 30.5t-33 75.5z" />
<glyph unicode="&#xd5;" d="M-2 512q0 45 31.5 77t74.5 32q45 0 77 -32t32 -77t-30.5 -75.5t-78.5 -30.5q-43 0 -74.5 31.5t-31.5 74.5zM0 256q0 45 32 77t77 32q43 0 74.5 -32t31.5 -77t-30.5 -75.5t-75.5 -30.5q-43 0 -76 30.5t-33 75.5zM0 768q0 45 32 77t77 32q43 0 74.5 -32t31.5 -77 t-30.5 -75.5t-75.5 -30.5q-43 0 -76 30.5t-33 75.5zM0 1024q0 45 32 77t77 32q43 0 74.5 -32t31.5 -77t-30.5 -75.5t-75.5 -30.5q-43 0 -76 30.5t-33 75.5zM256 0q0 45 32 77t77 32q43 0 74.5 -32t31.5 -77t-31.5 -77t-74.5 -32q-45 0 -77 32t-32 77zM256 1024q0 45 32 77 t77 32q43 0 74.5 -32t31.5 -77t-30.5 -75.5t-75.5 -30.5q-43 0 -76 30.5t-33 75.5zM256 1280q0 45 32 77t77 32q43 0 74.5 -32t31.5 -77t-30.5 -75.5t-75.5 -30.5q-43 0 -76 30.5t-33 75.5zM512 0q0 45 32 77t77 32q43 0 74.5 -32t31.5 -77t-31.5 -77t-74.5 -32 q-45 0 -77 32t-32 77zM512 1024q0 45 32 77t77 32q43 0 74.5 -32t31.5 -77t-30.5 -75.5t-75.5 -30.5q-43 0 -76 30.5t-33 75.5zM512 1536q0 45 32 77t77 32q43 0 74.5 -32t31.5 -77t-30.5 -75.5t-75.5 -30.5q-43 0 -76 30.5t-33 75.5zM768 0q0 45 32 77t77 32q43 0 74.5 -32 t31.5 -77t-31.5 -77t-74.5 -32q-45 0 -77 32t-32 77zM768 1024q0 45 32 77t77 32q43 0 74.5 -32t31.5 -77t-30.5 -75.5t-75.5 -30.5q-43 0 -76 30.5t-33 75.5zM768 1280q0 45 32 77t77 32q43 0 74.5 -32t31.5 -77t-30.5 -75.5t-75.5 -30.5q-43 0 -76 30.5t-33 75.5z M1024 512q0 45 32 77t77 32q43 0 74.5 -32t31.5 -77t-30.5 -75.5t-75.5 -30.5q-43 0 -76 30.5t-33 75.5zM1024 1024q0 45 32 77t77 32q43 0 74.5 -32t31.5 -77t-30.5 -75.5t-75.5 -30.5q-43 0 -76 30.5t-33 75.5zM1024 1536q0 45 32 77t77 32q43 0 74.5 -32t31.5 -77 t-30.5 -75.5t-75.5 -30.5q-43 0 -76 30.5t-33 75.5zM1026 256q0 45 32 77t77 32t75.5 -31t30.5 -78q0 -45 -30.5 -75.5t-75.5 -30.5q-43 0 -76 30.5t-33 75.5zM1026 768q0 45 32 77t77 32t75.5 -31t30.5 -78q0 -45 -30.5 -75.5t-75.5 -30.5q-43 0 -76 30.5t-33 75.5z" />
<glyph unicode="&#xd6;" d="M-2 512q0 45 31.5 77t74.5 32q45 0 77 -32t32 -77t-30.5 -75.5t-78.5 -30.5q-43 0 -74.5 31.5t-31.5 74.5zM0 256q0 45 32 77t77 32q43 0 74.5 -32t31.5 -77t-30.5 -75.5t-75.5 -30.5q-43 0 -76 30.5t-33 75.5zM0 768q0 45 32 77t77 32q43 0 74.5 -32t31.5 -77 t-30.5 -75.5t-75.5 -30.5q-43 0 -76 30.5t-33 75.5zM0 1024q0 45 32 77t77 32q43 0 74.5 -32t31.5 -77t-30.5 -75.5t-75.5 -30.5q-43 0 -76 30.5t-33 75.5zM256 0q0 45 32 77t77 32q43 0 74.5 -32t31.5 -77t-31.5 -77t-74.5 -32q-45 0 -77 32t-32 77zM256 1280q0 45 32 77 t77 32q43 0 74.5 -32t31.5 -77t-30.5 -75.5t-75.5 -30.5q-43 0 -76 30.5t-33 75.5zM256 1536q0 45 32 77t77 32q43 0 74.5 -32t31.5 -77t-30.5 -75.5t-75.5 -30.5q-43 0 -76 30.5t-33 75.5zM512 0q0 45 32 77t77 32q43 0 74.5 -32t31.5 -77t-31.5 -77t-74.5 -32 q-45 0 -77 32t-32 77zM512 1280q0 45 32 77t77 32q43 0 74.5 -32t31.5 -77t-30.5 -75.5t-75.5 -30.5q-43 0 -76 30.5t-33 75.5zM768 0q0 45 32 77t77 32q43 0 74.5 -32t31.5 -77t-31.5 -77t-74.5 -32q-45 0 -77 32t-32 77zM768 1280q0 45 32 77t77 32q43 0 74.5 -32 t31.5 -77t-30.5 -75.5t-75.5 -30.5q-43 0 -76 30.5t-33 75.5zM768 1536q0 45 32 77t77 32q43 0 74.5 -32t31.5 -77t-30.5 -75.5t-75.5 -30.5q-43 0 -76 30.5t-33 75.5zM1022 512q0 45 31.5 77t74.5 32q45 0 77 -32t32 -77t-30.5 -75.5t-78.5 -30.5q-43 0 -74.5 31.5 t-31.5 74.5zM1024 256q0 45 32 77t77 32q43 0 74.5 -32t31.5 -77t-30.5 -75.5t-75.5 -30.5q-43 0 -76 30.5t-33 75.5zM1024 768q0 45 32 77t77 32q43 0 74.5 -32t31.5 -77t-30.5 -75.5t-75.5 -30.5q-43 0 -76 30.5t-33 75.5zM1024 1024q0 45 32 77t77 32q43 0 74.5 -32 t31.5 -77t-30.5 -75.5t-75.5 -30.5q-43 0 -76 30.5t-33 75.5z" />
<glyph unicode="&#xd8;" d="M-2 512q0 45 31.5 77t74.5 32q45 0 77 -32t32 -77t-30.5 -75.5t-78.5 -30.5q-43 0 -74.5 31.5t-31.5 74.5zM0 0q0 45 32 77t77 32q43 0 74.5 -32t31.5 -77t-31.5 -77t-74.5 -32q-45 0 -77 32t-32 77zM0 256q0 45 32 77t77 32q43 0 74.5 -32t31.5 -77t-30.5 -75.5 t-75.5 -30.5q-43 0 -76 30.5t-33 75.5zM0 768q0 45 32 77t77 32q43 0 74.5 -32t31.5 -77t-30.5 -75.5t-75.5 -30.5q-43 0 -76 30.5t-33 75.5zM0 1024q0 45 32 77t77 32q43 0 74.5 -32t31.5 -77t-30.5 -75.5t-75.5 -30.5q-43 0 -76 30.5t-33 75.5zM0 1280q0 45 32 77t77 32 q43 0 74.5 -32t31.5 -77t-30.5 -75.5t-75.5 -30.5q-43 0 -76 30.5t-33 75.5zM256 0q0 45 32 77t77 32q43 0 74.5 -32t31.5 -77t-31.5 -77t-74.5 -32q-45 0 -77 32t-32 77zM256 256q0 45 32 77t77 32q43 0 74.5 -32t31.5 -77t-30.5 -75.5t-75.5 -30.5q-43 0 -76 30.5 t-33 75.5zM256 1536q0 45 32 77t77 32q43 0 74.5 -32t31.5 -77t-30.5 -75.5t-75.5 -30.5q-43 0 -76 30.5t-33 75.5zM385 512q0 43 31 76t76 33t76.5 -32t31.5 -77t-30.5 -75.5t-77.5 -30.5q-45 0 -76 30.5t-31 75.5zM512 0q0 45 32 77t77 32q43 0 74.5 -32t31.5 -77 t-31.5 -77t-74.5 -32q-45 0 -77 32t-32 77zM512 768q0 45 32 77t77 32q43 0 74.5 -32t31.5 -77t-30.5 -75.5t-75.5 -30.5q-43 0 -76 30.5t-33 75.5zM512 1536q0 45 32 77t77 32q43 0 74.5 -32t31.5 -77t-30.5 -75.5t-75.5 -30.5q-43 0 -76 30.5t-33 75.5zM641 1024 q0 43 31 76t76 33t76.5 -32t31.5 -77t-30.5 -75.5t-77.5 -30.5q-45 0 -76 30.5t-31 75.5zM768 0q0 45 32 77t77 32q43 0 74.5 -32t31.5 -77t-31.5 -77t-74.5 -32q-45 0 -77 32t-32 77zM768 1280q0 45 32 77t77 32q43 0 74.5 -32t31.5 -77t-30.5 -75.5t-75.5 -30.5 q-43 0 -76 30.5t-33 75.5zM768 1536q0 45 32 77t77 32q43 0 74.5 -32t31.5 -77t-30.5 -75.5t-75.5 -30.5q-43 0 -76 30.5t-33 75.5zM1022 512q0 45 31.5 77t74.5 32q45 0 77 -32t32 -77t-30.5 -75.5t-78.5 -30.5q-43 0 -74.5 31.5t-31.5 74.5zM1024 256q0 45 32 77t77 32 q43 0 74.5 -32t31.5 -77t-30.5 -75.5t-75.5 -30.5q-43 0 -76 30.5t-33 75.5zM1024 768q0 45 32 77t77 32q43 0 74.5 -32t31.5 -77t-30.5 -75.5t-75.5 -30.5q-43 0 -76 30.5t-33 75.5zM1024 1024q0 45 32 77t77 32q43 0 74.5 -32t31.5 -77t-30.5 -75.5t-75.5 -30.5 q-43 0 -76 30.5t-33 75.5zM1024 1280q0 45 32 77t77 32q43 0 74.5 -32t31.5 -77t-30.5 -75.5t-75.5 -30.5q-43 0 -76 30.5t-33 75.5zM1024 1536q0 45 32 77t77 32q43 0 74.5 -32t31.5 -77t-30.5 -75.5t-75.5 -30.5q-43 0 -76 30.5t-33 75.5z" />
<glyph unicode="&#xdc;" d="M-2 512q0 45 31.5 77t74.5 32q45 0 77 -32t32 -77t-30.5 -75.5t-78.5 -30.5q-43 0 -74.5 31.5t-31.5 74.5zM0 256q0 45 32 77t77 32q43 0 74.5 -32t31.5 -77t-30.5 -75.5t-75.5 -30.5q-43 0 -76 30.5t-33 75.5zM0 768q0 45 32 77t77 32q43 0 74.5 -32t31.5 -77 t-30.5 -75.5t-75.5 -30.5q-43 0 -76 30.5t-33 75.5zM0 1024q0 45 32 77t77 32q43 0 74.5 -32t31.5 -77t-30.5 -75.5t-75.5 -30.5q-43 0 -76 30.5t-33 75.5zM0 1280q0 45 32 77t77 32q43 0 74.5 -32t31.5 -77t-30.5 -75.5t-75.5 -30.5q-43 0 -76 30.5t-33 75.5zM256 0 q0 45 32 77t77 32q43 0 74.5 -32t31.5 -77t-31.5 -77t-74.5 -32q-45 0 -77 32t-32 77zM256 1536q0 45 32 77t77 32q43 0 74.5 -32t31.5 -77t-30.5 -75.5t-75.5 -30.5q-43 0 -76 30.5t-33 75.5zM512 0q0 45 32 77t77 32q43 0 74.5 -32t31.5 -77t-31.5 -77t-74.5 -32 q-45 0 -77 32t-32 77zM768 0q0 45 32 77t77 32q43 0 74.5 -32t31.5 -77t-31.5 -77t-74.5 -32q-45 0 -77 32t-32 77zM768 1536q0 45 32 77t77 32q43 0 74.5 -32t31.5 -77t-30.5 -75.5t-75.5 -30.5q-43 0 -76 30.5t-33 75.5zM1022 512q0 45 31.5 77t74.5 32q45 0 77 -32 t32 -77t-30.5 -75.5t-78.5 -30.5q-43 0 -74.5 31.5t-31.5 74.5zM1024 256q0 45 32 77t77 32q43 0 74.5 -32t31.5 -77t-30.5 -75.5t-75.5 -30.5q-43 0 -76 30.5t-33 75.5zM1024 768q0 45 32 77t77 32q43 0 74.5 -32t31.5 -77t-30.5 -75.5t-75.5 -30.5q-43 0 -76 30.5 t-33 75.5zM1024 1024q0 45 32 77t77 32q43 0 74.5 -32t31.5 -77t-30.5 -75.5t-75.5 -30.5q-43 0 -76 30.5t-33 75.5zM1024 1280q0 45 32 77t77 32q43 0 74.5 -32t31.5 -77t-30.5 -75.5t-75.5 -30.5q-43 0 -76 30.5t-33 75.5z" />
<glyph unicode="&#xdf;" d="M0 0q0 45 32 77t77 32q43 0 74.5 -32t31.5 -77t-31.5 -77t-74.5 -32q-45 0 -77 32t-32 77zM125 512q0 45 31.5 77t76.5 32t76 -31t31 -78q0 -45 -30.5 -75.5t-76.5 -30.5q-43 0 -75.5 30.5t-32.5 75.5zM129 256q0 43 31 76t76 33t76.5 -32t31.5 -77t-30.5 -75.5 t-77.5 -30.5q-45 0 -76 30.5t-31 75.5zM129 768q0 43 31 76t76 33t76.5 -32t31.5 -77t-30.5 -75.5t-77.5 -30.5q-45 0 -76 30.5t-31 75.5zM129 1024q0 43 31 76t76 33t76.5 -32t31.5 -77t-30.5 -75.5t-77.5 -30.5q-45 0 -76 30.5t-31 75.5zM129 1280q0 43 31 76t76 33 t76.5 -32t31.5 -77t-30.5 -75.5t-77.5 -30.5q-45 0 -76 30.5t-31 75.5zM256 1536q0 45 32 77t77 32q43 0 74.5 -32t31.5 -77t-30.5 -75.5t-75.5 -30.5q-43 0 -76 30.5t-33 75.5zM385 0q0 43 31 76t76 33t76.5 -32t31.5 -77t-31.5 -77t-76.5 -32t-76 31t-31 78zM512 768 q0 45 32 77t77 32q43 0 74.5 -32t31.5 -77t-30.5 -75.5t-75.5 -30.5q-43 0 -76 30.5t-33 75.5zM512 1536q0 45 32 77t77 32q43 0 74.5 -32t31.5 -77t-30.5 -75.5t-75.5 -30.5q-43 0 -76 30.5t-33 75.5zM641 0q0 43 31 76t76 33t76.5 -32t31.5 -77t-31.5 -77t-76.5 -32 t-76 31t-31 78zM768 768q0 45 32 77t77 32q43 0 74.5 -32t31.5 -77t-30.5 -75.5t-75.5 -30.5q-43 0 -76 30.5t-33 75.5zM768 1536q0 45 32 77t77 32q43 0 74.5 -32t31.5 -77t-30.5 -75.5t-75.5 -30.5q-43 0 -76 30.5t-33 75.5zM897 0q0 43 31 76t76 33t76.5 -32t31.5 -77 t-31.5 -77t-76.5 -32t-76 31t-31 78zM1022 512q0 45 31.5 77t74.5 32q45 0 77 -32t32 -77t-30.5 -75.5t-78.5 -30.5q-43 0 -74.5 31.5t-31.5 74.5zM1024 256q0 45 32 77t77 32q43 0 74.5 -32t31.5 -77t-30.5 -75.5t-75.5 -30.5q-43 0 -76 30.5t-33 75.5zM1024 1024 q0 45 32 77t77 32q43 0 74.5 -32t31.5 -77t-30.5 -75.5t-75.5 -30.5q-43 0 -76 30.5t-33 75.5zM1024 1280q0 45 32 77t77 32q43 0 74.5 -32t31.5 -77t-30.5 -75.5t-75.5 -30.5q-43 0 -76 30.5t-33 75.5z" />
<glyph unicode="&#xe0;" d="M-2 512q0 45 31.5 77t74.5 32q45 0 77 -32t32 -77t-30.5 -75.5t-78.5 -30.5q-43 0 -74.5 31.5t-31.5 74.5zM0 256q0 45 32 77t77 32q43 0 74.5 -32t31.5 -77t-30.5 -75.5t-75.5 -30.5q-43 0 -76 30.5t-33 75.5zM0 768q0 45 32 77t77 32q43 0 74.5 -32t31.5 -77 t-30.5 -75.5t-75.5 -30.5q-43 0 -76 30.5t-33 75.5zM256 0q0 45 32 77t77 32q43 0 74.5 -32t31.5 -77t-31.5 -77t-74.5 -32q-45 0 -77 32t-32 77zM256 1024q0 45 32 77t77 32q43 0 74.5 -32t31.5 -77t-30.5 -75.5t-75.5 -30.5q-43 0 -76 30.5t-33 75.5zM385 1536q0 43 31 76 t76 33t76.5 -32t31.5 -77t-30.5 -75.5t-77.5 -30.5q-45 0 -76 30.5t-31 75.5zM512 256q0 45 32 77t77 32q43 0 74.5 -32t31.5 -77t-30.5 -75.5t-75.5 -30.5q-43 0 -76 30.5t-33 75.5zM512 1024q0 45 32 77t77 32q43 0 74.5 -32t31.5 -77t-30.5 -75.5t-75.5 -30.5 q-43 0 -76 30.5t-33 75.5zM512 1280q0 45 32 77t77 32q43 0 74.5 -32t31.5 -77t-30.5 -75.5t-75.5 -30.5q-43 0 -76 30.5t-33 75.5zM766 512q0 45 31.5 77t74.5 32q45 0 77 -32t32 -77t-30.5 -75.5t-78.5 -30.5q-43 0 -74.5 31.5t-31.5 74.5zM768 0q0 45 32 77t77 32 q43 0 74.5 -32t31.5 -77t-31.5 -77t-74.5 -32q-45 0 -77 32t-32 77zM768 256q0 45 32 77t77 32q43 0 74.5 -32t31.5 -77t-30.5 -75.5t-75.5 -30.5q-43 0 -76 30.5t-33 75.5zM768 768q0 45 32 77t77 32q43 0 74.5 -32t31.5 -77t-30.5 -75.5t-75.5 -30.5q-43 0 -76 30.5 t-33 75.5zM768 1024q0 45 32 77t77 32q43 0 74.5 -32t31.5 -77t-30.5 -75.5t-75.5 -30.5q-43 0 -76 30.5t-33 75.5z" />
<glyph unicode="&#xe1;" d="M-2 512q0 45 31.5 77t74.5 32q45 0 77 -32t32 -77t-30.5 -75.5t-78.5 -30.5q-43 0 -74.5 31.5t-31.5 74.5zM0 256q0 45 32 77t77 32q43 0 74.5 -32t31.5 -77t-30.5 -75.5t-75.5 -30.5q-43 0 -76 30.5t-33 75.5zM0 768q0 45 32 77t77 32q43 0 74.5 -32t31.5 -77 t-30.5 -75.5t-75.5 -30.5q-43 0 -76 30.5t-33 75.5zM256 0q0 45 32 77t77 32q43 0 74.5 -32t31.5 -77t-31.5 -77t-74.5 -32q-45 0 -77 32t-32 77zM256 1024q0 45 32 77t77 32q43 0 74.5 -32t31.5 -77t-30.5 -75.5t-75.5 -30.5q-43 0 -76 30.5t-33 75.5zM385 1280q0 43 31 76 t76 33t76.5 -32t31.5 -77t-30.5 -75.5t-77.5 -30.5q-45 0 -76 30.5t-31 75.5zM512 256q0 45 32 77t77 32q43 0 74.5 -32t31.5 -77t-30.5 -75.5t-75.5 -30.5q-43 0 -76 30.5t-33 75.5zM512 1024q0 45 32 77t77 32q43 0 74.5 -32t31.5 -77t-30.5 -75.5t-75.5 -30.5 q-43 0 -76 30.5t-33 75.5zM512 1536q0 45 32 77t77 32q43 0 74.5 -32t31.5 -77t-30.5 -75.5t-75.5 -30.5q-43 0 -76 30.5t-33 75.5zM766 512q0 45 31.5 77t74.5 32q45 0 77 -32t32 -77t-30.5 -75.5t-78.5 -30.5q-43 0 -74.5 31.5t-31.5 74.5zM768 0q0 45 32 77t77 32 q43 0 74.5 -32t31.5 -77t-31.5 -77t-74.5 -32q-45 0 -77 32t-32 77zM768 256q0 45 32 77t77 32q43 0 74.5 -32t31.5 -77t-30.5 -75.5t-75.5 -30.5q-43 0 -76 30.5t-33 75.5zM768 768q0 45 32 77t77 32q43 0 74.5 -32t31.5 -77t-30.5 -75.5t-75.5 -30.5q-43 0 -76 30.5 t-33 75.5zM768 1024q0 45 32 77t77 32q43 0 74.5 -32t31.5 -77t-30.5 -75.5t-75.5 -30.5q-43 0 -76 30.5t-33 75.5z" />
<glyph unicode="&#xe2;" d="M-2 512q0 45 31.5 77t74.5 32q45 0 77 -32t32 -77t-30.5 -75.5t-78.5 -30.5q-43 0 -74.5 31.5t-31.5 74.5zM0 256q0 45 32 77t77 32q43 0 74.5 -32t31.5 -77t-30.5 -75.5t-75.5 -30.5q-43 0 -76 30.5t-33 75.5zM0 768q0 45 32 77t77 32q43 0 74.5 -32t31.5 -77 t-30.5 -75.5t-75.5 -30.5q-43 0 -76 30.5t-33 75.5zM256 0q0 45 32 77t77 32q43 0 74.5 -32t31.5 -77t-31.5 -77t-74.5 -32q-45 0 -77 32t-32 77zM256 1024q0 45 32 77t77 32q43 0 74.5 -32t31.5 -77t-30.5 -75.5t-75.5 -30.5q-43 0 -76 30.5t-33 75.5zM385 1280q0 43 31 76 t76 33t76.5 -32t31.5 -77t-30.5 -75.5t-77.5 -30.5q-45 0 -76 30.5t-31 75.5zM512 256q0 45 32 77t77 32q43 0 74.5 -32t31.5 -77t-30.5 -75.5t-75.5 -30.5q-43 0 -76 30.5t-33 75.5zM512 1024q0 45 32 77t77 32q43 0 74.5 -32t31.5 -77t-30.5 -75.5t-75.5 -30.5 q-43 0 -76 30.5t-33 75.5zM512 1536q0 45 32 77t77 32q43 0 74.5 -32t31.5 -77t-30.5 -75.5t-75.5 -30.5q-43 0 -76 30.5t-33 75.5zM641 1280q0 43 31 76t76 33t76.5 -32t31.5 -77t-30.5 -75.5t-77.5 -30.5q-45 0 -76 30.5t-31 75.5zM766 512q0 45 31.5 77t74.5 32 q45 0 77 -32t32 -77t-30.5 -75.5t-78.5 -30.5q-43 0 -74.5 31.5t-31.5 74.5zM768 0q0 45 32 77t77 32q43 0 74.5 -32t31.5 -77t-31.5 -77t-74.5 -32q-45 0 -77 32t-32 77zM768 256q0 45 32 77t77 32q43 0 74.5 -32t31.5 -77t-30.5 -75.5t-75.5 -30.5q-43 0 -76 30.5 t-33 75.5zM768 768q0 45 32 77t77 32q43 0 74.5 -32t31.5 -77t-30.5 -75.5t-75.5 -30.5q-43 0 -76 30.5t-33 75.5zM768 1024q0 45 32 77t77 32q43 0 74.5 -32t31.5 -77t-30.5 -75.5t-75.5 -30.5q-43 0 -76 30.5t-33 75.5z" />
<glyph unicode="&#xe3;" d="M-2 512q0 45 31.5 77t74.5 32q45 0 77 -32t32 -77t-30.5 -75.5t-78.5 -30.5q-43 0 -74.5 31.5t-31.5 74.5zM0 256q0 45 32 77t77 32q43 0 74.5 -32t31.5 -77t-30.5 -75.5t-75.5 -30.5q-43 0 -76 30.5t-33 75.5zM0 768q0 45 32 77t77 32q43 0 74.5 -32t31.5 -77 t-30.5 -75.5t-75.5 -30.5q-43 0 -76 30.5t-33 75.5zM0 1280q0 45 32 77t77 32q43 0 74.5 -32t31.5 -77t-30.5 -75.5t-75.5 -30.5q-43 0 -76 30.5t-33 75.5zM256 0q0 45 32 77t77 32q43 0 74.5 -32t31.5 -77t-31.5 -77t-74.5 -32q-45 0 -77 32t-32 77zM256 1024q0 45 32 77 t77 32q43 0 74.5 -32t31.5 -77t-30.5 -75.5t-75.5 -30.5q-43 0 -76 30.5t-33 75.5zM256 1536q0 45 32 77t77 32q43 0 74.5 -32t31.5 -77t-30.5 -75.5t-75.5 -30.5q-43 0 -76 30.5t-33 75.5zM512 256q0 45 32 77t77 32q43 0 74.5 -32t31.5 -77t-30.5 -75.5t-75.5 -30.5 q-43 0 -76 30.5t-33 75.5zM512 1024q0 45 32 77t77 32q43 0 74.5 -32t31.5 -77t-30.5 -75.5t-75.5 -30.5q-43 0 -76 30.5t-33 75.5zM512 1280q0 45 32 77t77 32q43 0 74.5 -32t31.5 -77t-30.5 -75.5t-75.5 -30.5q-43 0 -76 30.5t-33 75.5zM766 512q0 45 31.5 77t74.5 32 q45 0 77 -32t32 -77t-30.5 -75.5t-78.5 -30.5q-43 0 -74.5 31.5t-31.5 74.5zM768 0q0 45 32 77t77 32q43 0 74.5 -32t31.5 -77t-31.5 -77t-74.5 -32q-45 0 -77 32t-32 77zM768 256q0 45 32 77t77 32q43 0 74.5 -32t31.5 -77t-30.5 -75.5t-75.5 -30.5q-43 0 -76 30.5 t-33 75.5zM768 768q0 45 32 77t77 32q43 0 74.5 -32t31.5 -77t-30.5 -75.5t-75.5 -30.5q-43 0 -76 30.5t-33 75.5zM768 1024q0 45 32 77t77 32q43 0 74.5 -32t31.5 -77t-30.5 -75.5t-75.5 -30.5q-43 0 -76 30.5t-33 75.5zM768 1536q0 45 32 77t77 32q43 0 74.5 -32t31.5 -77 t-30.5 -75.5t-75.5 -30.5q-43 0 -76 30.5t-33 75.5z" />
<glyph unicode="&#xe4;" d="M-2 512q0 45 31.5 77t74.5 32q45 0 77 -32t32 -77t-30.5 -75.5t-78.5 -30.5q-43 0 -74.5 31.5t-31.5 74.5zM0 256q0 45 32 77t77 32q43 0 74.5 -32t31.5 -77t-30.5 -75.5t-75.5 -30.5q-43 0 -76 30.5t-33 75.5zM0 768q0 45 32 77t77 32q43 0 74.5 -32t31.5 -77 t-30.5 -75.5t-75.5 -30.5q-43 0 -76 30.5t-33 75.5zM256 0q0 45 32 77t77 32q43 0 74.5 -32t31.5 -77t-31.5 -77t-74.5 -32q-45 0 -77 32t-32 77zM256 1024q0 45 32 77t77 32q43 0 74.5 -32t31.5 -77t-30.5 -75.5t-75.5 -30.5q-43 0 -76 30.5t-33 75.5zM256 1536q0 45 32 77 t77 32q43 0 74.5 -32t31.5 -77t-30.5 -75.5t-75.5 -30.5q-43 0 -76 30.5t-33 75.5zM512 256q0 45 32 77t77 32q43 0 74.5 -32t31.5 -77t-30.5 -75.5t-75.5 -30.5q-43 0 -76 30.5t-33 75.5zM512 1024q0 45 32 77t77 32q43 0 74.5 -32t31.5 -77t-30.5 -75.5t-75.5 -30.5 q-43 0 -76 30.5t-33 75.5zM766 512q0 45 31.5 77t74.5 32q45 0 77 -32t32 -77t-30.5 -75.5t-78.5 -30.5q-43 0 -74.5 31.5t-31.5 74.5zM768 0q0 45 32 77t77 32q43 0 74.5 -32t31.5 -77t-31.5 -77t-74.5 -32q-45 0 -77 32t-32 77zM768 256q0 45 32 77t77 32q43 0 74.5 -32 t31.5 -77t-30.5 -75.5t-75.5 -30.5q-43 0 -76 30.5t-33 75.5zM768 768q0 45 32 77t77 32q43 0 74.5 -32t31.5 -77t-30.5 -75.5t-75.5 -30.5q-43 0 -76 30.5t-33 75.5zM768 1024q0 45 32 77t77 32q43 0 74.5 -32t31.5 -77t-30.5 -75.5t-75.5 -30.5q-43 0 -76 30.5t-33 75.5z M768 1536q0 45 32 77t77 32q43 0 74.5 -32t31.5 -77t-30.5 -75.5t-75.5 -30.5q-43 0 -76 30.5t-33 75.5z" />
<glyph unicode="&#xe5;" d="M-2 512q0 45 31.5 77t74.5 32q45 0 77 -32t32 -77t-30.5 -75.5t-78.5 -30.5q-43 0 -74.5 31.5t-31.5 74.5zM0 256q0 45 32 77t77 32q43 0 74.5 -32t31.5 -77t-30.5 -75.5t-75.5 -30.5q-43 0 -76 30.5t-33 75.5zM0 768q0 45 32 77t77 32q43 0 74.5 -32t31.5 -77 t-30.5 -75.5t-75.5 -30.5q-43 0 -76 30.5t-33 75.5zM129 1280q0 43 31 76t76 33t76.5 -32t31.5 -77t-30.5 -75.5t-77.5 -30.5q-45 0 -76 30.5t-31 75.5zM256 0q0 45 32 77t77 32q43 0 74.5 -32t31.5 -77t-31.5 -77t-74.5 -32q-45 0 -77 32t-32 77zM256 768q0 45 32 77t77 32 q43 0 74.5 -32t31.5 -77t-30.5 -75.5t-75.5 -30.5q-43 0 -76 30.5t-33 75.5zM385 1024q0 43 31 76t76 33t76.5 -32t31.5 -77t-30.5 -75.5t-77.5 -30.5q-45 0 -76 30.5t-31 75.5zM385 1536q0 43 31 76t76 33t76.5 -32t31.5 -77t-30.5 -75.5t-77.5 -30.5q-45 0 -76 30.5 t-31 75.5zM512 256q0 45 32 77t77 32q43 0 74.5 -32t31.5 -77t-30.5 -75.5t-75.5 -30.5q-43 0 -76 30.5t-33 75.5zM512 768q0 45 32 77t77 32q43 0 74.5 -32t31.5 -77t-30.5 -75.5t-75.5 -30.5q-43 0 -76 30.5t-33 75.5zM641 1280q0 43 31 76t76 33t76.5 -32t31.5 -77 t-30.5 -75.5t-77.5 -30.5q-45 0 -76 30.5t-31 75.5zM766 512q0 45 31.5 77t74.5 32q45 0 77 -32t32 -77t-30.5 -75.5t-78.5 -30.5q-43 0 -74.5 31.5t-31.5 74.5zM768 0q0 45 32 77t77 32q43 0 74.5 -32t31.5 -77t-31.5 -77t-74.5 -32q-45 0 -77 32t-32 77zM768 256 q0 45 32 77t77 32q43 0 74.5 -32t31.5 -77t-30.5 -75.5t-75.5 -30.5q-43 0 -76 30.5t-33 75.5zM768 768q0 45 32 77t77 32q43 0 74.5 -32t31.5 -77t-30.5 -75.5t-75.5 -30.5q-43 0 -76 30.5t-33 75.5z" />
<glyph unicode="&#xe6;" d="M-2 512q0 45 31.5 77t74.5 32q45 0 77 -32t32 -77t-30.5 -75.5t-78.5 -30.5q-43 0 -74.5 31.5t-31.5 74.5zM0 0q0 45 32 77t77 32q43 0 74.5 -32t31.5 -77t-31.5 -77t-74.5 -32q-45 0 -77 32t-32 77zM0 256q0 45 32 77t77 32q43 0 74.5 -32t31.5 -77t-30.5 -75.5 t-75.5 -30.5q-43 0 -76 30.5t-33 75.5zM0 768q0 45 32 77t77 32q43 0 74.5 -32t31.5 -77t-30.5 -75.5t-75.5 -30.5q-43 0 -76 30.5t-33 75.5zM256 129q0 43 32 75t77 32q43 0 74.5 -32t31.5 -75q0 -45 -31.5 -77t-74.5 -32q-45 0 -77 32t-32 77zM256 1024q0 45 32 77t77 32 q43 0 74.5 -32t31.5 -77t-30.5 -75.5t-75.5 -30.5q-43 0 -76 30.5t-33 75.5zM510 512q0 45 31.5 77t74.5 32q45 0 77 -32t32 -77t-30.5 -75.5t-78.5 -30.5q-43 0 -74.5 31.5t-31.5 74.5zM512 0q0 45 32 77t77 32q43 0 74.5 -32t31.5 -77t-31.5 -77t-74.5 -32q-45 0 -77 32 t-32 77zM512 256q0 45 32 77t77 32q43 0 74.5 -32t31.5 -77t-30.5 -75.5t-75.5 -30.5q-43 0 -76 30.5t-33 75.5zM512 768q0 45 32 77t77 32q43 0 74.5 -32t31.5 -77t-30.5 -75.5t-75.5 -30.5q-43 0 -76 30.5t-33 75.5zM512 1024q0 45 32 77t77 32q43 0 74.5 -32t31.5 -77 t-30.5 -75.5t-75.5 -30.5q-43 0 -76 30.5t-33 75.5zM768 0q0 45 32 77t77 32q43 0 74.5 -32t31.5 -77t-31.5 -77t-74.5 -32q-45 0 -77 32t-32 77zM768 512q0 45 32 77t77 32q43 0 74.5 -32t31.5 -77t-30.5 -75.5t-75.5 -30.5q-43 0 -76 30.5t-33 75.5zM768 1024q0 45 32 77 t77 32q43 0 74.5 -32t31.5 -77t-30.5 -75.5t-75.5 -30.5q-43 0 -76 30.5t-33 75.5zM1024 512q0 45 32 77t77 32q43 0 74.5 -32t31.5 -77t-30.5 -75.5t-75.5 -30.5q-43 0 -76 30.5t-33 75.5zM1026 768q0 45 32 77t77 32t75.5 -31t30.5 -78q0 -45 -30.5 -75.5t-75.5 -30.5 q-43 0 -76 30.5t-33 75.5z" />
<glyph unicode="&#xe7;" d="M-2 512q0 45 31.5 77t74.5 32q45 0 77 -32t32 -77t-30.5 -75.5t-78.5 -30.5q-43 0 -74.5 31.5t-31.5 74.5zM0 256q0 45 32 77t77 32q43 0 74.5 -32t31.5 -77t-30.5 -75.5t-75.5 -30.5q-43 0 -76 30.5t-33 75.5zM0 768q0 45 32 77t77 32q43 0 74.5 -32t31.5 -77 t-30.5 -75.5t-75.5 -30.5q-43 0 -76 30.5t-33 75.5zM256 0q0 45 32 77t77 32q43 0 74.5 -32t31.5 -77t-31.5 -77t-74.5 -32q-45 0 -77 32t-32 77zM256 1024q0 45 32 77t77 32q43 0 74.5 -32t31.5 -77t-30.5 -75.5t-75.5 -30.5q-43 0 -76 30.5t-33 75.5zM385 -512 q0 45 31 75.5t76 30.5q43 0 75.5 -30.5t32.5 -75.5t-31.5 -77t-76.5 -32t-76 31t-31 78zM512 0q0 45 32 77t77 32q43 0 74.5 -32t31.5 -77t-31.5 -77t-74.5 -32q-45 0 -77 32t-32 77zM512 -256q0 45 31 75.5t78 30.5q43 0 74.5 -31.5t31.5 -74.5q0 -45 -31.5 -77t-74.5 -32 q-45 0 -77 32t-32 77zM512 1024q0 45 32 77t77 32q43 0 74.5 -32t31.5 -77t-30.5 -75.5t-75.5 -30.5q-43 0 -76 30.5t-33 75.5zM768 0q0 45 32 77t77 32q43 0 74.5 -32t31.5 -77t-31.5 -77t-74.5 -32q-45 0 -77 32t-32 77zM768 1024q0 45 32 77t77 32q43 0 74.5 -32 t31.5 -77t-30.5 -75.5t-75.5 -30.5q-43 0 -76 30.5t-33 75.5z" />
<glyph unicode="&#xe8;" d="M-2 512q0 45 31.5 77t74.5 32q45 0 77 -32t32 -77t-30.5 -75.5t-78.5 -30.5q-43 0 -74.5 31.5t-31.5 74.5zM0 256q0 45 32 77t77 32q43 0 74.5 -32t31.5 -77t-30.5 -75.5t-75.5 -30.5q-43 0 -76 30.5t-33 75.5zM0 768q0 45 32 77t77 32q43 0 74.5 -32t31.5 -77 t-30.5 -75.5t-75.5 -30.5q-43 0 -76 30.5t-33 75.5zM256 0q0 45 32 77t77 32q43 0 74.5 -32t31.5 -77t-31.5 -77t-74.5 -32q-45 0 -77 32t-32 77zM256 512q0 45 32 77t77 32q43 0 74.5 -32t31.5 -77t-30.5 -75.5t-75.5 -30.5q-43 0 -76 30.5t-33 75.5zM256 1024q0 45 32 77 t77 32q43 0 74.5 -32t31.5 -77t-30.5 -75.5t-75.5 -30.5q-43 0 -76 30.5t-33 75.5zM385 1536q0 43 31 76t76 33t76.5 -32t31.5 -77t-30.5 -75.5t-77.5 -30.5q-45 0 -76 30.5t-31 75.5zM512 0q0 45 32 77t77 32q43 0 74.5 -32t31.5 -77t-31.5 -77t-74.5 -32q-45 0 -77 32 t-32 77zM512 512q0 45 32 77t77 32q43 0 74.5 -32t31.5 -77t-30.5 -75.5t-75.5 -30.5q-43 0 -76 30.5t-33 75.5zM512 1024q0 45 32 77t77 32q43 0 74.5 -32t31.5 -77t-30.5 -75.5t-75.5 -30.5q-43 0 -76 30.5t-33 75.5zM512 1280q0 45 32 77t77 32q43 0 74.5 -32t31.5 -77 t-30.5 -75.5t-75.5 -30.5q-43 0 -76 30.5t-33 75.5zM768 0q0 45 32 77t77 32q43 0 74.5 -32t31.5 -77t-31.5 -77t-74.5 -32q-45 0 -77 32t-32 77zM768 512q0 45 32 77t77 32q43 0 74.5 -32t31.5 -77t-30.5 -75.5t-75.5 -30.5q-43 0 -76 30.5t-33 75.5zM768 1024q0 45 32 77 t77 32q43 0 74.5 -32t31.5 -77t-30.5 -75.5t-75.5 -30.5q-43 0 -76 30.5t-33 75.5zM1024 512q0 45 32 77t77 32q43 0 74.5 -32t31.5 -77t-30.5 -75.5t-75.5 -30.5q-43 0 -76 30.5t-33 75.5zM1026 768q0 45 32 77t77 32t75.5 -31t30.5 -78q0 -45 -30.5 -75.5t-75.5 -30.5 q-43 0 -76 30.5t-33 75.5z" />
<glyph unicode="&#xe9;" d="M-2 512q0 45 31.5 77t74.5 32q45 0 77 -32t32 -77t-30.5 -75.5t-78.5 -30.5q-43 0 -74.5 31.5t-31.5 74.5zM0 256q0 45 32 77t77 32q43 0 74.5 -32t31.5 -77t-30.5 -75.5t-75.5 -30.5q-43 0 -76 30.5t-33 75.5zM0 768q0 45 32 77t77 32q43 0 74.5 -32t31.5 -77 t-30.5 -75.5t-75.5 -30.5q-43 0 -76 30.5t-33 75.5zM256 0q0 45 32 77t77 32q43 0 74.5 -32t31.5 -77t-31.5 -77t-74.5 -32q-45 0 -77 32t-32 77zM256 512q0 45 32 77t77 32q43 0 74.5 -32t31.5 -77t-30.5 -75.5t-75.5 -30.5q-43 0 -76 30.5t-33 75.5zM256 1024q0 45 32 77 t77 32q43 0 74.5 -32t31.5 -77t-30.5 -75.5t-75.5 -30.5q-43 0 -76 30.5t-33 75.5zM385 1280q0 43 31 76t76 33t76.5 -32t31.5 -77t-30.5 -75.5t-77.5 -30.5q-45 0 -76 30.5t-31 75.5zM512 0q0 45 32 77t77 32q43 0 74.5 -32t31.5 -77t-31.5 -77t-74.5 -32q-45 0 -77 32 t-32 77zM512 512q0 45 32 77t77 32q43 0 74.5 -32t31.5 -77t-30.5 -75.5t-75.5 -30.5q-43 0 -76 30.5t-33 75.5zM512 1024q0 45 32 77t77 32q43 0 74.5 -32t31.5 -77t-30.5 -75.5t-75.5 -30.5q-43 0 -76 30.5t-33 75.5zM512 1536q0 45 32 77t77 32q43 0 74.5 -32t31.5 -77 t-30.5 -75.5t-75.5 -30.5q-43 0 -76 30.5t-33 75.5zM768 0q0 45 32 77t77 32q43 0 74.5 -32t31.5 -77t-31.5 -77t-74.5 -32q-45 0 -77 32t-32 77zM768 512q0 45 32 77t77 32q43 0 74.5 -32t31.5 -77t-30.5 -75.5t-75.5 -30.5q-43 0 -76 30.5t-33 75.5zM768 1024q0 45 32 77 t77 32q43 0 74.5 -32t31.5 -77t-30.5 -75.5t-75.5 -30.5q-43 0 -76 30.5t-33 75.5zM1024 512q0 45 32 77t77 32q43 0 74.5 -32t31.5 -77t-30.5 -75.5t-75.5 -30.5q-43 0 -76 30.5t-33 75.5zM1026 768q0 45 32 77t77 32t75.5 -31t30.5 -78q0 -45 -30.5 -75.5t-75.5 -30.5 q-43 0 -76 30.5t-33 75.5z" />
<glyph unicode="&#xea;" d="M-2 512q0 45 31.5 77t74.5 32q45 0 77 -32t32 -77t-30.5 -75.5t-78.5 -30.5q-43 0 -74.5 31.5t-31.5 74.5zM0 256q0 45 32 77t77 32q43 0 74.5 -32t31.5 -77t-30.5 -75.5t-75.5 -30.5q-43 0 -76 30.5t-33 75.5zM0 768q0 45 32 77t77 32q43 0 74.5 -32t31.5 -77 t-30.5 -75.5t-75.5 -30.5q-43 0 -76 30.5t-33 75.5zM256 0q0 45 32 77t77 32q43 0 74.5 -32t31.5 -77t-31.5 -77t-74.5 -32q-45 0 -77 32t-32 77zM256 512q0 45 32 77t77 32q43 0 74.5 -32t31.5 -77t-30.5 -75.5t-75.5 -30.5q-43 0 -76 30.5t-33 75.5zM256 1024q0 45 32 77 t77 32q43 0 74.5 -32t31.5 -77t-30.5 -75.5t-75.5 -30.5q-43 0 -76 30.5t-33 75.5zM385 1280q0 43 31 76t76 33t76.5 -32t31.5 -77t-30.5 -75.5t-77.5 -30.5q-45 0 -76 30.5t-31 75.5zM512 0q0 45 32 77t77 32q43 0 74.5 -32t31.5 -77t-31.5 -77t-74.5 -32q-45 0 -77 32 t-32 77zM512 512q0 45 32 77t77 32q43 0 74.5 -32t31.5 -77t-30.5 -75.5t-75.5 -30.5q-43 0 -76 30.5t-33 75.5zM512 1024q0 45 32 77t77 32q43 0 74.5 -32t31.5 -77t-30.5 -75.5t-75.5 -30.5q-43 0 -76 30.5t-33 75.5zM512 1536q0 45 32 77t77 32q43 0 74.5 -32t31.5 -77 t-30.5 -75.5t-75.5 -30.5q-43 0 -76 30.5t-33 75.5zM641 1280q0 43 31 76t76 33t76.5 -32t31.5 -77t-30.5 -75.5t-77.5 -30.5q-45 0 -76 30.5t-31 75.5zM768 0q0 45 32 77t77 32q43 0 74.5 -32t31.5 -77t-31.5 -77t-74.5 -32q-45 0 -77 32t-32 77zM768 512q0 45 32 77t77 32 q43 0 74.5 -32t31.5 -77t-30.5 -75.5t-75.5 -30.5q-43 0 -76 30.5t-33 75.5zM768 1024q0 45 32 77t77 32q43 0 74.5 -32t31.5 -77t-30.5 -75.5t-75.5 -30.5q-43 0 -76 30.5t-33 75.5zM1024 512q0 45 32 77t77 32q43 0 74.5 -32t31.5 -77t-30.5 -75.5t-75.5 -30.5 q-43 0 -76 30.5t-33 75.5zM1026 768q0 45 32 77t77 32t75.5 -31t30.5 -78q0 -45 -30.5 -75.5t-75.5 -30.5q-43 0 -76 30.5t-33 75.5z" />
<glyph unicode="&#xeb;" d="M-2 512q0 45 31.5 77t74.5 32q45 0 77 -32t32 -77t-30.5 -75.5t-78.5 -30.5q-43 0 -74.5 31.5t-31.5 74.5zM0 256q0 45 32 77t77 32q43 0 74.5 -32t31.5 -77t-30.5 -75.5t-75.5 -30.5q-43 0 -76 30.5t-33 75.5zM0 768q0 45 32 77t77 32q43 0 74.5 -32t31.5 -77 t-30.5 -75.5t-75.5 -30.5q-43 0 -76 30.5t-33 75.5zM256 0q0 45 32 77t77 32q43 0 74.5 -32t31.5 -77t-31.5 -77t-74.5 -32q-45 0 -77 32t-32 77zM256 512q0 45 32 77t77 32q43 0 74.5 -32t31.5 -77t-30.5 -75.5t-75.5 -30.5q-43 0 -76 30.5t-33 75.5zM256 1024q0 45 32 77 t77 32q43 0 74.5 -32t31.5 -77t-30.5 -75.5t-75.5 -30.5q-43 0 -76 30.5t-33 75.5zM256 1536q0 45 32 77t77 32q43 0 74.5 -32t31.5 -77t-30.5 -75.5t-75.5 -30.5q-43 0 -76 30.5t-33 75.5zM512 0q0 45 32 77t77 32q43 0 74.5 -32t31.5 -77t-31.5 -77t-74.5 -32 q-45 0 -77 32t-32 77zM512 512q0 45 32 77t77 32q43 0 74.5 -32t31.5 -77t-30.5 -75.5t-75.5 -30.5q-43 0 -76 30.5t-33 75.5zM512 1024q0 45 32 77t77 32q43 0 74.5 -32t31.5 -77t-30.5 -75.5t-75.5 -30.5q-43 0 -76 30.5t-33 75.5zM768 0q0 45 32 77t77 32q43 0 74.5 -32 t31.5 -77t-31.5 -77t-74.5 -32q-45 0 -77 32t-32 77zM768 512q0 45 32 77t77 32q43 0 74.5 -32t31.5 -77t-30.5 -75.5t-75.5 -30.5q-43 0 -76 30.5t-33 75.5zM768 1024q0 45 32 77t77 32q43 0 74.5 -32t31.5 -77t-30.5 -75.5t-75.5 -30.5q-43 0 -76 30.5t-33 75.5zM768 1536 q0 45 32 77t77 32q43 0 74.5 -32t31.5 -77t-30.5 -75.5t-75.5 -30.5q-43 0 -76 30.5t-33 75.5zM1024 512q0 45 32 77t77 32q43 0 74.5 -32t31.5 -77t-30.5 -75.5t-75.5 -30.5q-43 0 -76 30.5t-33 75.5zM1026 768q0 45 32 77t77 32t75.5 -31t30.5 -78q0 -45 -30.5 -75.5 t-75.5 -30.5q-43 0 -76 30.5t-33 75.5z" />
<glyph unicode="&#xec;" d="M256 0q0 45 32 77t77 32q43 0 74.5 -32t31.5 -77t-31.5 -77t-74.5 -32q-45 0 -77 32t-32 77zM256 1024q0 45 32 77t77 32q43 0 74.5 -32t31.5 -77t-30.5 -75.5t-75.5 -30.5q-43 0 -76 30.5t-33 75.5zM385 1536q0 43 31 76t76 33t76.5 -32t31.5 -77t-30.5 -75.5 t-77.5 -30.5q-45 0 -76 30.5t-31 75.5zM510 512q0 45 31.5 77t74.5 32q45 0 77 -32t32 -77t-30.5 -75.5t-78.5 -30.5q-43 0 -74.5 31.5t-31.5 74.5zM512 0q0 45 32 77t77 32q43 0 74.5 -32t31.5 -77t-31.5 -77t-74.5 -32q-45 0 -77 32t-32 77zM512 256q0 45 32 77t77 32 q43 0 74.5 -32t31.5 -77t-30.5 -75.5t-75.5 -30.5q-43 0 -76 30.5t-33 75.5zM512 768q0 45 32 77t77 32q43 0 74.5 -32t31.5 -77t-30.5 -75.5t-75.5 -30.5q-43 0 -76 30.5t-33 75.5zM512 1024q0 45 32 77t77 32q43 0 74.5 -32t31.5 -77t-30.5 -75.5t-75.5 -30.5 q-43 0 -76 30.5t-33 75.5zM512 1280q0 45 32 77t77 32q43 0 74.5 -32t31.5 -77t-30.5 -75.5t-75.5 -30.5q-43 0 -76 30.5t-33 75.5zM768 0q0 45 32 77t77 32q43 0 74.5 -32t31.5 -77t-31.5 -77t-74.5 -32q-45 0 -77 32t-32 77z" />
<glyph unicode="&#xed;" d="M256 0q0 45 32 77t77 32q43 0 74.5 -32t31.5 -77t-31.5 -77t-74.5 -32q-45 0 -77 32t-32 77zM256 1024q0 45 32 77t77 32q43 0 74.5 -32t31.5 -77t-30.5 -75.5t-75.5 -30.5q-43 0 -76 30.5t-33 75.5zM510 512q0 45 31.5 77t74.5 32q45 0 77 -32t32 -77t-30.5 -75.5 t-78.5 -30.5q-43 0 -74.5 31.5t-31.5 74.5zM512 0q0 45 32 77t77 32q43 0 74.5 -32t31.5 -77t-31.5 -77t-74.5 -32q-45 0 -77 32t-32 77zM512 256q0 45 32 77t77 32q43 0 74.5 -32t31.5 -77t-30.5 -75.5t-75.5 -30.5q-43 0 -76 30.5t-33 75.5zM512 768q0 45 32 77t77 32 q43 0 74.5 -32t31.5 -77t-30.5 -75.5t-75.5 -30.5q-43 0 -76 30.5t-33 75.5zM512 1024q0 45 32 77t77 32q43 0 74.5 -32t31.5 -77t-30.5 -75.5t-75.5 -30.5q-43 0 -76 30.5t-33 75.5zM512 1280q0 45 32 77t77 32q43 0 74.5 -32t31.5 -77t-30.5 -75.5t-75.5 -30.5 q-43 0 -76 30.5t-33 75.5zM641 1536q0 43 31 76t76 33t76.5 -32t31.5 -77t-30.5 -75.5t-77.5 -30.5q-45 0 -76 30.5t-31 75.5zM768 0q0 45 32 77t77 32q43 0 74.5 -32t31.5 -77t-31.5 -77t-74.5 -32q-45 0 -77 32t-32 77z" />
<glyph unicode="&#xee;" d="M256 0q0 45 32 77t77 32q43 0 74.5 -32t31.5 -77t-31.5 -77t-74.5 -32q-45 0 -77 32t-32 77zM256 1024q0 45 32 77t77 32q43 0 74.5 -32t31.5 -77t-30.5 -75.5t-75.5 -30.5q-43 0 -76 30.5t-33 75.5zM385 1280q0 43 31 76t76 33t76.5 -32t31.5 -77t-30.5 -75.5 t-77.5 -30.5q-45 0 -76 30.5t-31 75.5zM510 512q0 45 31.5 77t74.5 32q45 0 77 -32t32 -77t-30.5 -75.5t-78.5 -30.5q-43 0 -74.5 31.5t-31.5 74.5zM512 0q0 45 32 77t77 32q43 0 74.5 -32t31.5 -77t-31.5 -77t-74.5 -32q-45 0 -77 32t-32 77zM512 256q0 45 32 77t77 32 q43 0 74.5 -32t31.5 -77t-30.5 -75.5t-75.5 -30.5q-43 0 -76 30.5t-33 75.5zM512 768q0 45 32 77t77 32q43 0 74.5 -32t31.5 -77t-30.5 -75.5t-75.5 -30.5q-43 0 -76 30.5t-33 75.5zM512 1024q0 45 32 77t77 32q43 0 74.5 -32t31.5 -77t-30.5 -75.5t-75.5 -30.5 q-43 0 -76 30.5t-33 75.5zM512 1536q0 45 32 77t77 32q43 0 74.5 -32t31.5 -77t-30.5 -75.5t-75.5 -30.5q-43 0 -76 30.5t-33 75.5zM641 1280q0 43 31 76t76 33t76.5 -32t31.5 -77t-30.5 -75.5t-77.5 -30.5q-45 0 -76 30.5t-31 75.5zM768 0q0 45 32 77t77 32q43 0 74.5 -32 t31.5 -77t-31.5 -77t-74.5 -32q-45 0 -77 32t-32 77z" />
<glyph unicode="&#xef;" d="M256 0q0 45 32 77t77 32q43 0 74.5 -32t31.5 -77t-31.5 -77t-74.5 -32q-45 0 -77 32t-32 77zM256 1024q0 45 32 77t77 32q43 0 74.5 -32t31.5 -77t-30.5 -75.5t-75.5 -30.5q-43 0 -76 30.5t-33 75.5zM256 1536q0 45 32 77t77 32q43 0 74.5 -32t31.5 -77t-30.5 -75.5 t-75.5 -30.5q-43 0 -76 30.5t-33 75.5zM510 512q0 45 31.5 77t74.5 32q45 0 77 -32t32 -77t-30.5 -75.5t-78.5 -30.5q-43 0 -74.5 31.5t-31.5 74.5zM512 0q0 45 32 77t77 32q43 0 74.5 -32t31.5 -77t-31.5 -77t-74.5 -32q-45 0 -77 32t-32 77zM512 256q0 45 32 77t77 32 q43 0 74.5 -32t31.5 -77t-30.5 -75.5t-75.5 -30.5q-43 0 -76 30.5t-33 75.5zM512 768q0 45 32 77t77 32q43 0 74.5 -32t31.5 -77t-30.5 -75.5t-75.5 -30.5q-43 0 -76 30.5t-33 75.5zM512 1024q0 45 32 77t77 32q43 0 74.5 -32t31.5 -77t-30.5 -75.5t-75.5 -30.5 q-43 0 -76 30.5t-33 75.5zM641 1536q0 43 31 76t76 33t76.5 -32t31.5 -77t-30.5 -75.5t-77.5 -30.5q-45 0 -76 30.5t-31 75.5zM768 0q0 45 32 77t77 32q43 0 74.5 -32t31.5 -77t-31.5 -77t-74.5 -32q-45 0 -77 32t-32 77z" />
<glyph unicode="&#xf1;" d="M-2 256q0 45 31.5 77t74.5 32q45 0 77 -32t32 -77t-31 -75.5t-78 -30.5q-43 0 -74.5 31.5t-31.5 74.5zM-2 768q0 45 31.5 77t74.5 32q45 0 77 -32t32 -77t-31 -75.5t-78 -30.5q-43 0 -74.5 31.5t-31.5 74.5zM-2 1024q0 45 31.5 77t74.5 32q45 0 77 -32t32 -77t-31 -75.5 t-78 -30.5q-43 0 -74.5 31.5t-31.5 74.5zM0 0q0 45 31.5 77t77.5 32q43 0 74.5 -32t31.5 -77t-31.5 -77t-74.5 -32q-45 0 -77 32t-32 77zM0 512q0 45 31.5 77t77.5 32q43 0 74.5 -32t31.5 -77t-30.5 -75.5t-75.5 -30.5q-43 0 -76 30.5t-33 75.5zM256 768q0 45 31.5 77 t77.5 32q43 0 74.5 -32t31.5 -77t-30.5 -75.5t-75.5 -30.5q-43 0 -76 30.5t-33 75.5zM256 1280q0 45 32 77t77 32q43 0 74.5 -32t31.5 -77t-30.5 -75.5t-75.5 -30.5q-43 0 -76 30.5t-33 75.5zM512 1024q0 45 31.5 77t77.5 32q43 0 74.5 -32t31.5 -77t-30.5 -75.5 t-75.5 -30.5q-43 0 -76 30.5t-33 75.5zM512 1536q0 45 32 77t77 32q43 0 74.5 -32t31.5 -77t-30.5 -75.5t-75.5 -30.5q-43 0 -76 30.5t-33 75.5zM768 1024q0 45 31.5 77t77.5 32q43 0 74.5 -32t31.5 -77t-30.5 -75.5t-75.5 -30.5q-43 0 -76 30.5t-33 75.5zM768 1280 q0 45 32 77t77 32q43 0 74.5 -32t31.5 -77t-30.5 -75.5t-75.5 -30.5q-43 0 -76 30.5t-33 75.5zM1024 0q0 45 31.5 77t77.5 32q43 0 74.5 -32t31.5 -77t-31.5 -77t-74.5 -32q-45 0 -77 32t-32 77zM1024 256q0 45 31.5 77t77.5 32q43 0 74.5 -32t31.5 -77t-30.5 -75.5 t-75.5 -30.5q-43 0 -76 30.5t-33 75.5zM1024 768q0 45 31.5 77t77.5 32q43 0 74.5 -32t31.5 -77t-30.5 -75.5t-75.5 -30.5q-43 0 -76 30.5t-33 75.5zM1024 1536q0 45 32 77t77 32q43 0 74.5 -32t31.5 -77t-30.5 -75.5t-75.5 -30.5q-43 0 -76 30.5t-33 75.5zM1026 512 q0 45 32 77t77 32t75.5 -31t30.5 -78q0 -45 -30.5 -75.5t-75.5 -30.5q-43 0 -76 30.5t-33 75.5z" />
<glyph unicode="&#xf2;" d="M-2 512q0 45 31.5 77t74.5 32q45 0 77 -32t32 -77t-30.5 -75.5t-78.5 -30.5q-43 0 -74.5 31.5t-31.5 74.5zM0 256q0 45 32 77t77 32q43 0 74.5 -32t31.5 -77t-30.5 -75.5t-75.5 -30.5q-43 0 -76 30.5t-33 75.5zM0 768q0 45 32 77t77 32q43 0 74.5 -32t31.5 -77 t-30.5 -75.5t-75.5 -30.5q-43 0 -76 30.5t-33 75.5zM256 0q0 45 32 77t77 32q43 0 74.5 -32t31.5 -77t-31.5 -77t-74.5 -32q-45 0 -77 32t-32 77zM256 1024q0 45 32 77t77 32q43 0 74.5 -32t31.5 -77t-30.5 -75.5t-75.5 -30.5q-43 0 -76 30.5t-33 75.5zM385 1536q0 43 31 76 t76 33t76.5 -32t31.5 -77t-30.5 -75.5t-77.5 -30.5q-45 0 -76 30.5t-31 75.5zM512 0q0 45 32 77t77 32q43 0 74.5 -32t31.5 -77t-31.5 -77t-74.5 -32q-45 0 -77 32t-32 77zM512 1024q0 45 32 77t77 32q43 0 74.5 -32t31.5 -77t-30.5 -75.5t-75.5 -30.5q-43 0 -76 30.5 t-33 75.5zM512 1280q0 45 32 77t77 32q43 0 74.5 -32t31.5 -77t-30.5 -75.5t-75.5 -30.5q-43 0 -76 30.5t-33 75.5zM768 0q0 45 32 77t77 32q43 0 74.5 -32t31.5 -77t-31.5 -77t-74.5 -32q-45 0 -77 32t-32 77zM768 1024q0 45 32 77t77 32q43 0 74.5 -32t31.5 -77 t-30.5 -75.5t-75.5 -30.5q-43 0 -76 30.5t-33 75.5zM1024 512q0 45 32 77t77 32q43 0 74.5 -32t31.5 -77t-30.5 -75.5t-75.5 -30.5q-43 0 -76 30.5t-33 75.5zM1026 256q0 45 32 77t77 32t75.5 -31t30.5 -78q0 -45 -30.5 -75.5t-75.5 -30.5q-43 0 -76 30.5t-33 75.5z M1026 768q0 45 32 77t77 32t75.5 -31t30.5 -78q0 -45 -30.5 -75.5t-75.5 -30.5q-43 0 -76 30.5t-33 75.5z" />
<glyph unicode="&#xf3;" d="M-2 512q0 45 31.5 77t74.5 32q45 0 77 -32t32 -77t-30.5 -75.5t-78.5 -30.5q-43 0 -74.5 31.5t-31.5 74.5zM0 256q0 45 32 77t77 32q43 0 74.5 -32t31.5 -77t-30.5 -75.5t-75.5 -30.5q-43 0 -76 30.5t-33 75.5zM0 768q0 45 32 77t77 32q43 0 74.5 -32t31.5 -77 t-30.5 -75.5t-75.5 -30.5q-43 0 -76 30.5t-33 75.5zM256 0q0 45 32 77t77 32q43 0 74.5 -32t31.5 -77t-31.5 -77t-74.5 -32q-45 0 -77 32t-32 77zM256 1024q0 45 32 77t77 32q43 0 74.5 -32t31.5 -77t-30.5 -75.5t-75.5 -30.5q-43 0 -76 30.5t-33 75.5zM385 1280q0 43 31 76 t76 33t76.5 -32t31.5 -77t-30.5 -75.5t-77.5 -30.5q-45 0 -76 30.5t-31 75.5zM512 0q0 45 32 77t77 32q43 0 74.5 -32t31.5 -77t-31.5 -77t-74.5 -32q-45 0 -77 32t-32 77zM512 1024q0 45 32 77t77 32q43 0 74.5 -32t31.5 -77t-30.5 -75.5t-75.5 -30.5q-43 0 -76 30.5 t-33 75.5zM512 1536q0 45 32 77t77 32q43 0 74.5 -32t31.5 -77t-30.5 -75.5t-75.5 -30.5q-43 0 -76 30.5t-33 75.5zM768 0q0 45 32 77t77 32q43 0 74.5 -32t31.5 -77t-31.5 -77t-74.5 -32q-45 0 -77 32t-32 77zM768 1024q0 45 32 77t77 32q43 0 74.5 -32t31.5 -77 t-30.5 -75.5t-75.5 -30.5q-43 0 -76 30.5t-33 75.5zM1024 512q0 45 32 77t77 32q43 0 74.5 -32t31.5 -77t-30.5 -75.5t-75.5 -30.5q-43 0 -76 30.5t-33 75.5zM1026 256q0 45 32 77t77 32t75.5 -31t30.5 -78q0 -45 -30.5 -75.5t-75.5 -30.5q-43 0 -76 30.5t-33 75.5z M1026 768q0 45 32 77t77 32t75.5 -31t30.5 -78q0 -45 -30.5 -75.5t-75.5 -30.5q-43 0 -76 30.5t-33 75.5z" />
<glyph unicode="&#xf4;" d="M-2 512q0 45 31.5 77t74.5 32q45 0 77 -32t32 -77t-30.5 -75.5t-78.5 -30.5q-43 0 -74.5 31.5t-31.5 74.5zM0 256q0 45 32 77t77 32q43 0 74.5 -32t31.5 -77t-30.5 -75.5t-75.5 -30.5q-43 0 -76 30.5t-33 75.5zM0 768q0 45 32 77t77 32q43 0 74.5 -32t31.5 -77 t-30.5 -75.5t-75.5 -30.5q-43 0 -76 30.5t-33 75.5zM256 0q0 45 32 77t77 32q43 0 74.5 -32t31.5 -77t-31.5 -77t-74.5 -32q-45 0 -77 32t-32 77zM256 1024q0 45 32 77t77 32q43 0 74.5 -32t31.5 -77t-30.5 -75.5t-75.5 -30.5q-43 0 -76 30.5t-33 75.5zM385 1280q0 43 31 76 t76 33t76.5 -32t31.5 -77t-30.5 -75.5t-77.5 -30.5q-45 0 -76 30.5t-31 75.5zM512 0q0 45 32 77t77 32q43 0 74.5 -32t31.5 -77t-31.5 -77t-74.5 -32q-45 0 -77 32t-32 77zM512 1024q0 45 32 77t77 32q43 0 74.5 -32t31.5 -77t-30.5 -75.5t-75.5 -30.5q-43 0 -76 30.5 t-33 75.5zM512 1536q0 45 32 77t77 32q43 0 74.5 -32t31.5 -77t-30.5 -75.5t-75.5 -30.5q-43 0 -76 30.5t-33 75.5zM641 1280q0 43 31 76t76 33t76.5 -32t31.5 -77t-30.5 -75.5t-77.5 -30.5q-45 0 -76 30.5t-31 75.5zM768 0q0 45 32 77t77 32q43 0 74.5 -32t31.5 -77 t-31.5 -77t-74.5 -32q-45 0 -77 32t-32 77zM768 1024q0 45 32 77t77 32q43 0 74.5 -32t31.5 -77t-30.5 -75.5t-75.5 -30.5q-43 0 -76 30.5t-33 75.5zM1024 512q0 45 32 77t77 32q43 0 74.5 -32t31.5 -77t-30.5 -75.5t-75.5 -30.5q-43 0 -76 30.5t-33 75.5zM1026 256 q0 45 32 77t77 32t75.5 -31t30.5 -78q0 -45 -30.5 -75.5t-75.5 -30.5q-43 0 -76 30.5t-33 75.5zM1026 768q0 45 32 77t77 32t75.5 -31t30.5 -78q0 -45 -30.5 -75.5t-75.5 -30.5q-43 0 -76 30.5t-33 75.5z" />
<glyph unicode="&#xf5;" d="M-2 512q0 45 31.5 77t74.5 32q45 0 77 -32t32 -77t-30.5 -75.5t-78.5 -30.5q-43 0 -74.5 31.5t-31.5 74.5zM0 256q0 45 32 77t77 32q43 0 74.5 -32t31.5 -77t-30.5 -75.5t-75.5 -30.5q-43 0 -76 30.5t-33 75.5zM0 768q0 45 32 77t77 32q43 0 74.5 -32t31.5 -77 t-30.5 -75.5t-75.5 -30.5q-43 0 -76 30.5t-33 75.5zM256 0q0 45 32 77t77 32q43 0 74.5 -32t31.5 -77t-31.5 -77t-74.5 -32q-45 0 -77 32t-32 77zM256 1024q0 45 32 77t77 32q43 0 74.5 -32t31.5 -77t-30.5 -75.5t-75.5 -30.5q-43 0 -76 30.5t-33 75.5zM256 1280q0 45 32 77 t77 32q43 0 74.5 -32t31.5 -77t-30.5 -75.5t-75.5 -30.5q-43 0 -76 30.5t-33 75.5zM512 0q0 45 32 77t77 32q43 0 74.5 -32t31.5 -77t-31.5 -77t-74.5 -32q-45 0 -77 32t-32 77zM512 1024q0 45 32 77t77 32q43 0 74.5 -32t31.5 -77t-30.5 -75.5t-75.5 -30.5q-43 0 -76 30.5 t-33 75.5zM512 1536q0 45 32 77t77 32q43 0 74.5 -32t31.5 -77t-30.5 -75.5t-75.5 -30.5q-43 0 -76 30.5t-33 75.5zM768 0q0 45 32 77t77 32q43 0 74.5 -32t31.5 -77t-31.5 -77t-74.5 -32q-45 0 -77 32t-32 77zM768 1024q0 45 32 77t77 32q43 0 74.5 -32t31.5 -77 t-30.5 -75.5t-75.5 -30.5q-43 0 -76 30.5t-33 75.5zM768 1280q0 45 32 77t77 32q43 0 74.5 -32t31.5 -77t-30.5 -75.5t-75.5 -30.5q-43 0 -76 30.5t-33 75.5zM1024 512q0 45 32 77t77 32q43 0 74.5 -32t31.5 -77t-30.5 -75.5t-75.5 -30.5q-43 0 -76 30.5t-33 75.5z M1024 1536q0 45 32 77t77 32q43 0 74.5 -32t31.5 -77t-30.5 -75.5t-75.5 -30.5q-43 0 -76 30.5t-33 75.5zM1026 256q0 45 32 77t77 32t75.5 -31t30.5 -78q0 -45 -30.5 -75.5t-75.5 -30.5q-43 0 -76 30.5t-33 75.5zM1026 768q0 45 32 77t77 32t75.5 -31t30.5 -78 q0 -45 -30.5 -75.5t-75.5 -30.5q-43 0 -76 30.5t-33 75.5z" />
<glyph unicode="&#xf6;" d="M-2 512q0 45 31.5 77t74.5 32q45 0 77 -32t32 -77t-30.5 -75.5t-78.5 -30.5q-43 0 -74.5 31.5t-31.5 74.5zM0 256q0 45 32 77t77 32q43 0 74.5 -32t31.5 -77t-30.5 -75.5t-75.5 -30.5q-43 0 -76 30.5t-33 75.5zM0 768q0 45 32 77t77 32q43 0 74.5 -32t31.5 -77 t-30.5 -75.5t-75.5 -30.5q-43 0 -76 30.5t-33 75.5zM256 0q0 45 32 77t77 32q43 0 74.5 -32t31.5 -77t-31.5 -77t-74.5 -32q-45 0 -77 32t-32 77zM256 1024q0 45 32 77t77 32q43 0 74.5 -32t31.5 -77t-30.5 -75.5t-75.5 -30.5q-43 0 -76 30.5t-33 75.5zM256 1536q0 45 32 77 t77 32q43 0 74.5 -32t31.5 -77t-30.5 -75.5t-75.5 -30.5q-43 0 -76 30.5t-33 75.5zM512 0q0 45 32 77t77 32q43 0 74.5 -32t31.5 -77t-31.5 -77t-74.5 -32q-45 0 -77 32t-32 77zM512 1024q0 45 32 77t77 32q43 0 74.5 -32t31.5 -77t-30.5 -75.5t-75.5 -30.5q-43 0 -76 30.5 t-33 75.5zM768 0q0 45 32 77t77 32q43 0 74.5 -32t31.5 -77t-31.5 -77t-74.5 -32q-45 0 -77 32t-32 77zM768 1024q0 45 32 77t77 32q43 0 74.5 -32t31.5 -77t-30.5 -75.5t-75.5 -30.5q-43 0 -76 30.5t-33 75.5zM768 1536q0 45 32 77t77 32q43 0 74.5 -32t31.5 -77 t-30.5 -75.5t-75.5 -30.5q-43 0 -76 30.5t-33 75.5zM1024 512q0 45 32 77t77 32q43 0 74.5 -32t31.5 -77t-30.5 -75.5t-75.5 -30.5q-43 0 -76 30.5t-33 75.5zM1026 256q0 45 32 77t77 32t75.5 -31t30.5 -78q0 -45 -30.5 -75.5t-75.5 -30.5q-43 0 -76 30.5t-33 75.5z M1026 768q0 45 32 77t77 32t75.5 -31t30.5 -78q0 -45 -30.5 -75.5t-75.5 -30.5q-43 0 -76 30.5t-33 75.5z" />
<glyph unicode="&#xf7;" d="M-2 512q0 45 31.5 77t74.5 32q45 0 77 -32t32 -77t-30.5 -75.5t-78.5 -30.5q-43 0 -74.5 31.5t-31.5 74.5zM256 512q0 45 32 77t77 32q43 0 74.5 -32t31.5 -77t-30.5 -75.5t-75.5 -30.5q-43 0 -76 30.5t-33 75.5zM512 0q0 45 32 77t77 32q43 0 74.5 -32t31.5 -77 t-31.5 -77t-74.5 -32q-45 0 -77 32t-32 77zM512 512q0 45 32 77t77 32q43 0 74.5 -32t31.5 -77t-30.5 -75.5t-75.5 -30.5q-43 0 -76 30.5t-33 75.5zM512 1024q0 45 32 77t77 32q43 0 74.5 -32t31.5 -77t-30.5 -75.5t-75.5 -30.5q-43 0 -76 30.5t-33 75.5zM768 512 q0 45 32 77t77 32q43 0 74.5 -32t31.5 -77t-30.5 -75.5t-75.5 -30.5q-43 0 -76 30.5t-33 75.5zM1022 512q0 45 31.5 77t74.5 32q45 0 77 -32t32 -77t-30.5 -75.5t-78.5 -30.5q-43 0 -74.5 31.5t-31.5 74.5z" />
<glyph unicode="&#xf8;" d="M-2 512q0 45 31.5 77t74.5 32q45 0 77 -32t32 -77t-30.5 -75.5t-78.5 -30.5q-43 0 -74.5 31.5t-31.5 74.5zM0 0q0 45 32 77t77 32q43 0 74.5 -32t31.5 -77t-31.5 -77t-74.5 -32q-45 0 -77 32t-32 77zM0 256q0 45 32 77t77 32q43 0 74.5 -32t31.5 -77t-30.5 -75.5 t-75.5 -30.5q-43 0 -76 30.5t-33 75.5zM0 768q0 45 32 77t77 32q43 0 74.5 -32t31.5 -77t-30.5 -75.5t-75.5 -30.5q-43 0 -76 30.5t-33 75.5zM256 0q0 45 32 77t77 32q43 0 74.5 -32t31.5 -77t-31.5 -77t-74.5 -32q-45 0 -77 32t-32 77zM256 256q0 45 32 77t77 32 q43 0 74.5 -32t31.5 -77t-30.5 -75.5t-75.5 -30.5q-43 0 -76 30.5t-33 75.5zM256 1024q0 45 32 77t77 32q43 0 74.5 -32t31.5 -77t-30.5 -75.5t-75.5 -30.5q-43 0 -76 30.5t-33 75.5zM512 0q0 45 32 77t77 32q43 0 74.5 -32t31.5 -77t-31.5 -77t-74.5 -32q-45 0 -77 32 t-32 77zM512 512q0 45 32 77t77 32q43 0 74.5 -32t31.5 -77t-30.5 -75.5t-75.5 -30.5q-43 0 -76 30.5t-33 75.5zM512 1024q0 45 32 77t77 32q43 0 74.5 -32t31.5 -77t-30.5 -75.5t-75.5 -30.5q-43 0 -76 30.5t-33 75.5zM768 0q0 45 32 77t77 32q43 0 74.5 -32t31.5 -77 t-31.5 -77t-74.5 -32q-45 0 -77 32t-32 77zM768 768q0 45 32 77t77 32q43 0 74.5 -32t31.5 -77t-30.5 -75.5t-75.5 -30.5q-43 0 -76 30.5t-33 75.5zM768 1024q0 45 32 77t77 32q43 0 74.5 -32t31.5 -77t-30.5 -75.5t-75.5 -30.5q-43 0 -76 30.5t-33 75.5zM1024 512 q0 45 32 77t77 32q43 0 74.5 -32t31.5 -77t-30.5 -75.5t-75.5 -30.5q-43 0 -76 30.5t-33 75.5zM1024 1024q0 45 32 77t77 32q43 0 74.5 -32t31.5 -77t-30.5 -75.5t-75.5 -30.5q-43 0 -76 30.5t-33 75.5zM1026 256q0 45 32 77t77 32t75.5 -31t30.5 -78q0 -45 -30.5 -75.5 t-75.5 -30.5q-43 0 -76 30.5t-33 75.5zM1026 768q0 45 32 77t77 32t75.5 -31t30.5 -78q0 -45 -30.5 -75.5t-75.5 -30.5q-43 0 -76 30.5t-33 75.5z" />
<glyph unicode="&#xf9;" d="M-2 512q0 45 31.5 77t74.5 32q45 0 77 -32t32 -77t-30.5 -75.5t-78.5 -30.5q-43 0 -74.5 31.5t-31.5 74.5zM0 256q0 45 32 77t77 32q43 0 74.5 -32t31.5 -77t-30.5 -75.5t-75.5 -30.5q-43 0 -76 30.5t-33 75.5zM0 768q0 45 32 77t77 32q43 0 74.5 -32t31.5 -77 t-30.5 -75.5t-75.5 -30.5q-43 0 -76 30.5t-33 75.5zM0 1024q0 45 32 77t77 32q43 0 74.5 -32t31.5 -77t-30.5 -75.5t-75.5 -30.5q-43 0 -76 30.5t-33 75.5zM256 0q0 45 32 77t77 32q43 0 74.5 -32t31.5 -77t-31.5 -77t-74.5 -32q-45 0 -77 32t-32 77zM385 1536q0 43 31 76 t76 33t76.5 -32t31.5 -77t-30.5 -75.5t-77.5 -30.5q-45 0 -76 30.5t-31 75.5zM512 0q0 45 32 77t77 32q43 0 74.5 -32t31.5 -77t-31.5 -77t-74.5 -32q-45 0 -77 32t-32 77zM512 1280q0 45 32 77t77 32q43 0 74.5 -32t31.5 -77t-30.5 -75.5t-75.5 -30.5q-43 0 -76 30.5 t-33 75.5zM768 256q0 45 32 77t77 32q43 0 74.5 -32t31.5 -77t-30.5 -75.5t-75.5 -30.5q-43 0 -76 30.5t-33 75.5zM1024 512q0 45 32 77t77 32q43 0 74.5 -32t31.5 -77t-30.5 -75.5t-75.5 -30.5q-43 0 -76 30.5t-33 75.5zM1024 1024q0 45 32 77t77 32q43 0 74.5 -32 t31.5 -77t-30.5 -75.5t-75.5 -30.5q-43 0 -76 30.5t-33 75.5zM1026 0q0 45 32 77t77 32t75.5 -31t30.5 -78q0 -43 -30.5 -76t-75.5 -33t-77 32t-32 77zM1026 256q0 45 32 77t77 32t75.5 -31t30.5 -78q0 -45 -30.5 -75.5t-75.5 -30.5q-43 0 -76 30.5t-33 75.5zM1026 768 q0 45 32 77t77 32t75.5 -31t30.5 -78q0 -45 -30.5 -75.5t-75.5 -30.5q-43 0 -76 30.5t-33 75.5z" />
<glyph unicode="&#xfa;" d="M-2 512q0 45 31.5 77t74.5 32q45 0 77 -32t32 -77t-30.5 -75.5t-78.5 -30.5q-43 0 -74.5 31.5t-31.5 74.5zM0 256q0 45 32 77t77 32q43 0 74.5 -32t31.5 -77t-30.5 -75.5t-75.5 -30.5q-43 0 -76 30.5t-33 75.5zM0 768q0 45 32 77t77 32q43 0 74.5 -32t31.5 -77 t-30.5 -75.5t-75.5 -30.5q-43 0 -76 30.5t-33 75.5zM0 1024q0 45 32 77t77 32q43 0 74.5 -32t31.5 -77t-30.5 -75.5t-75.5 -30.5q-43 0 -76 30.5t-33 75.5zM256 0q0 45 32 77t77 32q43 0 74.5 -32t31.5 -77t-31.5 -77t-74.5 -32q-45 0 -77 32t-32 77zM385 1280q0 43 31 76 t76 33t76.5 -32t31.5 -77t-30.5 -75.5t-77.5 -30.5q-45 0 -76 30.5t-31 75.5zM512 0q0 45 32 77t77 32q43 0 74.5 -32t31.5 -77t-31.5 -77t-74.5 -32q-45 0 -77 32t-32 77zM512 1536q0 45 32 77t77 32q43 0 74.5 -32t31.5 -77t-30.5 -75.5t-75.5 -30.5q-43 0 -76 30.5 t-33 75.5zM768 256q0 45 32 77t77 32q43 0 74.5 -32t31.5 -77t-30.5 -75.5t-75.5 -30.5q-43 0 -76 30.5t-33 75.5zM1024 512q0 45 32 77t77 32q43 0 74.5 -32t31.5 -77t-30.5 -75.5t-75.5 -30.5q-43 0 -76 30.5t-33 75.5zM1024 1024q0 45 32 77t77 32q43 0 74.5 -32 t31.5 -77t-30.5 -75.5t-75.5 -30.5q-43 0 -76 30.5t-33 75.5zM1026 0q0 45 32 77t77 32t75.5 -31t30.5 -78q0 -43 -30.5 -76t-75.5 -33t-77 32t-32 77zM1026 256q0 45 32 77t77 32t75.5 -31t30.5 -78q0 -45 -30.5 -75.5t-75.5 -30.5q-43 0 -76 30.5t-33 75.5zM1026 768 q0 45 32 77t77 32t75.5 -31t30.5 -78q0 -45 -30.5 -75.5t-75.5 -30.5q-43 0 -76 30.5t-33 75.5z" />
<glyph unicode="&#xfb;" d="M-2 512q0 45 31.5 77t74.5 32q45 0 77 -32t32 -77t-30.5 -75.5t-78.5 -30.5q-43 0 -74.5 31.5t-31.5 74.5zM0 256q0 45 32 77t77 32q43 0 74.5 -32t31.5 -77t-30.5 -75.5t-75.5 -30.5q-43 0 -76 30.5t-33 75.5zM0 768q0 45 32 77t77 32q43 0 74.5 -32t31.5 -77 t-30.5 -75.5t-75.5 -30.5q-43 0 -76 30.5t-33 75.5zM0 1024q0 45 32 77t77 32q43 0 74.5 -32t31.5 -77t-30.5 -75.5t-75.5 -30.5q-43 0 -76 30.5t-33 75.5zM256 0q0 45 32 77t77 32q43 0 74.5 -32t31.5 -77t-31.5 -77t-74.5 -32q-45 0 -77 32t-32 77zM385 1280q0 43 31 76 t76 33t76.5 -32t31.5 -77t-30.5 -75.5t-77.5 -30.5q-45 0 -76 30.5t-31 75.5zM512 0q0 45 32 77t77 32q43 0 74.5 -32t31.5 -77t-31.5 -77t-74.5 -32q-45 0 -77 32t-32 77zM512 1536q0 45 32 77t77 32q43 0 74.5 -32t31.5 -77t-30.5 -75.5t-75.5 -30.5q-43 0 -76 30.5 t-33 75.5zM641 1280q0 43 31 76t76 33t76.5 -32t31.5 -77t-30.5 -75.5t-77.5 -30.5q-45 0 -76 30.5t-31 75.5zM768 256q0 45 32 77t77 32q43 0 74.5 -32t31.5 -77t-30.5 -75.5t-75.5 -30.5q-43 0 -76 30.5t-33 75.5zM1024 512q0 45 32 77t77 32q43 0 74.5 -32t31.5 -77 t-30.5 -75.5t-75.5 -30.5q-43 0 -76 30.5t-33 75.5zM1024 1024q0 45 32 77t77 32q43 0 74.5 -32t31.5 -77t-30.5 -75.5t-75.5 -30.5q-43 0 -76 30.5t-33 75.5zM1026 0q0 45 32 77t77 32t75.5 -31t30.5 -78q0 -43 -30.5 -76t-75.5 -33t-77 32t-32 77zM1026 256q0 45 32 77 t77 32t75.5 -31t30.5 -78q0 -45 -30.5 -75.5t-75.5 -30.5q-43 0 -76 30.5t-33 75.5zM1026 768q0 45 32 77t77 32t75.5 -31t30.5 -78q0 -45 -30.5 -75.5t-75.5 -30.5q-43 0 -76 30.5t-33 75.5z" />
<glyph unicode="&#xfc;" d="M-2 512q0 45 31.5 77t74.5 32q45 0 77 -32t32 -77t-30.5 -75.5t-78.5 -30.5q-43 0 -74.5 31.5t-31.5 74.5zM0 256q0 45 32 77t77 32q43 0 74.5 -32t31.5 -77t-30.5 -75.5t-75.5 -30.5q-43 0 -76 30.5t-33 75.5zM0 768q0 45 32 77t77 32q43 0 74.5 -32t31.5 -77 t-30.5 -75.5t-75.5 -30.5q-43 0 -76 30.5t-33 75.5zM0 1024q0 45 32 77t77 32q43 0 74.5 -32t31.5 -77t-30.5 -75.5t-75.5 -30.5q-43 0 -76 30.5t-33 75.5zM256 0q0 45 32 77t77 32q43 0 74.5 -32t31.5 -77t-31.5 -77t-74.5 -32q-45 0 -77 32t-32 77zM256 1536q0 45 32 77 t77 32q43 0 74.5 -32t31.5 -77t-30.5 -75.5t-75.5 -30.5q-43 0 -76 30.5t-33 75.5zM512 0q0 45 32 77t77 32q43 0 74.5 -32t31.5 -77t-31.5 -77t-74.5 -32q-45 0 -77 32t-32 77zM768 256q0 45 32 77t77 32q43 0 74.5 -32t31.5 -77t-30.5 -75.5t-75.5 -30.5q-43 0 -76 30.5 t-33 75.5zM768 1536q0 45 32 77t77 32q43 0 74.5 -32t31.5 -77t-30.5 -75.5t-75.5 -30.5q-43 0 -76 30.5t-33 75.5zM1024 512q0 45 32 77t77 32q43 0 74.5 -32t31.5 -77t-30.5 -75.5t-75.5 -30.5q-43 0 -76 30.5t-33 75.5zM1024 1024q0 45 32 77t77 32q43 0 74.5 -32 t31.5 -77t-30.5 -75.5t-75.5 -30.5q-43 0 -76 30.5t-33 75.5zM1026 0q0 45 32 77t77 32t75.5 -31t30.5 -78q0 -43 -30.5 -76t-75.5 -33t-77 32t-32 77zM1026 256q0 45 32 77t77 32t75.5 -31t30.5 -78q0 -45 -30.5 -75.5t-75.5 -30.5q-43 0 -76 30.5t-33 75.5zM1026 768 q0 45 32 77t77 32t75.5 -31t30.5 -78q0 -45 -30.5 -75.5t-75.5 -30.5q-43 0 -76 30.5t-33 75.5z" />
<glyph unicode="&#xfd;" horiz-adv-x="0" />
<glyph unicode="&#xff;" d="M-2 512q0 45 31.5 77t74.5 32q45 0 77 -32t32 -77t-30.5 -75.5t-78.5 -30.5q-43 0 -74.5 31.5t-31.5 74.5zM0 256q0 45 32 77t77 32q43 0 74.5 -32t31.5 -77t-30.5 -75.5t-75.5 -30.5q-43 0 -76 30.5t-33 75.5zM0 768q0 45 32 77t77 32q43 0 74.5 -32t31.5 -77 t-30.5 -75.5t-75.5 -30.5q-43 0 -76 30.5t-33 75.5zM0 1024q0 45 32 77t77 32q43 0 74.5 -32t31.5 -77t-30.5 -75.5t-75.5 -30.5q-43 0 -76 30.5t-33 75.5zM256 0q0 45 32 77t77 32q43 0 74.5 -32t31.5 -77t-31.5 -77t-74.5 -32q-45 0 -77 32t-32 77zM256 -512q0 45 31 75.5 t78 30.5q43 0 74.5 -31.5t31.5 -74.5q0 -45 -31.5 -77t-74.5 -32q-45 0 -77 32t-32 77zM256 1536q0 45 32 77t77 32q43 0 74.5 -32t31.5 -77t-30.5 -75.5t-75.5 -30.5q-43 0 -76 30.5t-33 75.5zM512 0q0 45 32 77t77 32q43 0 74.5 -32t31.5 -77t-31.5 -77t-74.5 -32 q-45 0 -77 32t-32 77zM512 -512q0 45 31 75.5t78 30.5q43 0 74.5 -31.5t31.5 -74.5q0 -45 -31.5 -77t-74.5 -32q-45 0 -77 32t-32 77zM768 256q0 45 32 77t77 32q43 0 74.5 -32t31.5 -77t-30.5 -75.5t-75.5 -30.5q-43 0 -76 30.5t-33 75.5zM768 -512q0 45 31 75.5t78 30.5 q43 0 74.5 -31.5t31.5 -74.5q0 -45 -31.5 -77t-74.5 -32q-45 0 -77 32t-32 77zM768 1536q0 45 32 77t77 32q43 0 74.5 -32t31.5 -77t-30.5 -75.5t-75.5 -30.5q-43 0 -76 30.5t-33 75.5zM1024 512q0 45 32 77t77 32q43 0 74.5 -32t31.5 -77t-30.5 -75.5t-75.5 -30.5 q-43 0 -76 30.5t-33 75.5zM1026 0q0 45 32 77t77 32t75.5 -31t30.5 -78q0 -43 -30.5 -76t-75.5 -33t-77 32t-32 77zM1026 -256q0 45 31 75.5t78 30.5q45 0 75.5 -30.5t30.5 -75.5q0 -43 -30.5 -76t-75.5 -33t-77 32t-32 77zM1026 256q0 45 32 77t77 32t75.5 -31t30.5 -78 q0 -45 -30.5 -75.5t-75.5 -30.5q-43 0 -76 30.5t-33 75.5zM1026 768q0 45 32 77t77 32t75.5 -31t30.5 -78q0 -45 -30.5 -75.5t-75.5 -30.5q-43 0 -76 30.5t-33 75.5zM1026 1024q0 45 32 77t77 32t75.5 -31t30.5 -78q0 -45 -30.5 -75.5t-75.5 -30.5q-43 0 -76 30.5t-33 75.5z " />
</font>
</defs>
</svg>
